<svg xmlns="http://www.w3.org/2000/svg" viewBox="0 0 530 530"><defs><style>.a{fill:#f1fbdd;}</style></defs><path class="a" d="M265.15,0H265C119,0,.09,118.81,0,264.85S118.72,529.92,264.84,530,529.92,411.2,530,265.16,411.27.08,265.15,0ZM265,521.68C123.46,521.68,8.32,406.54,8.32,265S123.46,8.32,265,8.32,521.68,123.46,521.68,265,406.54,521.68,265,521.68Z"/><path class="a" d="M269.2,164.42,265,175l-4.21-10.62a101.8,101.8,0,0,0-12.64-22.83l-23.76,61.68s79.85.07,81.43,0L282,141.44A102,102,0,0,0,269.2,164.42Z"/><path class="a" d="M265,18.3C129,18.3,18.3,129,18.3,265S129,511.7,265,511.7,511.7,401,511.7,265,401,18.3,265,18.3ZM399.6,447.2l-18.91-49.14v46.18h-9.07V374.49L309.24,212.33h-8.45c-23.31,2-81.27,11.7-102.61,58.94L158.37,374.62v69.62H149.3V398.15L130.41,447.2H120.7l28.6-74.26V82.8l4.82.3c.68,0,54.44,3.91,91,41.07l15.21-39.5h9.53L285,124c36.56-37,90.2-40.88,90.88-40.92l4.82-.3v290L409.3,447.2Z"/><path class="a" d="M214.65,203.27l26.88-69.78c-28-30.93-69.22-38.94-83.16-40.81V203.27Z"/><path class="a" d="M371.62,203.27V92.69c-13.94,1.89-55,9.92-83,40.67l26.89,69.91Z"/><path class="a" d="M278.17,131.58l-13.08-34-13.16,34.15a108.37,108.37,0,0,1,13.05,20A109.22,109.22,0,0,1,278.17,131.58Z"/><polygon class="a" points="318.97 212.33 371.62 349.24 371.62 212.33 318.97 212.33"/><path class="a" d="M188.21,271.44c.46-1.17,1-2.26,1.49-3.39l21.46-55.72H158.37V349.4l29.56-76.77A4.58,4.58,0,0,1,188.21,271.44Z"/><path class="a" d="M211,238c13.24-12.45,29.16-20.51,44.38-25.71H220.88Z"/></svg>