<?xml version="1.0" encoding="utf-8"?>
<!-- Generator: Adobe Illustrator 26.0.1, SVG Export Plug-In . SVG Version: 6.00 Build 0)  -->
<svg version="1.1" id="Layer_1" xmlns="http://www.w3.org/2000/svg" xmlns:xlink="http://www.w3.org/1999/xlink" x="0px" y="0px"
	 viewBox="0 0 955.7 399" style="enable-background:new 0 0 955.7 399;" xml:space="preserve">
<style type="text/css">
	.st0{fill-rule:evenodd;clip-rule:evenodd;fill:#F93030;}
	.st1{fill:#F93030;}
</style>
<path class="st0" d="M90.8,63.3c0,0.3,0,0.6-0.1,0.9c-0.4,1.3-1.7,2.2-3.1,2.2c-1.2,0.1-2.2-0.8-2.3-1.9c0-0.1,0-0.2,0-0.3
	c0-2.3,2.6-3,5.5-3L90.8,63.3L90.8,63.3z M95.3,59.3c0-3.8-1.6-7.2-7.2-7.2c-2.2,0-4.4,0.5-6.3,1.5l0.9,3.1c1.4-0.8,3-1.3,4.6-1.3
	c2.8,0,3.2,1.6,3.2,2.6v0.2c-6.1,0-10,2.1-10,6.4c0,2.8,2.2,5.1,5.1,5.1c0.1,0,0.2,0,0.3,0c1.9,0.1,3.7-0.7,4.9-2.2H91
	c0,0,0.7,2.9,4.6,1.8c-0.2-1.4-0.3-2.7-0.3-4.1L95.3,59.3L95.3,59.3z"/>
<path class="st0" d="M0,46.8c0,0,4,16.4,4.6,19c0.8,3.1,2.1,4.2,6,3.5l2.5-10.2c0.6-2.5,1-4.3,1.5-6.9h0c0.3,2.3,0.7,4.6,1.2,6.9
	c0,0,1,4.6,1.5,7s2,3.9,5.8,3.1l6-22.5h-4.8l-2,9.7c-0.5,2.8-1,5.1-1.4,7.6h-0.1c-0.3-2.6-0.8-4.7-1.3-7.5l-2.1-9.9h-5l-2.3,9.7
	c-0.6,2.9-1.2,5.3-1.6,7.8H8.4c-0.4-2.4-0.9-5.3-1.5-8.2c0,0-1.3-6.9-1.8-9.3L0,46.8z"/>
<path class="st0" d="M38.2,63.3c0,0.3,0,0.6-0.1,0.9c-0.4,1.3-1.7,2.2-3.1,2.2c-1.2,0.1-2.2-0.8-2.3-1.9c0-0.1,0-0.2,0-0.3
	c0-2.3,2.6-3,5.5-3V63.3L38.2,63.3z M42.7,59.3c0-3.8-1.6-7.2-7.2-7.2c-2.2,0-4.4,0.5-6.3,1.5l0.9,3.1c1.4-0.8,3-1.3,4.6-1.3
	c2.8,0,3.3,1.6,3.3,2.6v0.2c-6.1,0-10,2.1-10,6.4c0,2.8,2.2,5.1,5.1,5.1c0.1,0,0.2,0,0.3,0c1.9,0.1,3.7-0.7,4.9-2.2h0.1
	c0,0,0.7,2.9,4.6,1.8c-0.2-1.4-0.3-2.7-0.3-4.1L42.7,59.3L42.7,59.3z"/>
<polygon class="st0" points="50.4,64.6 50.4,46.8 45.8,46.8 45.8,69.4 50.4,69.4 50.4,64.6 "/>
<path class="st0" d="M110.2,46.8v16.6c0,2.3,0.4,3.9,1.4,4.9c1,1,2.3,1.5,3.7,1.4c1.1,0,2.2-0.2,3.3-0.5l-0.1-3.6
	c-0.6,0.1-1.1,0.2-1.7,0.2c-1.6,0-2.1-1-2.1-3.1v-6.4h4v-4.3h-4v-5.3H110.2z"/>
<path class="st0" d="M98.4,52.5v16.9h4.7v-8.7c0-0.4,0-0.8,0.1-1.2c0.3-1.8,1.9-3.1,3.7-3c0.5,0,0.9,0,1.4,0.1v-4.4
	c-0.3-0.1-0.7-0.1-1-0.1c-2.1,0.1-4,1.5-4.6,3.6h-0.1v-3.2H98.4z"/>
<path class="st0" d="M53.6,52.5v16.9h4.6v-9.9c0-0.5,0.1-0.9,0.2-1.4c0.4-1.2,1.5-2.1,2.8-2.2c1.8,0,2.7,1.6,2.7,3.8v9.6h4.6v-10
	c0-0.5,0.1-0.9,0.2-1.4c0.4-1.2,1.5-2.1,2.8-2.1c1.9,0,2.8,1.5,2.8,4.2v9.3h4.6v-10c0-5.3-2.7-7.3-5.7-7.3c-1.2,0-2.3,0.3-3.3,0.9
	c-0.9,0.5-1.6,1.3-2.1,2.1h-0.1c-0.8-1.9-2.6-3.1-4.7-3C60.9,52,59,53,58,54.8h-0.1v-2.3H53.6z"/>
<path class="st0" d="M144.3,52.7c0.7,0.1,1.4-0.3,1.6-1l0.8-9.3c0-0.9-1.1-1.7-2.4-1.7s-2.4,0.8-2.4,1.7l0.8,9.3
	C143,52.4,143.6,52.8,144.3,52.7L144.3,52.7z"/>
<path class="st0" d="M139.3,55.6c0.4-0.6,0.4-1.3-0.1-1.9l-7.7-5.4c-0.8-0.4-2,0.1-2.7,1.3s-0.6,2.5,0.2,2.9l8.5,3.9
	C138.3,56.6,139,56.3,139.3,55.6L139.3,55.6z"/>
<path class="st0" d="M149.4,55.6c0.3,0.7,1,1,1.7,0.9l8.5-3.9c0.8-0.5,0.9-1.8,0.2-2.9s-1.9-1.7-2.7-1.3l-7.6,5.4
	C149,54.3,148.9,55,149.4,55.6L149.4,55.6z"/>
<path class="st0" d="M144.3,64.3c0.7-0.1,1.4,0.3,1.6,1l0.8,9.3c0,0.9-1.1,1.7-2.4,1.7s-2.4-0.8-2.4-1.7l0.8-9.3
	C143,64.7,143.6,64.2,144.3,64.3L144.3,64.3z"/>
<path class="st0" d="M149.4,61.4c0.3-0.7,1-1,1.7-0.9l8.5,3.9c0.8,0.5,0.9,1.8,0.2,2.9s-1.9,1.7-2.7,1.3l-7.6-5.4
	C149,62.8,148.9,62,149.4,61.4L149.4,61.4z"/>
<path class="st0" d="M139.3,61.4c0.4,0.6,0.4,1.4-0.1,1.9l-7.7,5.3c-0.8,0.5-2-0.1-2.7-1.3s-0.6-2.5,0.2-3l8.5-3.9
	C138.3,60.3,139,60.7,139.3,61.4L139.3,61.4z"/>
<path class="st0" d="M160.3,70.2c0.1,0.1,0.2,0.1,0.4,0.1c0.2,0,0.3-0.1,0.3-0.2s-0.1-0.2-0.3-0.2s-0.4-0.2-0.4-0.4s0.2-0.4,0.5-0.4
	c0.1,0,0.2,0,0.3,0.1l-0.1,0.2c-0.1,0-0.2-0.1-0.3-0.1c-0.2,0-0.2,0.1-0.2,0.2s0.1,0.2,0.3,0.2s0.4,0.2,0.4,0.4s-0.2,0.4-0.6,0.4
	c-0.1,0-0.3,0-0.4-0.1L160.3,70.2L160.3,70.2z"/>
<path class="st0" d="M162.6,69.9c0-0.2,0-0.4,0-0.6l0,0c0,0.2-0.1,0.4-0.2,0.6l-0.2,0.6H162l-0.2-0.6c-0.1-0.2-0.1-0.4-0.1-0.6l0,0
	c0,0.2,0,0.4,0,0.6v0.6h-0.2l0.1-1.4h0.4l0.2,0.6c0,0.2,0.1,0.3,0.1,0.5l0,0c0-0.2,0.1-0.3,0.1-0.5l0.2-0.6h0.3l0.1,1.4h-0.3v-0.6
	L162.6,69.9z"/>
<path class="st0" d="M298.6,78.8c-8.2,6.1-20.1,9.3-30.4,9.3c-13.7,0.1-27-5-37.1-14.1c-0.8-0.7-0.1-1.6,0.8-1.1
	c11.3,6.5,24.1,9.9,37.2,9.9c9.7,0,19.4-2,28.4-5.8C298.8,76.3,300,77.8,298.6,78.8z"/>
<path class="st0" d="M302.1,74.9c-1-1.3-7-0.6-9.6-0.3c-0.8,0.1-0.9-0.6-0.2-1.1c4.7-3.3,12.4-2.3,13.3-1.2s-0.2,8.8-4.6,12.5
	c-0.7,0.6-1.3,0.3-1-0.5C300.9,81.8,303.1,76.3,302.1,74.9z"/>
<path class="st0" d="M292.6,50.1v-3.2c0-0.4,0.3-0.8,0.8-0.8c0,0,0,0,0,0h14.4c0.4,0,0.8,0.3,0.8,0.8c0,0,0,0,0,0v2.8
	c-0.2,0.7-0.6,1.4-1.1,2l-7.5,10.7c2.8-0.2,5.7,0.5,8.2,1.8c0.5,0.3,0.7,0.7,0.8,1.3v3.4c0,0.5-0.5,1-1.1,0.7
	c-4.8-2.5-10.4-2.5-15.2,0c-0.5,0.3-1-0.3-1-0.8v-3.2c0-0.8,0.1-1.5,0.5-2.2L301,51h-7.5C293,51,292.7,50.7,292.6,50.1
	C292.6,50.2,292.6,50.2,292.6,50.1z"/>
<path class="st0" d="M240.1,70.2h-4.4c-0.4,0-0.7-0.3-0.8-0.7V47c0-0.5,0.4-0.8,0.8-0.8c0,0,0,0,0,0h4.1c0.4,0,0.8,0.3,0.8,0.8v2.9
	h0.1c0.7-2.6,3.1-4.3,5.8-4.2c2.7,0,4.5,1.3,5.7,4.2c1.3-3.3,5-5,8.4-3.7c1.1,0.4,2,1.1,2.8,2c1.4,1.9,1.1,4.6,1.1,7v14.2
	c0,0.5-0.4,0.8-0.8,0.8h-4.4c-0.4,0-0.8-0.4-0.8-0.8V57.5c0.1-1.4,0-2.8-0.1-4.2c-0.2-1.2-1.3-2.1-2.6-1.9c0,0,0,0,0,0
	c-1.2,0-2.2,0.8-2.6,1.8c-0.4,1.4-0.5,2.9-0.4,4.3v11.9c0,0.5-0.4,0.8-0.8,0.8c0,0,0,0,0,0h-4.4c-0.4,0-0.8-0.4-0.8-0.8V57.5
	c0-2.5,0.4-6.2-2.7-6.2s-3,3.6-3,6.2v11.9C241,69.8,240.7,70.2,240.1,70.2C240.2,70.2,240.1,70.2,240.1,70.2z"/>
<path class="st0" d="M321.1,45.7c6.5,0,10,5.6,10,12.7c0,6.9-3.9,12.3-10,12.3c-6.4,0-9.9-5.6-9.9-12.5S314.8,45.7,321.1,45.7z
	 M321.1,50.3c-3.2,0-3.4,4.4-3.4,7.1s0,8.6,3.4,8.6s3.6-4.7,3.6-7.6c0.1-2-0.1-4-0.6-6C323.7,51.1,322.5,50.2,321.1,50.3L321.1,50.3
	z"/>
<path class="st0" d="M339.6,70.2h-4.4c-0.4,0-0.8-0.4-0.8-0.8V46.9c0-0.4,0.4-0.8,0.8-0.7h4.1c0.4,0,0.7,0.3,0.8,0.6v3.4h0.1
	c1.2-3.1,3-4.5,6-4.5c2.1-0.1,4,0.9,5.1,2.7c1.1,1.8,1.1,4.8,1.1,7v14.1c-0.1,0.4-0.4,0.7-0.8,0.7h-4.4c-0.4,0-0.7-0.3-0.8-0.7V57.3
	c0-2.5,0.3-6.1-2.7-6.1c-1.1,0-2.1,0.8-2.5,1.8c-0.5,1.4-0.8,2.8-0.7,4.3v12.1C340.4,69.8,340,70.2,339.6,70.2z"/>
<path class="st0" d="M281.2,59.5c0.2,1.6-0.1,3.2-0.8,4.7c-0.6,1.2-1.7,1.9-3,2c-1.7,0-2.7-1.3-2.7-3.2c0-3.7,3.3-4.4,6.5-4.4
	L281.2,59.5z M285.6,70.1c-0.3,0.2-0.7,0.3-1,0.1c-1-0.8-1.9-1.8-2.5-2.9c-2.4,2.4-4.1,3.2-7.2,3.2c-3.7,0-6.6-2.3-6.6-6.8
	c-0.1-3.1,1.8-6,4.7-7.2c2.4-1,5.7-1.2,8.2-1.5v-0.6c0.1-1.1,0-2.2-0.5-3.2c-0.6-0.8-1.5-1.2-2.5-1.1c-1.7-0.1-3.2,1-3.5,2.6
	c0,0.4-0.4,0.7-0.8,0.8l-4.2-0.5c-0.4-0.1-0.7-0.4-0.7-0.8c0,0,0,0,0-0.1c1-5.2,5.6-6.7,9.8-6.7c2.1,0,4.9,0.6,6.6,2.2
	c2.1,2,1.9,4.7,1.9,7.5V62c0,1.5,0.6,3,1.6,4.1c0.3,0.3,0.3,0.8,0,1.2c0,0,0,0,0,0C288.1,68,286.5,69.3,285.6,70.1L285.6,70.1z"/>
<path class="st0" d="M223.7,59.5c0.2,1.6-0.1,3.2-0.8,4.7c-0.6,1.2-1.7,1.9-3,2c-1.7,0-2.7-1.3-2.7-3.2c0-3.7,3.3-4.4,6.5-4.4
	L223.7,59.5z M228.2,70.1c-0.3,0.2-0.7,0.3-1,0.1c-1-0.8-1.9-1.8-2.6-2.9c-2.4,2.4-4.1,3.2-7.2,3.2c-3.7,0-6.6-2.3-6.6-6.8
	c-0.1-3.1,1.8-6,4.7-7.2c2.4-1,5.7-1.2,8.2-1.5v-0.6c0.1-1.1,0-2.2-0.5-3.2c-0.6-0.8-1.5-1.2-2.5-1.1c-1.7-0.1-3.2,1-3.5,2.6
	c0,0.4-0.4,0.7-0.8,0.8l-4.2-0.5c-0.4-0.1-0.7-0.4-0.7-0.8c0,0,0,0,0-0.1c1-5.2,5.6-6.7,9.8-6.7c2.1,0,4.9,0.6,6.6,2.2
	c2.1,2,1.9,4.7,1.9,7.5V62c0,1.5,0.6,3,1.7,4.1c0.3,0.3,0.3,0.8,0,1.2c0,0,0,0,0,0C230.7,68,229.1,69.4,228.2,70.1L228.2,70.1z"/>
<path class="st0" d="M483.5,21.1c2.4-3.2,6-5.2,10-5.5c0.3,3.7-0.8,7.3-3.3,10.1c-4.4,5.3-9.4,4.4-9.4,4.4S479.8,26,483.5,21.1z"/>
<path class="st0" d="M481.3,33.8c2.1,0,6.1-2.9,11.3-2.9c8.9,0,12.4,6.3,12.4,6.3c-4.3,2.5-6.9,7.1-6.9,12c0,9.6,8.5,12.9,8.5,12.9
	s-6,16.8-14,16.8c-3.7,0-6.6-2.5-10.5-2.5s-8,2.6-10.5,2.6C464.3,79,455,63,455,50.2c0-12.6,7.9-19.2,15.3-19.2
	C475,31,478.8,33.8,481.3,33.8z"/>
<path class="st0" d="M667.4,42.8c0.9,1.9,1.5,3.9,1.6,6h-9.7c-0.2-1.7-1.2-3.3-2.7-4.2c-1.9-1-4.3-0.8-6,0.5c-2.8,2.5-3,6.3-2.7,10
	c0.4,2.4,1.2,5.1,3.8,6.2c1.8,0.7,4.2,0.7,5.6-0.8c1.1-1.2,1.7-2.6,1.9-4.2h9.8c-0.1,5.2-3.2,10-8,12.1c-5.6,2.5-13.3,1.7-17.9-2.4
	c-5.7-5.1-6.5-13.9-4-20.7c2.2-5.8,8.3-9.4,14.4-9.4C659.2,35.8,664.8,37.6,667.4,42.8L667.4,42.8z"/>
<path class="st0" d="M723.8,42.8c0.4,1.2,0.6,2.5,0.7,3.7H715c0.1-0.9-0.3-1.8-1-2.4c-1.7-1.2-3.9-1.4-5.7-0.5
	c-0.6,0.3-1.1,0.9-1.1,1.6c0.1,1.3,1.6,1.9,2.6,2.3c4.5,1.5,9.4,1.7,13.2,4.8c2.7,2.2,3.2,5.9,2.4,9.2c-0.9,4.7-5.9,7.3-10.1,8
	c-5.6,0.9-11.4,0.2-15.5-3.3c-2.2-2.1-3.4-5-3.2-8h10c0,1.5,0.4,3,1.8,3.8c2,1,4.4,0.9,6.4-0.1c0.7-0.5,1.1-1.4,1-2.3
	c-0.1-1.6-1.8-1.9-3-2.4c-4.1-1.5-8.6-1.9-12.2-4.5c-2.8-2-3.2-5.6-2.5-8.7c0.6-3.3,3.9-6.2,7-7.2c5-1.5,11.5-1.2,15.7,1.8
	c1.4,1.1,2.4,2.5,3,4.1L723.8,42.8z"/>
<path class="st0" d="M683.4,56.4L683.4,56.4l5.3-19.7H699l-10.1,32.4v0.1h-11.2L668,36.7h10.1C678.1,36.7,683.4,56.4,683.4,56.4z"/>
<path class="st0" d="M806.9,54.1h4.7v0.6c-1.2,0.1-1.4,0.3-1.4,1.4v8.4c0,1.8,1,2.8,2.5,2.8c1.4,0.1,2.7-1.1,2.7-2.5
	c0-0.1,0-0.2,0-0.4v-8.2c0-1-0.3-1.5-1.6-1.6v-0.6h3.8v0.6c-1.2,0.1-1.6,0.5-1.6,1.6V64c0,2.4-1,3.9-3.7,3.9s-4.1-1.5-4.1-4v-7.8
	c0-1-0.1-1.3-1.4-1.4L806.9,54.1L806.9,54.1z"/>
<path class="st0" d="M817.4,67.6V67c0.9,0,1.2-0.4,1.2-1v-6.2c0-0.9-0.3-1-1.3-1v-0.6l2.9-0.1V60l0,0c0.6-1.1,1.3-2,2.7-2
	c1.7,0,2.3,1,2.3,2.8V66c0,0.6,0.3,1,1.2,1v0.6h-2.9v-7c0-1.3-0.5-1.7-1.1-1.7c-1,0-2.2,1.4-2.2,3.3V66c0,0.5,0.3,1,1.3,1v0.6
	L817.4,67.6z"/>
<path class="st0" d="M826.9,67.6V67c1,0,1.2-0.4,1.2-1v-6.2c0-0.9-0.2-1-1.2-1v-0.6l3-0.1v8c0,0.5,0.3,1,1.2,1v0.6L826.9,67.6z
	 M829.9,55.1c0,0.8-0.4,1.3-1,1.3s-1-0.5-1-1.3c0-0.6,0.4-1,1-1S829.9,54.6,829.9,55.1z"/>
<path class="st0" d="M834.1,54.6v3.6h2.3V59h-2.3v6.9c0,0.9,0.3,1.2,0.9,1.2s1.1-0.3,1.1-2.4V64h0.6v1c0,2-0.7,2.9-2.2,2.9
	c-1.3,0-2.1-0.9-2.1-2.4V59h-1.2v-0.6c1.4-0.6,2.2-1.2,2.3-3.8L834.1,54.6z"/>
<path class="st0" d="M839.4,62.1c0-2.5,0.8-3.5,1.8-3.5s1.7,1,1.7,3.5H839.4z M844.8,62.9c0-2.9-1.4-4.9-3.6-4.9s-3.7,2-3.7,4.9
	c0,2.4,1.6,5,4,5c2.3,0,3.2-1.7,3.4-3.5l-0.6-0.1c-0.3,1.3-0.9,2.8-2.5,2.8c-1.4,0-2.3-1.5-2.3-4.2L844.8,62.9z"/>
<path class="st0" d="M847.6,63c0-3,0.8-4.3,1.8-4.3c1.2,0,1.9,1.5,1.9,4.3c0,3.4-1,4.3-2.1,4.3S847.6,66,847.6,63z M850.1,54.7
	c1,0.1,1.3,0.2,1.3,1.1v3.6c-0.4-0.8-1.1-1.3-2-1.3c-2.1,0-3.7,2.1-3.7,5c0,3,1.7,4.9,3.4,4.9c1,0,2-0.6,2.3-1.7h0.1v1.3l2.7-0.1
	v-0.6c-0.8,0-1.1-0.3-1.1-1.4V54l-3,0.1L850.1,54.7L850.1,54.7z"/>
<path class="st0" d="M855.1,67.6V67c1.1-0.1,1.3-0.3,1.3-1.3v-9.6c0-1-0.2-1.3-1.3-1.4v-0.6h4.7v0.6c-1.2,0.1-1.5,0.3-1.5,1.4v4h4.2
	v-4c0-1-0.3-1.3-1.5-1.4v-0.6h4.8v0.6c-1.2,0.1-1.4,0.3-1.4,1.4v9.6c0,1,0.2,1.2,1.4,1.3v0.6h-4.8V67c1.2-0.1,1.5-0.3,1.5-1.3v-4.8
	h-4.3v4.8c0,1,0.3,1.2,1.5,1.3v0.6L855.1,67.6z"/>
<path class="st0" d="M867.9,62.1c0-2.5,0.8-3.5,1.9-3.5s1.6,1,1.6,3.5H867.9z M873.3,62.9c0-2.9-1.3-4.9-3.5-4.9s-3.8,2-3.8,4.9
	c0,2.4,1.7,5,4,5s3.2-1.7,3.4-3.5l-0.6-0.1c-0.2,1.3-0.8,2.8-2.5,2.8c-1.3,0-2.3-1.5-2.3-4.2L873.3,62.9z"/>
<path class="st0" d="M879,63.7c0,2.3-0.9,3.4-1.9,3.4c-0.6,0-1-0.5-1-1.6c0-1.7,1.4-2.3,3-3L879,63.7L879,63.7z M881.7,64.9
	c-0.1,1.4-0.2,1.8-0.6,1.8c-0.3,0-0.3-0.3-0.3-0.8v-5.5c0-1.5-0.9-2.4-3-2.4c-1.7,0-3,1-3,2.3c0,0.8,0.3,1.2,1,1.2c0.6,0,1-0.4,1-1
	c0,0,0-0.1,0-0.1c0-0.6-0.2-1-0.9-1.1c0.4-0.5,1-0.7,1.7-0.7c1,0,1.6,0.4,1.6,1.6v1.7c-1.7,0.6-4.8,1.6-4.8,3.8
	c0,1.2,0.9,2.2,2.1,2.3c0.1,0,0.2,0,0.3,0c1.1,0,2-0.6,2.4-1.6l0,0c0.2,1,0.7,1.6,1.6,1.6c1.2,0,1.7-0.9,1.7-3L881.7,64.9z"/>
<path class="st0" d="M882.5,67.6V67c1,0,1.3-0.4,1.3-1V55.8c0-0.6-0.3-1-1.3-1.1v-0.6l3-0.1v12c0,0.5,0.3,1,1.2,1v0.6L882.5,67.6z"
	/>
<path class="st0" d="M889.9,54.6v3.6h2.3V59h-2.3v6.9c0,0.9,0.3,1.2,0.8,1.2c0.7,0,1.1-0.3,1.1-2.4V64h0.7v1c0,2-0.8,2.9-2.3,2.9
	c-1.2,0-2-0.9-2-2.4V59H887v-0.6c1.4-0.6,2.1-1.2,2.3-3.8L889.9,54.6z"/>
<path class="st0" d="M893,67.6V67c0.9,0,1.2-0.4,1.2-1V55.8c0-0.9-0.3-1-1.3-1.1v-0.6l3-0.1v5.8h0.1c0.3-1,1.3-1.7,2.4-1.8
	c1.6,0,2.4,1,2.4,2.8V66c0,0.5,0.3,1,1.2,1v0.6h-2.9v-6.9c0-1.4-0.5-1.8-1.2-1.8c-1,0-2.1,1.3-2.1,3.2V66c0,0.5,0.3,1,1.3,1v0.6
	L893,67.6z"/>
<path class="st0" d="M914.4,54.1v5.2h-0.7c-0.4-3.3-1.3-4.8-3.1-4.8c-1.6,0-3,1.3-3,6.4c0,4.8,1.3,6.3,3,6.3c1.3,0,2-0.9,2-3.1
	c0-2.1-0.3-2.4-1.8-2.4v-0.7h5.2v0.7c-1.2,0-1.5,0.3-1.5,1.3v4.7h-0.6c-0.2-0.4-0.4-0.7-0.6-0.7s-0.3,0.2-1,0.6
	c-0.5,0.3-1.1,0.4-1.7,0.4c-2.6,0-5.1-2.5-5.1-7c0-4,2.3-7.1,5.1-7.1c0.7,0,1.4,0.2,2,0.5c0.4,0.3,0.6,0.4,0.8,0.4s0.3-0.3,0.4-0.7
	L914.4,54.1z"/>
<path class="st0" d="M916.4,67.6V67c0.9,0,1.1-0.4,1.1-1v-5.4c0-1.3-0.2-1.7-1.2-1.8v-0.6l2.8-0.1v2.3l0,0c0.3-1,1-2.3,2.2-2.3
	c0.8,0.1,1.4,0.8,1.4,1.6c0,0,0,0,0,0.1c0,0.9-0.4,1.3-0.9,1.3s-1-0.3-1-1.1c0-0.5,0.4-0.9,0.9-1c-0.2-0.1-0.3-0.2-0.5-0.2
	c-1.3,0-1.9,2.9-1.9,4.6V66c0,0.5,0.3,1,1.7,1v0.6L916.4,67.6z"/>
<path class="st0" d="M924.8,62.9c0-3.4,0.8-4.3,1.9-4.3s1.9,0.9,1.9,4.3s-0.8,4.3-1.9,4.3S924.8,66.2,924.8,62.9z M923.1,62.9
	c0,3,1.8,5,3.7,5s3.7-2,3.7-5s-1.8-4.9-3.7-4.9S923.1,59.9,923.1,62.9L923.1,62.9z"/>
<path class="st0" d="M939.6,67.5l-2.6,0.1v-1.7h-0.1c-0.3,1.2-1.3,2-2.5,2c-1.7,0-2.4-0.9-2.4-2.8v-5.2c0-0.9-0.3-1-1.1-1v-0.6
	l2.8-0.1v7.3c0,1.1,0.4,1.5,1.1,1.5c1.1,0,2-1.5,2-3.1v-4c0-0.9-0.2-1-1.2-1v-0.6l3-0.1v7.8c0,0.8,0.3,1,1.1,1L939.6,67.5
	L939.6,67.5z"/>
<path class="st0" d="M942.7,63.3c0-3.4,1-4.6,2-4.6s1.7,1.2,1.7,4.3s-0.7,4.3-1.7,4.3C943.8,67.2,942.7,66.2,942.7,63.3z
	 M944.1,71.2v-0.6c-1.1-0.1-1.5-0.4-1.5-1v-3h0.1c0.3,0.8,1.1,1.4,2,1.3c2.2,0,3.6-2.3,3.6-5c0-2-1.1-4.9-3.4-4.9
	c-1.1,0-2.1,0.8-2.3,1.9l0,0V58l-2.9,0.1v0.6c1,0.1,1.3,0.2,1.3,1v9.8c0,0.5-0.3,0.9-1.3,1v0.6L944.1,71.2z"/>
<path class="st0" d="M875.2,33.6c-1.3,4.8-3.7,5.2-4.7,5.2c-1.8,0-3.5-1.2-3.5-9.1V10.9l9-4.8v18.2C876,27.4,875.8,30.6,875.2,33.6
	L875.2,33.6z"/>
<path class="st0" d="M879.7,4.1l2,0.4v19.3c0,4.8-0.2,9-1.4,12c-1,2.6-2.9,4.6-5.1,5.2l-2.4-0.3c3.5-0.4,5.6-4.3,6-6.3
	c0.8-3.1,1.1-6.4,1-9.6L879.7,4.1l-3.7,2l1.9,0.4v16.7c0,4.3-0.1,8.1-0.8,10.6c-1,3.5-2.8,5-4,5.4l-2.6-0.3h-0.6
	c0.3,1,1.1,1.7,2.1,1.9c0.3,0.9,1.1,1.6,2,1.8c0.6,1.2,1.8,1.9,3.1,1.8c1.7,0,3.3-0.6,4.6-1.6c4.3-3,5.7-9.7,5.7-18.7V0L879.7,4.1z
	 M885.5,23.9c0,6.5-0.6,11.1-2.1,14s-3.7,4.7-5.9,5l-2.8-0.3c3.7,0,6-3.6,6.9-5.5c1.3-2.8,1.9-6.7,1.9-12.4V2l2,0.5L885.5,23.9
	L885.5,23.9z"/>
<path class="st0" d="M949.9,56.4L949.9,56.4c0,0.4,0.2,0.7,0.5,0.8c0,0,0.1,0,0.1,0c0.3,0,0.6-0.2,0.7-0.5c0,0,0-0.1,0-0.1
	c0-0.8-1.7-0.7-1.7-1.8c0-0.5,0.4-1,0.9-1c0,0,0.1,0,0.1,0c0.7,0,1,0.3,1,1H951c0-0.4-0.1-0.7-0.5-0.7c-0.3,0-0.6,0.2-0.6,0.5
	c0,0,0,0.1,0,0.1c0,0.8,1.7,0.6,1.7,1.8c0,0.8-0.5,1-1.1,1c-1,0.1-1-0.8-1-1.1L949.9,56.4z"/>
<polygon class="st0" points="952.8,57.6 952.3,57.6 952.3,53.9 953.1,53.9 954.1,57 954.1,57 955,53.9 955.7,53.9 955.7,57.6 
	955.3,57.6 955.3,54.3 955.3,54.3 954.2,57.6 953.8,57.6 952.8,54.3 952.8,54.3 952.8,57.6 "/>
<path class="st1" d="M11.8,161.8c0.4-0.4,0.6-0.9,0.6-1.5c0-0.6-0.1-1.1-0.5-1.6c-0.3-0.5-0.8-0.9-1.4-1.1c-1-0.3-2-0.4-3-0.4H1.9
	v0.3c0.4,0,0.8,0.1,1.1,0.3c0.3,0.1,0.4,0.3,0.4,0.4c0.2,0.4,0.3,0.8,0.3,1.2v7.8c0,0.5-0.1,0.9-0.3,1.4c0,0.1-0.1,0.3-0.4,0.4
	c-0.4,0.1-0.7,0.2-1.1,0.1v0.4H8c1.4,0.1,2.8-0.3,3.9-1.1c0.7-0.6,1.1-1.4,1.1-2.3c0-0.8-0.4-1.6-1-2.1c-0.8-0.4-1.6-0.7-2.4-0.9
	C10.4,162.8,11.2,162.4,11.8,161.8z M6.3,157.9c0.7,0,1.3,0.1,1.9,0.4c0.4,0.1,0.7,0.4,0.8,0.8c0.3,0.4,0.4,0.9,0.4,1.4
	c0,0.4-0.1,0.9-0.4,1.2c-0.2,0.3-0.5,0.6-0.8,0.8c-0.6,0.2-1.3,0.3-1.9,0.3V157.9z M8.3,163.6c0.5,0.2,0.9,0.6,1.1,1
	c0.5,0.9,0.5,1.9,0,2.8c-0.2,0.4-0.5,0.7-0.8,1c-0.4,0.2-0.9,0.2-1.4,0.3c-0.3,0-0.6-0.1-0.8-0.3c-0.2-0.2-0.3-0.5-0.3-0.8v-4.2
	C6.9,163.4,7.6,163.5,8.3,163.6z"/>
<path class="st1" d="M17.7,162.8c0.3,0,0.7,0,1,0.1c0.3,0.1,0.6,0.2,0.8,0.5c0.3,0.3,0.4,0.7,0.4,1.1h0.2v-2.1h-5.8v0.1h0.2
	c0.2,0,0.4,0.1,0.5,0.2c0.1,0,0.1,0.1,0.2,0.2v5.2c0,0.4,0,0.6-0.1,0.6c0,0.1-0.1,0.2-0.2,0.3c-0.1,0.1-0.3,0.1-0.4,0.1h-0.3v0.2h6
	l0.4-2.2h-0.2c-0.1,0.6-0.4,1.1-0.8,1.4c-0.5,0.3-1,0.5-1.5,0.4h-0.5c-0.2,0-0.3,0-0.4-0.1s-0.1-0.1-0.1-0.2s-0.1-0.3-0.1-0.7v-2
	c0.3,0,0.5,0.1,0.8,0.1c0.2,0.1,0.3,0.3,0.4,0.5c0.1,0.3,0.2,0.7,0.3,1h0.2v-3.6h-0.2c0,0.4-0.2,0.8-0.4,1.2
	c-0.2,0.3-0.6,0.5-0.9,0.4h-0.1v-2.8L17.7,162.8L17.7,162.8z"/>
<path class="st1" d="M24.4,166.2l2.2,3.2h2.2v-0.2c-0.2,0-0.4-0.1-0.5-0.2c-0.2-0.2-0.3-0.3-0.5-0.5l-1.6-2.4c0.4-0.1,0.7-0.2,1-0.5
	c0.4-0.3,0.6-0.8,0.6-1.3c0-0.4-0.2-0.7-0.4-1c-0.2-0.3-0.5-0.6-0.9-0.7c-0.6-0.1-1.2-0.1-1.8-0.1h-3.3v0.1c0.2,0,0.4,0.1,0.6,0.1
	c0.1,0.1,0.2,0.1,0.2,0.2c0.1,0.2,0.1,0.5,0.1,0.7v4.6c0,0.2,0,0.5-0.1,0.7c0,0.1-0.1,0.1-0.2,0.2c-0.2,0.1-0.4,0.1-0.6,0.1v0.2h3.5
	v-0.2c-0.2,0-0.4,0-0.6-0.1c-0.1-0.1-0.2-0.1-0.2-0.2c-0.1-0.2-0.2-0.5-0.1-0.7v-2L24.4,166.2L24.4,166.2z M24.5,162.7
	c0.4-0.1,0.9,0.1,1.2,0.4c0.3,0.3,0.5,0.7,0.4,1.1c0.1,0.6-0.3,1.2-0.8,1.4c-0.3,0.1-0.7,0.1-1,0.1h-0.4v-3.1H24.5z"/>
<path class="st1" d="M35.2,163.4c0.5-0.4,0.8-0.7,0.9-0.8c0.2-0.1,0.4-0.1,0.6-0.1v-0.1H34v0.1c0.3,0.1,0.5,0.1,0.6,0.1
	c0.1,0,0.2,0.1,0.2,0.3s-0.2,0.4-0.6,0.7l-2.6,2.1v-2.9l0.2-0.2c0.2-0.1,0.4-0.1,0.6-0.1v-0.1H29v0.1h0.2c0.2,0,0.3,0.1,0.5,0.1
	c0.1,0.1,0.2,0.1,0.2,0.2c0.1,0.2,0.1,0.5,0.1,0.7v4.6c0,0.4,0,0.6-0.1,0.6s-0.1,0.2-0.2,0.3c-0.1,0.1-0.3,0.1-0.5,0.1H29v0.2h3.5
	V169c-0.3,0-0.5,0-0.6-0.1c-0.1-0.1-0.2-0.1-0.3-0.2v-2.6l0.2-0.2l1.6,2c0.2,0.3,0.4,0.5,0.5,0.8c0,0.1-0.1,0.1-0.1,0.2
	c-0.1,0-0.3,0.1-0.4,0.1v0.2h3.6v-0.2c-0.2,0-0.4-0.1-0.6-0.1c-0.4-0.2-0.7-0.6-0.9-0.9l-2.4-3L35.2,163.4z"/>
<path class="st1" d="M41.8,162.2c0,0.1-0.1,0.3-0.2,0.4c0,0.1-0.1,0.1-0.2,0.1c-0.2,0-0.3,0-0.4-0.1c-0.3-0.1-0.4-0.1-0.6-0.2
	c-0.2-0.1-0.4-0.1-0.6-0.1c-0.6,0-1.1,0.2-1.5,0.6c-0.4,0.4-0.6,0.9-0.6,1.4c0,0.3,0.1,0.6,0.2,0.9c0.2,0.3,0.4,0.5,0.6,0.7
	c0.4,0.3,0.9,0.6,1.3,0.8c0.3,0.2,0.7,0.4,1,0.6c0.1,0.1,0.3,0.3,0.3,0.4c0.1,0.2,0.1,0.3,0.1,0.5c0,0.3-0.1,0.5-0.3,0.7
	c-0.2,0.2-0.6,0.4-0.9,0.4c-0.5,0-1-0.2-1.4-0.6c-0.5-0.4-0.8-1-0.9-1.6h-0.1v2.6h0.1c0.1-0.1,0.1-0.2,0.2-0.4
	c0.1-0.1,0.2-0.1,0.3-0.1c0.1,0,0.2,0,0.3,0.1c0.3,0.1,0.5,0.2,0.8,0.3c0.2,0.1,0.4,0.1,0.6,0.1c0.6,0,1.2-0.2,1.7-0.6
	c0.4-0.4,0.7-0.9,0.7-1.5c0-0.5-0.1-0.9-0.4-1.3c-0.5-0.5-1-0.9-1.6-1.2c-0.4-0.2-0.7-0.3-1.1-0.6c-0.2-0.1-0.4-0.3-0.5-0.5
	c-0.1-0.1-0.1-0.3-0.1-0.4c0-0.2,0.1-0.4,0.3-0.6c0.2-0.2,0.5-0.3,0.8-0.3c0.5,0,1,0.2,1.3,0.6c0.4,0.4,0.7,0.9,0.8,1.4h0.2
	L41.8,162.2L41.8,162.2L41.8,162.2z"/>
<path class="st1" d="M48.1,166v2.8c-0.1,0.1-0.1,0.2-0.2,0.3c-0.1,0.1-0.3,0.1-0.5,0.1h-0.2v0.2h3.6v-0.2h-0.2c-0.2,0-0.3,0-0.5-0.1
	c-0.1-0.1-0.2-0.2-0.2-0.3c-0.1-0.1-0.1-0.3-0.1-0.6v-4.6c0-0.4,0-0.6,0.1-0.6s0.1-0.2,0.2-0.3c0.1-0.1,0.3-0.1,0.5-0.1h0.2v-0.1
	h-3.6v0.1h0.2c0.2,0,0.3,0.1,0.4,0.1c0.1,0.1,0.2,0.1,0.3,0.2v2.7h-2.5v-2c0-0.2,0-0.4,0.1-0.6c0.1-0.1,0.1-0.2,0.2-0.3
	c0.1-0.1,0.3-0.1,0.5-0.1h0.2v-0.1H43v0.1h0.2c0.2,0,0.3,0.1,0.5,0.1L44,163c0.1,0.2,0.1,0.5,0.1,0.7v4.6c0,0.4,0,0.6-0.1,0.6
	c-0.1,0-0.1,0.2-0.2,0.3c-0.1,0.1-0.3,0.1-0.5,0.1H43v0.2h3.6v-0.2h-0.2c-0.2,0-0.3,0-0.4-0.1s-0.2-0.1-0.3-0.3
	c-0.1-0.2-0.1-0.4-0.1-0.6V166L48.1,166L48.1,166z"/>
<path class="st1" d="M54.6,169.1c-0.2,0-0.3,0-0.5-0.1c-0.1-0.1-0.2-0.2-0.2-0.3c-0.1-0.2-0.1-0.4-0.1-0.6v-4.6c0-0.2,0-0.4,0.1-0.6
	c0.1-0.1,0.1-0.2,0.2-0.3c0.1-0.1,0.3-0.1,0.5-0.1h0.2v-0.1h-3.6v0.1h0.2c0.2,0,0.3,0.1,0.5,0.1l0.2,0.2c0,0.2,0.1,0.5,0.1,0.7v4.6
	c0,0.2,0,0.4-0.1,0.6c-0.1,0.1-0.1,0.2-0.2,0.3c-0.2,0.1-0.3,0.1-0.5,0.1h-0.2v0.2h3.6v-0.2L54.6,169.1L54.6,169.1z"/>
<path class="st1" d="M58.4,166.2l2.2,3.2h2.2v-0.2c-0.2,0-0.4-0.1-0.5-0.2c-0.2-0.2-0.3-0.3-0.4-0.5l-1.7-2.4c0.4,0,0.7-0.2,1-0.5
	c0.4-0.3,0.6-0.8,0.6-1.3c0-0.4-0.1-0.7-0.4-1c-0.2-0.3-0.6-0.6-1-0.7c-0.6-0.1-1.2-0.2-1.8-0.1h-3.3v0.1c0.2,0,0.4,0,0.6,0.1
	c0.1,0.1,0.2,0.1,0.3,0.2c0,0.2,0.1,0.5,0.1,0.7v4.6c0,0.2,0,0.5-0.1,0.7c-0.1,0.1-0.2,0.2-0.3,0.2c-0.1,0.1-0.3,0.1-0.6,0.1v0.2
	h3.5v-0.2c-0.2,0-0.4,0-0.6-0.1c-0.1-0.1-0.2-0.1-0.2-0.2c-0.1-0.2-0.1-0.5-0.1-0.7v-2L58.4,166.2L58.4,166.2z M58.4,162.7
	c0.5,0,0.9,0.1,1.3,0.4c0.3,0.3,0.4,0.7,0.3,1.1c0,0.3-0.1,0.6-0.2,0.9c-0.1,0.2-0.3,0.4-0.6,0.5c-0.3,0.1-0.7,0.1-1.1,0.1H58v-3.1
	H58.4z"/>
<path class="st1" d="M66.3,162.8c0.4,0,0.7,0,1.1,0.1c0.3,0.1,0.6,0.2,0.8,0.5c0.2,0.3,0.3,0.7,0.4,1.1h0.1v-2.1H63v0.1h0.2
	c0.2,0,0.4,0.1,0.6,0.2c0.1,0,0.1,0.1,0.1,0.2s0.1,0.3,0.1,0.6v4.6c0,0.2,0,0.4-0.1,0.6c-0.1,0.1-0.1,0.2-0.2,0.3
	c-0.1,0.1-0.3,0.1-0.5,0.1H63v0.2h6l0.3-2.2h-0.2c-0.1,0.5-0.4,1-0.8,1.4c-0.5,0.3-1,0.4-1.5,0.4h-0.5c-0.2,0-0.3,0-0.4-0.1
	l-0.2-0.2c-0.1-0.2-0.1-0.5-0.1-0.7v-2c0.3,0,0.5,0,0.8,0.1c0.2,0.1,0.4,0.3,0.5,0.5c0.1,0.3,0.2,0.7,0.2,1h0.2v-3.6H67
	c0,0.4-0.1,0.8-0.3,1.2c-0.2,0.3-0.6,0.5-1,0.4h-0.1v-2.8L66.3,162.8L66.3,162.8z"/>
<path class="st1" d="M82.3,163.5v3.8c0,0.6,0,1-0.1,1.1s-0.3,0.4-0.4,0.5S81.4,169,81,169h-0.3v0.4H87V169h-0.4
	c-0.3,0-0.6,0-0.8-0.1c-0.2-0.1-0.4-0.3-0.5-0.5v-10.2c0.1-0.2,0.2-0.3,0.3-0.5c0.3-0.2,0.5-0.3,0.8-0.3H87v-0.3h-6.4v0.3H81
	c0.3,0,0.6,0.1,0.8,0.3c0.3,0.1,0.3,0.3,0.3,0.4c0.1,0.4,0.2,0.8,0.1,1.2v3.4H78v-3.4c0-0.6,0-1,0.1-1.1c0.1-0.2,0.2-0.3,0.3-0.5
	c0.2-0.2,0.5-0.3,0.8-0.3h0.3v-0.3h-6.3v0.3h0.5c0.3,0,0.5,0.1,0.8,0.3c0.2,0.1,0.3,0.2,0.5,0.4v10.3c-0.1,0.2-0.2,0.3-0.4,0.5
	c-0.3,0.1-0.5,0.2-0.8,0.1h-0.5v0.4h6.3V169h-0.3c-0.3,0-0.6,0-0.8-0.1c-0.1-0.1-0.3-0.3-0.3-0.5s-0.1-0.5-0.1-1.1v-3.8L82.3,163.5z
	"/>
<path class="st1" d="M92.9,168.2l0.1,0.4v0.2c0,0.1,0,0.2-0.1,0.3s-0.3,0.1-0.6,0.1h-0.1v0.2h3.3v-0.2c-0.2,0-0.4-0.1-0.5-0.2
	c-0.3-0.3-0.5-0.6-0.6-1l-2.6-5.7h-0.1l-2.5,5.6c-0.2,0.4-0.4,0.7-0.6,1c-0.2,0.2-0.4,0.3-0.6,0.3v0.2h2.2v-0.2
	c-0.2,0-0.4,0-0.6-0.1c-0.2-0.1-0.3-0.3-0.3-0.4c0-0.2,0.1-0.4,0.1-0.6l0.3-0.6h2.4L92.9,168.2z M90.2,167l1.1-2.3l1.1,2.3H90.2z"/>
<path class="st1" d="M96.2,162.4v1.9h0.1c0-0.5,0.2-0.9,0.6-1.2c0.3-0.2,0.6-0.3,1-0.3h0.5v5.4c0,0.4,0,0.6-0.1,0.6
	s-0.1,0.2-0.2,0.3c-0.1,0.1-0.3,0.1-0.5,0.1h-0.2v0.2h3.6v-0.2h-0.2c-0.1,0-0.4,0-0.4-0.1s-0.2-0.1-0.2-0.3s-0.1-0.3-0.1-0.6v-5.4
	h0.6c0.2,0,0.5,0,0.7,0.1c0.2,0.1,0.4,0.3,0.6,0.4c0.1,0.2,0.2,0.6,0.3,1h0.1v-1.9L96.2,162.4L96.2,162.4z"/>
<path class="st1" d="M108.2,166v2.2c0,0.2,0,0.4-0.1,0.6c-0.1,0.1-0.1,0.2-0.2,0.3c-0.1,0.1-0.3,0.1-0.5,0.1h-0.2v0.2h3.6v-0.2h-0.2
	c-0.2,0-0.3,0-0.5-0.1c-0.1-0.1-0.2-0.2-0.2-0.3c-0.1-0.2-0.1-0.4-0.1-0.6v-4.6c0-0.2,0-0.4,0.1-0.6c0.1-0.1,0.1-0.2,0.2-0.3
	c0.1-0.1,0.3-0.1,0.5-0.1h0.2v-0.1h-3.6v0.1h0.2c0.2,0,0.3,0.1,0.5,0.1l0.2,0.2c0,0.2,0.1,0.5,0.1,0.7v2h-2.5V163
	c0.1-0.1,0.1-0.2,0.2-0.3c0.1-0.1,0.3-0.1,0.5-0.1h0.2v-0.1H103v0.1h0.2c0.2,0,0.3,0.1,0.5,0.1l0.2,0.2c0.1,0.2,0.1,0.5,0.1,0.7v4.6
	c0,0.4,0,0.6-0.1,0.6s-0.1,0.2-0.2,0.3c-0.1,0.1-0.3,0.1-0.5,0.1H103v0.2h3.6v-0.2h-0.2c-0.2,0-0.3,0-0.4-0.1s-0.2-0.1-0.3-0.3V166
	L108.2,166L108.2,166z"/>
<path class="st1" d="M115.7,168.2c0.1,0.2,0.1,0.4,0.1,0.4c0.1,0.1,0.1,0.1,0.1,0.2c0,0.1-0.1,0.2-0.1,0.3c-0.1,0.1-0.3,0.1-0.6,0.1
	h-0.1v0.2h3.4v-0.2c-0.2,0-0.4-0.1-0.5-0.2c-0.3-0.3-0.5-0.6-0.6-1l-2.6-5.7h-0.1l-2.6,5.6c-0.2,0.3-0.4,0.7-0.6,1
	c-0.2,0.2-0.4,0.3-0.6,0.3v0.2h2.3v-0.2c-0.2,0-0.5,0-0.7-0.1c-0.1-0.1-0.2-0.3-0.2-0.4c0-0.2,0.1-0.3,0.1-0.5l0.3-0.6h2.5
	L115.7,168.2z M113.1,166.9l1.1-2.3l1,2.3H113.1z"/>
<path class="st1" d="M127.2,162.4v0.1c0.3,0.1,0.4,0.1,0.6,0.1c0.1,0.1,0.1,0.2,0.1,0.4c0,0.1-0.1,0.2-0.1,0.4
	c-0.1,0.2-0.1,0.4-0.2,0.6l-1.1,3l-1.3-3.3c-0.1-0.2-0.2-0.5-0.2-0.7c0-0.1,0-0.2,0.1-0.2c0-0.1,0.1-0.1,0.1-0.1
	c0.2,0,0.3-0.1,0.5-0.1v-0.1h-3.3v0.1c0.2,0,0.3,0.1,0.5,0.1c0.1,0.1,0.2,0.1,0.3,0.3c0.1,0.3,0.3,0.5,0.4,0.8l0.3,0.8l-1.2,2.5
	l-1.3-3.4c-0.1-0.4-0.3-0.7-0.3-0.8c0-0.1,0.1-0.2,0.1-0.3c0.1-0.1,0.2-0.1,0.5-0.1v-0.1h-3v0.1c0.2,0.1,0.3,0.1,0.5,0.2
	c0.1,0.1,0.2,0.5,0.5,1l2.2,5.7h0.2l1.9-4.5l1.7,4.5h0.2l2.2-5.8c0.1-0.2,0.2-0.5,0.3-0.8c0.1-0.1,0.2-0.2,0.3-0.3
	c0.1-0.1,0.2-0.1,0.4-0.1v-0.1h-1.7L127.2,162.4z"/>
<path class="st1" d="M133.9,168.2c0.1,0.2,0.1,0.4,0.1,0.4c0.1,0.1,0.1,0.1,0.1,0.2c0,0.1-0.1,0.2-0.1,0.3c-0.1,0.1-0.3,0.1-0.6,0.1
	h-0.1v0.2h3.4v-0.2c-0.2,0-0.4-0.1-0.5-0.2c-0.3-0.3-0.5-0.6-0.6-1l-2.6-5.7h-0.1l-2.6,5.6c-0.2,0.3-0.4,0.7-0.6,1
	c-0.2,0.2-0.4,0.3-0.6,0.3v0.2h2.4v-0.2c-0.2,0-0.5,0-0.7-0.1c-0.1-0.1-0.2-0.3-0.2-0.4c0-0.2,0.1-0.4,0.1-0.6l0.3-0.6h2.5
	L133.9,168.2z M131.3,166.9l1.1-2.3l1,2.3H131.3z"/>
<path class="st1" d="M142.1,162.4v0.1c0.2,0.1,0.4,0.1,0.6,0.2c0.1,0.1,0.1,0.1,0.1,0.2c-0.1,0.4-0.3,0.7-0.5,1.1l-1.3,2.1l-1.3-2.2
	c-0.2-0.3-0.4-0.6-0.4-1c0-0.1,0.1-0.1,0.1-0.1c0.1-0.1,0.3-0.1,0.4-0.1h0.1v-0.1h-3.3v0.1c0.2,0,0.4,0.1,0.6,0.2
	c0.3,0.3,0.5,0.7,0.6,1.1l1.7,2.9v1.4c0,0.2,0,0.4-0.1,0.6c-0.1,0.1-0.1,0.2-0.2,0.3c-0.1,0.1-0.3,0.1-0.5,0.1h-0.3v0.2h3.9v-0.2
	h-0.4c-0.2,0-0.3,0-0.5-0.1c-0.1-0.1-0.2-0.2-0.2-0.3c0-0.2-0.1-0.4-0.1-0.6v-1.8l1.5-2.6c0.2-0.4,0.5-0.8,0.8-1.2
	c0.2-0.1,0.4-0.2,0.6-0.2v-0.1L142.1,162.4z"/>
<path class="st1" d="M150.2,169.3c-0.1,0-0.2,0-0.3,0c-0.1-0.1-0.1-0.1-0.1-0.2s0-0.2,0-0.4v-3.2c0-0.3,0-0.4,0-0.4s0-0.1,0.1-0.2
	c0.1-0.1,0.2-0.1,0.3-0.1h0.2v-0.1h-2.5v0.1h0.2c0.1,0,0.2,0,0.3,0.1c0.1,0,0.1,0.1,0.1,0.1c0,0.2,0.1,0.3,0.1,0.5v3.2
	c0,0.3,0,0.4-0.1,0.4s0,0.1-0.1,0.2s-0.2,0-0.3,0h-0.2v0.1h2.6v-0.1H150.2z"/>
<path class="st1" d="M150.6,164.6L150.6,164.6c0.1,0.1,0.3,0.1,0.3,0.2c0.1,0.1,0.2,0.2,0.3,0.3l0.1,0.1v3.4c0,0.2,0,0.4-0.1,0.5
	c-0.2,0.1-0.4,0.1-0.6,0.1v0.1h1.8v-0.1h-0.2c-0.2,0-0.3-0.1-0.4-0.1c-0.1-0.2-0.2-0.3-0.2-0.5v-3.1l3.3,4h0.1v-4
	c0-0.2,0-0.3,0.1-0.5c0-0.1,0.1-0.2,0.1-0.2c0.1-0.1,0.3-0.1,0.4-0.1v-0.1H154v0.1c0.2,0,0.4,0.1,0.6,0.3c0.1,0.2,0.1,0.4,0.1,0.6
	v2.1l-2.3-3L150.6,164.6L150.6,164.6z"/>
<path class="st1" d="M160.5,164.5c0,0.1,0,0.2-0.1,0.3c-0.1,0-0.1,0.1-0.2,0.1c-0.2,0-0.3-0.1-0.4-0.1c-0.3-0.1-0.7-0.2-1.1-0.2
	c-0.4,0-0.9,0.1-1.3,0.4c-0.4,0.2-0.8,0.5-1,0.9c-0.3,0.4-0.4,0.9-0.4,1.3c0,0.4,0.1,0.9,0.4,1.2c0.2,0.4,0.5,0.7,0.9,0.9
	c0.4,0.2,0.9,0.3,1.4,0.3c0.3,0,0.7,0,1-0.2c0.3-0.1,0.6-0.4,0.8-0.6v-0.4c-0.2,0.3-0.5,0.5-0.8,0.7c-0.3,0.1-0.6,0.2-0.8,0.2
	c-0.3,0-0.7-0.1-0.9-0.3c-0.2-0.2-0.4-0.5-0.5-0.8c-0.1-0.4-0.1-0.8-0.1-1.2c0-0.4,0.1-0.8,0.2-1.2c0.1-0.3,0.3-0.5,0.5-0.7
	c0.3-0.1,0.5-0.2,0.8-0.3c0.4,0,0.7,0.1,1,0.4c0.3,0.3,0.5,0.6,0.6,1h0.1v-1.7L160.5,164.5z"/>
<path class="st1" d="M161.6,168.5c-0.1,0.1-0.1,0.3-0.1,0.4c0,0.1,0,0.3,0.1,0.4c0.1,0.1,0.3,0.2,0.4,0.2c0.1,0,0.3-0.1,0.4-0.2
	c0.1-0.1,0.2-0.2,0.2-0.4c0-0.2,0-0.3-0.2-0.4c-0.1-0.1-0.3-0.2-0.4-0.2C161.8,168.3,161.7,168.4,161.6,168.5z"/>
<path class="st1" d="M351.3,152.4h-3.9v11.8l-6.8-11.8h-5.4v18.3h4.1v-12.1l7,12.1h5.2v-18.3H351.3"/>
<path class="st1" d="M224.7,152.4c0,0-3.3,10.1-3.6,11.2l-3.6-11.2h-5.8v18.3h4v-12.5c0.7,2.2,3.8,12.5,3.8,12.5h3.1l4-12.6v12.6
	h4.1v-18.3H224.7"/>
<path class="st1" d="M278.6,170.8H265v-18.3h13.5v3.6h-9.1v3.4h8.4v3.6h-8.4v4.2h9.1V170.8z"/>
<path class="st1" d="M244.2,170.8h-9.9v-3.3h9.9V170.8z"/>
<path class="st1" d="M262.4,152.4h-5c0,0-4.9,6.1-5.6,7v-7h-4.2v18.3h4.2v-8.1c0.7,0.9,5.7,8.1,5.7,8.1h5.8c0,0-7.7-9.5-8-9.8
	l7.5-8.5H262.4"/>
<path class="st1" d="M319.5,161.6c0-2.8,1.2-5.6,4.2-5.6s4.3,2.9,4.3,5.6s-1.1,5.7-4.3,5.7S319.5,164.4,319.5,161.6 M315,161.6
	c0,5.6,3,9.6,8.7,9.6s8.7-4,8.7-9.6s-3.1-9.5-8.7-9.5S315,155.9,315,161.6"/>
<path class="st1" d="M290.3,159.6c-2-0.5-3.9-0.9-3.9-2.1c0-0.4,0.1-0.7,0.4-0.9c0.7-0.7,2.3-0.9,3.6-0.8c1.6,0.1,3.2,0.5,4.6,1.3
	l0.9-3.7c-2.1-0.9-4.4-1.3-6.7-1.3c-4.6,0-7.4,2.3-7.4,5.9s3.5,4.6,6.4,5.4c1.9,0.5,3.8,0.8,3.8,2.2s-2.3,1.9-3.8,1.9
	c-1.9,0-3.8-0.6-5.4-1.6l-1.2,3.7c2.1,1,4.5,1.5,6.8,1.5c2.8,0,5.1-0.8,6.5-2.2c1-1,1.6-2.4,1.5-3.9
	C296.3,161.4,293,160.4,290.3,159.6"/>
<path class="st1" d="M306.9,159.6c-2-0.5-3.9-0.9-3.9-2.1c0-0.4,0.1-0.7,0.4-0.9c1.1-0.7,2.3-1,3.6-0.8c1.6,0.1,3.2,0.5,4.6,1.3
	l0.9-3.7c-2.1-0.9-4.4-1.3-6.7-1.3c-4.6,0-7.4,2.3-7.4,5.9s3.5,4.6,6.4,5.4c1.9,0.5,3.8,0.8,3.8,2.2s-2.3,1.9-3.9,1.9
	c-1.9,0-3.8-0.6-5.4-1.6l-1.2,3.7c2.1,1,4.5,1.5,6.8,1.5c2.4,0.1,4.7-0.6,6.5-2.2c1-1,1.6-2.4,1.5-3.9
	C313,161.4,309.7,160.4,306.9,159.6"/>
<path class="st1" d="M240.4,165.5c1.5,0,2.9-0.3,4.3-0.8l-1.3-3c-0.7,0.4-1.4,0.6-2.2,0.6c-2.2,0-3.9-1.1-3.9-3.5s1.8-3.5,3.9-3.5
	c0.8,0,1.5,0.2,2.2,0.6l1.3-3c-1.3-0.6-2.8-0.9-4.3-0.8c-4.4,0-7.2,2.5-7.2,6.7S236,165.5,240.4,165.5"/>
<path class="st1" d="M557.8,159.8c-0.9,0-1.7,0.8-1.7,1.7c0,1,0.8,1.7,1.7,1.7c1,0,1.7-0.8,1.7-1.7
	C559.5,160.5,558.8,159.8,557.8,159.8z M557.8,163c-0.8-0.1-1.4-0.8-1.3-1.6c0.1-0.7,0.6-1.3,1.3-1.3c0.8,0,1.4,0.6,1.5,1.4
	c0,0,0,0,0,0C559.3,162.3,558.6,163,557.8,163L557.8,163z M558.6,162.3V162c0-0.1,0-0.2,0-0.3l-0.1-0.1v-0.1
	c0.2-0.1,0.3-0.2,0.2-0.4c0-0.3-0.2-0.5-0.7-0.5h-0.8v1.8h0.3v-0.8h0.4c0.4,0,0.5,0,0.5,0.4c0,0.2,0,0.2,0,0.3h0.3l0,0
	C558.6,162.3,558.6,162.3,558.6,162.3L558.6,162.3z M557.8,161.4h-0.4v-0.6h0.5c0.3,0,0.5,0.1,0.5,0.3S558.1,161.4,557.8,161.4
	L557.8,161.4z M409.3,155.5l-5.3,13.8h2l1.6-4.2h5.3l1.5,4.2h2l-5-13.8H409.3z M408.2,163.5l2.1-5.7l0,0l2,5.7H408.2z M429.8,163.2
	v6.1h-1.6v-6.2c0-1.1-0.5-1.9-1.6-1.9c-1.2-0.1-2.2,0.7-2.3,1.9c0,0,0,0,0,0v6.1h-1.6v-6.2c0-1.1-0.5-1.9-1.6-1.9
	c-1.2-0.1-2.2,0.7-2.3,1.9c0,0,0,0,0,0v6.1H417V160h1.6v1.2h0.1c0.6-0.8,1.6-1.4,2.6-1.4c1.2-0.1,2.2,0.6,2.7,1.6
	c0.7-0.9,1.7-1.5,2.8-1.6C428.3,159.8,429.8,160.5,429.8,163.2L429.8,163.2z M435.2,159.8c-3,0-4.4,1.9-4.4,4.9
	c0,2.6,1.6,4.9,4.4,4.8c2,0.1,3.8-1.2,4.2-3.1l-1.6-0.2c-0.2,1.3-1.3,2.2-2.6,2.1c-1.9,0-2.8-1.4-2.8-3.3h7.1v-0.4
	C439.6,161.9,438.1,159.8,435.2,159.8L435.2,159.8z M432.5,163.8c0-1.5,1.1-2.7,2.5-2.8c1.8,0,2.6,1.2,2.8,2.8H432.5z M445.4,159.9
	v1.8c-0.3,0-0.8,0-1.1,0c-1.3,0.1-2.3,1.2-2.2,2.5c0,0,0,0,0,0v5.2h-1.6V160h1.6v1.6l0,0C442.7,160.4,444,159.7,445.4,159.9
	L445.4,159.9z M446.5,160h1.6v9.3h-1.6V160z M457.5,166.7c0,2-2,2.9-4,2.9s-3.9-0.9-4.1-3.3l1.7-0.2c0,1.7,1.4,2.2,2.6,2.2
	c0.7,0,2.1-0.2,2.1-1.6c0-2.3-6-0.6-6-4.2c0-1.9,1.9-2.7,3.5-2.7c1.3,0,4,0.6,4,3l-1.7,0.2c0-1.1-0.9-2-2.1-2c-0.1,0-0.2,0-0.2,0
	c-0.9,0-2,0.2-2,1.4C451.3,164.5,457.4,163,457.5,166.7L457.5,166.7z M462.7,159.8c-2.8,0-4.6,2-4.6,4.9s1.7,4.9,4.6,4.9
	s4.5-2,4.5-4.9S465.5,159.8,462.7,159.8L462.7,159.8z M462.7,168.3c-2.3,0-2.8-2.1-2.8-3.6s0.5-3.7,2.8-3.7s2.8,2.1,2.8,3.7
	S464.9,168.3,462.7,168.3L462.7,168.3z M474.2,160h1.6v9.3h-1.6V168l0,0c-0.6,0.9-1.6,1.5-2.7,1.5c-1.8,0-3.3-0.8-3.3-3.4V160h1.6
	v6.1c-0.1,1,0.6,1.8,1.6,1.9c0.1,0,0.3,0,0.4,0c1.3,0.1,2.4-0.8,2.5-2.1c0-0.1,0-0.2,0-0.3L474.2,160z M482.2,159.9v1.8
	c-0.3,0-0.8,0-1.1,0c-1.3,0.1-2.3,1.2-2.2,2.5c0,0,0,0,0,0v5.2h-1.6V160h1.6v1.6l0,0C479.5,160.4,480.8,159.7,482.2,159.9
	L482.2,159.9z M489.4,165.8l1.7,0.1c-0.2,2.2-2.1,3.8-4.3,3.6c-3,0-4.6-2-4.6-4.8s1.6-5,4.6-5c2-0.1,3.7,1.2,4.2,3.1l-1.7,0.2
	c-0.2-1.2-1.2-2.1-2.5-2.1c-2.2,0-2.9,2-2.9,3.7s0.8,3.6,2.9,3.6c1.3,0.2,2.5-0.8,2.7-2.1C489.5,166,489.5,165.9,489.4,165.8
	L489.4,165.8z M496.2,159.8c-3,0-4.4,1.9-4.4,4.9c0,2.6,1.6,4.9,4.4,4.8c2,0.1,3.8-1.2,4.2-3.1l-1.6-0.2c-0.2,1.3-1.3,2.2-2.6,2.1
	c-1.8,0-2.8-1.4-2.8-3.3h7.1v-0.4C500.6,161.9,499.2,159.8,496.2,159.8L496.2,159.8z M493.5,163.8c0-1.5,1.1-2.7,2.6-2.8
	c1.8,0,2.6,1.2,2.8,2.8H493.5z M510.4,162c1.2-0.5,2-1.6,2-2.9c0-1.6-1-3.6-4.4-3.6h-6.5v13.9h7.1c3.7,0,4.2-2.7,4.2-3.8
	C513,163.9,512,162.4,510.4,162L510.4,162z M503.4,157.1h4.2c1.4,0,2.9,0,2.9,2.1c0,1.8-1.3,2.2-2.8,2.2h-4.2L503.4,157.1
	L503.4,157.1z M508.4,167.7h-4.9v-4.8h4.2c1.6,0,3.2,0.1,3.2,2.5C510.9,167,509.8,167.7,508.4,167.7L508.4,167.7z M518.1,159.8
	c-3,0-4.4,1.9-4.4,4.9c0,2.6,1.6,4.9,4.4,4.8c2,0.1,3.8-1.2,4.2-3.1l-1.6-0.2c-0.2,1.3-1.3,2.2-2.6,2.1c-1.8,0-2.8-1.4-2.8-3.3h7.1
	v-0.4C522.5,161.9,521,159.8,518.1,159.8L518.1,159.8z M515.3,163.8c0-1.5,1.1-2.7,2.6-2.8c1.8,0,2.6,1.2,2.8,2.8H515.3z
	 M528.3,159.9v1.8c-0.3,0-0.8,0-1.1,0c-1.3,0.1-2.3,1.2-2.2,2.5c0,0,0,0,0,0v5.2h-1.6V160h1.6v1.6l0,0
	C525.6,160.4,526.9,159.7,528.3,159.9L528.3,159.9z M535.7,161.3L535.7,161.3c-0.7-1-1.9-1.6-3.1-1.5c-2.9,0-4.2,2.2-4.2,4.9
	c0,3.9,2.6,4.9,4.2,4.9c1.3,0,2.5-0.6,3.2-1.7l0,0v1.3c0,1.3,0,3.2-2.8,3.2c-1.4,0-2.6-0.7-2.5-2.2h-1.7c0.1,2.4,2,3.4,4.3,3.4
	c4,0,4.3-2.9,4.3-4.3V160h-1.6L535.7,161.3z M532.7,168.2c-1.8,0-2.9-1.6-2.9-3.5c0-2.4,1.2-3.5,2.9-3.5s2.9,0.9,3,3.5
	C535.8,166.5,534.6,168.2,532.7,168.2L532.7,168.2z M542.6,159.8c-3,0-4.4,1.9-4.4,4.9c0,2.6,1.6,4.9,4.4,4.8c2,0.1,3.8-1.2,4.2-3.1
	l-1.6-0.2c-0.2,1.3-1.3,2.2-2.6,2.1c-1.8,0-2.8-1.4-2.8-3.3h7.1v-0.4C546.9,161.9,545.5,159.8,542.6,159.8L542.6,159.8z
	 M539.8,163.8c0-1.5,1.1-2.7,2.5-2.8c1.8,0,2.6,1.2,2.8,2.8H539.8z M555.5,163.2v6.1h-1.6v-6c0-1.6-0.8-2.1-2-2.1
	c-1.3-0.1-2.4,0.8-2.5,2.1c0,0.1,0,0.2,0,0.3v5.6h-1.6V160h1.6v1.3l0,0c0.6-0.9,1.6-1.5,2.7-1.5C554,159.8,555.5,160.6,555.5,163.2
	L555.5,163.2z"/>
<path class="st1" d="M438.6,133.8c-1.6,0.7-3.1,1.8-4.2,3.2c0.4-0.2,0.8-0.4,1.2-0.6c4.3-1.6,7.6-1.1,11.5,2.2
	c3.2,3,4.4,7.4,3.3,11.6c-0.5,1.9-1.4,3.6-2.7,5.1c5.7-3,7.9-10.1,4.9-15.7c-1.1-2.2-2.9-3.9-5.1-5
	C444.7,132.9,441.5,132.6,438.6,133.8 M447.7,155.4c3.9-1.3,7-4.4,8.2-8.3c1.2-4.1,0-8.6-3.2-11.5h5.2v19.8 M437.9,155.4h9
	c-1.4-2.7-3.8-4.8-6.8-5.9C440,151.7,439.2,153.7,437.9,155.4 M440.4,144.3l-0.2-0.1c0.2,0.9,0.2,1.8,0.2,2.8v0.7
	c3,1.3,5.3,3.8,6.4,6.8l0.4,1C447.3,150.7,444.7,146.3,440.4,144.3 M443,138.6c-2-1-4.3-1.4-6.5-1.1c1.4,0.8,2.4,2.1,2.9,3.6
	c3.4,1.1,6.1,3.6,7.4,6.9c0.9,2.3,1.1,4.9,0.5,7.3c3.6-5.3,2.2-12.5-3.1-16.1C443.8,139.1,443.4,138.8,443,138.6"/>
<path class="st1" d="M632.7,149.5c1-0.1,2,0,3,0l7.7,20.6c-1,0-1.9,0-2.8,0c-0.8-2-1.4-4-2.1-6.1h-8.6c-0.7,2-1.4,4-2.1,6.1H625
	C627.6,163.2,630.2,156.4,632.7,149.5z M630.9,161.6h6.8c-1.1-3-2.2-6-3.4-9C633.1,155.5,632,158.6,630.9,161.6z M646.3,149.5h2.7
	v20.6h-2.7C646.3,163.2,646.3,156.3,646.3,149.5z M668.6,149.5h2.7c0,2.9,0.1,5.7-0.1,8.5c1-1.4,2.6-2.4,4.3-2.5
	c1.6-0.1,3.1,0.4,4.2,1.6c1,1.2,1.5,2.8,1.4,4.4v8.7h-2.7v-8.3c0.1-1.2-0.3-2.3-1.1-3.1c-1-0.7-2.2-0.9-3.3-0.6
	c-1.7,0.7-2.8,2.3-2.7,4.1c0,2.7,0,5.3,0,7.9h-2.7C668.6,163.2,668.7,156.3,668.6,149.5L668.6,149.5z M699,149.9h2.7
	c0,2.7,0.1,5.4-0.1,8.1c0.7-1,1.8-1.8,3-2.2c2.2-0.7,4.5-0.1,6.2,1.4c3,3,3.2,7.8,0.5,11.1c-1.4,1.6-3.5,2.4-5.6,2.2
	c-1.6-0.2-3.1-1.1-4.1-2.4v2H699C699,163.4,699,156.6,699,149.9L699,149.9z M705.2,158c-1.4,0.3-2.6,1.3-3.1,2.7
	c-0.5,1.5-0.5,3.1,0,4.5c0.5,1.3,1.6,2.4,2.9,2.7c1.5,0.4,3.1-0.1,4.2-1.2c1-1.2,1.5-2.8,1.2-4.4c-0.1-1.4-0.7-2.6-1.8-3.5
	C707.7,158.1,706.4,157.8,705.2,158L705.2,158z M732.6,151.6h2.7v4.3h3.4v2.4h-3.4v7.2c-0.1,0.7,0.2,1.3,0.7,1.8
	c0.8,0.4,1.8,0.5,2.7,0.3v2.4c-1.5,0.3-3,0.1-4.4-0.7c-1.1-0.8-1.7-2.1-1.6-3.5c0-2.5,0-5.1,0-7.6h-2.5V156h2.5
	C732.6,154.5,732.6,153.1,732.6,151.6L732.6,151.6z M658.4,155.6c2.2-0.4,4.5,0.4,6,2.2c2.8,3.4,2.4,8.3-0.8,11.2
	c-2.1,1.8-5.1,2-7.4,0.6c-0.6-0.4-1.2-0.9-1.6-1.5c0.2,2.7,0.1,5.4,0.1,8.1h-2.7V156h2.5c0,0.7,0,1.4,0,2
	C655.5,156.7,656.9,155.9,658.4,155.6L658.4,155.6z M658.3,158.1c-1.3,0.3-2.4,1.2-3,2.4c-0.6,1.4-0.7,2.9-0.3,4.4
	c0.4,1.5,1.5,2.6,2.9,3.1c1.5,0.5,3.2,0,4.3-1.1c1.1-1.2,1.5-2.9,1.3-4.5c-0.1-1.5-0.8-2.8-2-3.6
	C660.6,158.1,659.4,157.8,658.3,158.1z M686.2,156.4c1.6-0.8,3.4-1.1,5.1-0.7c1.4,0.2,2.7,1.1,3.5,2.2c0.7,1.2,1,2.5,1,3.9v8.3h-2.5
	c0-0.7,0-1.3,0-2c-0.9,1.3-2.4,2.2-4,2.4c-1.4,0.1-2.7-0.2-3.9-0.9c-2.1-1.5-2.6-4.3-1.2-6.5c0.2-0.2,0.4-0.5,0.6-0.7
	c1-0.8,2.3-1.3,3.6-1.5c1.7-0.2,3.4,0,4.9,0.7c0.1-1-0.2-2-0.8-2.7c-1.5-1.6-3.9-1.6-5.5-0.1c-0.3,0.3-0.6,0.7-0.8,1.1
	c-0.8-0.3-1.6-0.5-2.5-0.9C684.3,158,685.1,157,686.2,156.4L686.2,156.4z M688.7,163.4c-0.6,0.1-1.2,0.3-1.6,0.7
	c-1,0.8-1.1,2.3-0.3,3.3c0,0,0,0,0,0c0.8,0.6,1.9,0.9,2.9,0.7c2-0.4,3.4-2.1,3.5-4.1C691.8,163.3,690.2,163.1,688.7,163.4
	L688.7,163.4z M720.5,155.8c2.5-0.7,5.2,0.1,7,2.1c1.2,1.6,1.8,3.7,1.7,5.7H718c0.1,1.3,0.6,2.5,1.5,3.4c1.6,1.4,4,1.5,5.7,0.1
	c0.6-0.5,1-1.1,1.3-1.7c0.8,0.3,1.6,0.7,2.4,1c-0.6,1.3-1.5,2.4-2.7,3.1c-1.6,0.9-3.6,1.2-5.4,0.8c-1.7-0.4-3.2-1.4-4.2-2.9
	c-1.5-2.4-1.7-5.5-0.4-8.1C717,157.5,718.6,156.2,720.5,155.8L720.5,155.8z M720.1,158.6c-0.9,0.7-1.6,1.6-1.8,2.8h8.1
	c-0.1-1.3-0.9-2.4-2.1-3C722.9,157.8,721.3,157.8,720.1,158.6L720.1,158.6z"/>
<path class="st1" d="M866.3,156.4h3.9v1.3c1.1-1.1,2.7-1.7,4.3-1.7c2.9,0,5.2,2.3,5.3,5.1c0,0.1,0,0.3,0,0.4v8.8h-4.1v-7.7
	c0-1.9-0.9-3-2.6-3s-2.6,1.1-2.6,3v7.7h-4.1L866.3,156.4 M905.4,163.4c-0.1-4.1,3.2-7.6,7.3-7.6s7.6,3.2,7.6,7.3s-3.2,7.6-7.3,7.6
	c0,0-0.1,0-0.1,0c-4.1,0.1-7.4-3.2-7.5-7.2C905.4,163.5,905.4,163.5,905.4,163.4 M909.4,163.4c0,1.9,1.6,3.4,3.5,3.4
	c1.9,0,3.4-1.6,3.4-3.5c0-1.9-1.6-3.4-3.5-3.4c-1.9,0-3.5,1.5-3.5,3.4C909.4,163.3,909.4,163.4,909.4,163.4 M848.9,163.4
	c-0.1-4.1,3.2-7.6,7.3-7.7c4.1-0.1,7.6,3.2,7.7,7.3s-3.2,7.6-7.3,7.7c-0.1,0-0.1,0-0.2,0c-4.1,0.1-7.4-3.2-7.5-7.2
	C848.9,163.5,848.9,163.4,848.9,163.4 M853,163.4c0,1.9,1.6,3.4,3.5,3.4c1.9,0,3.4-1.6,3.4-3.5c0-1.9-1.6-3.4-3.5-3.4
	c-1.9,0-3.5,1.5-3.5,3.4C853,163.3,853,163.4,853,163.4 M940.3,154.8h4.2v-3.6h-4.2V154.8z M940.3,170.4h4.2v-14h-4.2V170.4z
	 M947.6,170.4h4.2v-19.2h-4.2V170.4z M926.7,170.4h-4v-19.2h4v6.2c1.2-1,2.8-1.5,4.3-1.4c3.7,0,6.8,3.2,6.8,7.4
	c0.1,3.9-2.9,7.2-6.8,7.3c-1.5,0.1-3.1-0.4-4.3-1.4V170.4 M933.6,163.5c0-1.9-1.6-3.5-3.5-3.5c-1.9,0-3.5,1.6-3.5,3.5
	c0,1.9,1.6,3.5,3.5,3.5c0,0,0,0,0,0c1.9,0,3.5-1.5,3.5-3.4C933.6,163.6,933.6,163.5,933.6,163.5 M824.7,170.5h4.9l4.3-5.6l2.7,2.7
	l-6.2,7.7h4.8l4-5.1l7.5,7.6h5.9l-10.7-10.8l8.4-10.6h-4.8l-6.2,8l-2.7-2.7l6.9-8.7h-4.9l-4.7,6.1l-2.6-2.6h-5.7l5.8,5.9l-6.5,8.2
	 M811.2,151.3v19.2h12.6v-3.6h-8.3v-4.6h8v-3.5h-8v-4h8.3v-3.6L811.2,151.3 M883,151.3v19.2h4V156h0.2l3.5,14.5h4.5l3.6-14.5h0.2
	v14.5h4v-19.2h-6.6l-3.3,14H893l-3.2-14L883,151.3"/>
<path class="st1" d="M136.6,270.7c0.3,0,0.5-0.2,0.6-0.5c0,0,0,0,0,0v-16.3h5.5c0.3,0,0.5-0.2,0.6-0.5c0,0,0,0,0-0.1V251
	c0-0.3-0.2-0.5-0.5-0.5c0,0,0,0-0.1,0h-14.7c-0.3,0-0.5,0.2-0.6,0.5c0,0,0,0,0,0.1v2.2c0,0.3,0.2,0.5,0.5,0.6c0,0,0,0,0,0h5.5v16.3
	c0,0.3,0.2,0.5,0.5,0.6c0,0,0,0,0,0L136.6,270.7z M98.1,270l-6.8-19c-0.1-0.3-0.4-0.5-0.8-0.5h-3.4c-0.3,0-0.6,0.2-0.7,0.5l-6.8,19
	c-0.1,0.2,0,0.5,0.2,0.6c0.1,0,0.1,0,0.2,0h2.5c0.3,0,0.7-0.2,0.7-0.5l1.5-4.3h8.2l1.5,4.3c0.1,0.3,0.4,0.6,0.7,0.5h2.6
	c0.3,0,0.5-0.2,0.5-0.5C98.1,270.1,98.1,270,98.1,270z M85.8,262.5l2.9-8.3l2.9,8.3H85.8z M130,270l-4.3-4.6l2.8-4.9
	c0.2-0.4,0-0.7-0.4-0.7h-2.5c-0.3,0-0.7,0.2-0.8,0.5l-1.6,2.7l-2.8-3c1.9-1.1,3.7-2.5,3.7-5c0-3-2.1-5-5.5-5s-5.5,2.1-5.5,5.3
	c0.1,1.5,0.7,2.9,1.7,4c-2.4,1.3-3.9,2.9-3.9,5.8c0,3.8,2.9,6,6.6,6c2.4,0.1,4.7-1,6.1-3l1.9,2.1c0.2,0.3,0.6,0.5,0.9,0.4h3.2
	C130.2,270.7,130.4,270.3,130,270z M118.8,253.2c1-0.1,1.9,0.6,2,1.6c0,0.1,0,0.2,0,0.3c0,1.1-0.8,1.7-2.6,2.8
	c-1-1.1-1.5-1.9-1.5-2.7c0-1,0.8-1.9,1.8-2C118.7,253.1,118.8,253.1,118.8,253.2L118.8,253.2z M117.7,268c-1.7,0-3-1.3-3.1-2.9
	c0,0,0-0.1,0-0.1c0-1.8,1-2.7,2.6-3.5l4.1,4.4C120.6,267.2,119.2,268,117.7,268z M102.3,270.7c-0.3,0-0.5-0.2-0.6-0.5c0,0,0,0,0,0
	v-16.3h-5.5c-0.3,0-0.5-0.2-0.6-0.5c0,0,0,0,0-0.1V251c0-0.3,0.2-0.5,0.5-0.5c0,0,0,0,0.1,0h14.7c0.3,0,0.5,0.2,0.6,0.5
	c0,0,0,0,0,0.1v2.2c0,0.3-0.2,0.5-0.5,0.6c0,0,0,0,0,0h-5.5v16.3c0,0.3-0.2,0.5-0.5,0.6c0,0,0,0,0,0L102.3,270.7z"/>
<path class="st1" d="M58.5,238.8c-8-4.8-18.1-4.7-26.1,0.1c-1.1,0.7-1.8,1.3-1.8,2c0,2.1,5,4.4,13.8,4.4s15.5-2.5,15.5-4.9
	C60,239.9,59.5,239.4,58.5,238.8z M62.2,241.7c0.1,0.2,0.2,0.4,0.2,0.6c0,2.8-8.6,7.8-22.3,7.8c-10,0-11.9-3.7-11.9-6.1
	c0-1,0.4-1.9,1-2.6c0-0.1,0-0.1,0,0c-1.3,1.1-2.5,2.3-3.6,3.7c-0.4,0.4-0.7,1-0.8,1.5c0,4.9,12.3,8.5,23.8,8.5
	c12.3,0,17.8-4,17.8-7.5c0-1.3-0.5-2-1.7-3.4C63.9,243.2,63.1,242.4,62.2,241.7C62.2,241.6,62.2,241.6,62.2,241.7z M22.7,249.7
	c-0.8,1.7-1.4,3.5-1.8,5.3c-0.1,0.4-0.1,0.8,0.1,1.2c1.5,3.3,9.4,8.6,27.7,8.6c11.2,0,19.8-2.7,21.2-7.8c0.3-1.1,0.2-2.2-0.1-3.2
	c-0.4-1.5-1-3-1.7-4.4l0,0c0.2,6.6-18.1,10.8-27.3,10.8c-10,0-18.4-4-18.4-9C22.6,250.7,22.6,250.2,22.7,249.7
	C22.7,249.7,22.7,249.7,22.7,249.7z M40.4,270.7c-12.9,0-19-6-20.1-10.1c0-0.1,0,0,0,0c0,1.5,0.1,2.9,0.4,4.4
	c0.2,0.8,0.7,1.6,1.3,2.2c3.1,3.3,10.9,7.9,24.5,7.9c18.4,0,22.6-6.1,23.5-8.2c0.7-2,1-4.1,0.9-6.2c0-0.5,0-1,0-1.4
	c0-0.1,0-0.1-0.1,0C69.8,264.1,54,270.7,40.4,270.7L40.4,270.7z M47.2,281.8c6.2,0,13.1-1.7,17.1-5.1c1.3-1.1,2.3-2.3,3.1-3.8
	c0.6-1,1.1-2.1,1.5-3.2c0,0,0-0.1,0,0c-3.8,5.6-14.8,9.1-26.2,9.1c-8,0-16.7-2.6-20.1-7.5c0,0-0.1,0,0,0
	C25.9,278.1,35.4,281.8,47.2,281.8L47.2,281.8z M30,280.5c9.6,7.4,23.1,7,32.2-1c0,0,0-0.1,0,0c-2,1.3-7.7,4.2-16.6,4.2
	C37.8,283.8,32.9,282,30,280.5C30,280.4,30,280.5,30,280.5L30,280.5z"/>
<path class="st1" d="M259,270.8l0.3,5.2h0.1c0.2-0.6,0.4-1.1,0.6-1.6l1.8-3.6h2.9l0.4,5.2h0.1c0.1-0.5,0.3-1,0.6-1.5l1.7-3.6h3.9
	l-5.3,8.7h-3.3l-0.3-4.7h-0.1c-0.1,0.4-0.3,0.9-0.5,1.3l-1.7,3.4h-3.2l-2-8.7H259z"/>
<path class="st1" d="M271.2,270.8h3.6l-0.5,2.9h2.3l0.5-2.9h3.6l-1.6,8.7h-3.6l0.6-3h-2.3l-0.6,3h-3.6L271.2,270.8z"/>
<path class="st1" d="M291.5,275.2c-0.5,2.8-3.4,4.5-6.6,4.5s-5.4-1.7-4.9-4.5s3.5-4.5,6.6-4.5S292,272.4,291.5,275.2z M283.8,275.2
	c-0.2,1,0.5,1.7,1.6,1.7c1.1,0.1,2-0.6,2.3-1.7c0.2-0.9-0.4-1.7-1.6-1.7C285,273.5,284,274.2,283.8,275.2L283.8,275.2z"/>
<path class="st1" d="M292.3,270.8h3.8l-1.1,5.9h3.2l-0.5,2.8h-7L292.3,270.8z"/>
<path class="st1" d="M307.1,276.4l0.2,0.1c0.6,0.5,1.4,0.8,2.2,0.8c0.4,0,1-0.1,1.1-0.5s-0.4-0.4-0.8-0.5l-0.7-0.1
	c-1.4-0.2-2.5-1-2.3-2.3c0.4-2,2.9-3.2,5.1-3.2c1.1,0,2.2,0.2,3.1,0.8l-1.5,2.2c-0.6-0.4-1.3-0.6-2-0.7c-0.3,0-0.8,0.1-0.9,0.5
	s0.4,0.4,0.7,0.4l0.8,0.2c1.5,0.3,2.6,1,2.3,2.5c-0.4,2.1-2.9,3.1-5.1,3.1c-1.3,0-2.6-0.3-3.9-0.8L307.1,276.4z"/>
<path class="st1" d="M320.1,276.3l-0.2-1.5c0-0.4,0-0.7,0-1.1h-0.1l-1.2,2.6H320.1z M316.8,279.5h-4l5.3-8.7h4.2l2.1,8.7h-4
	l-0.1-1.1h-2.9L316.8,279.5z"/>
<path class="st1" d="M325.6,270.8h3.8l-1.1,5.9h3.2l-0.5,2.8h-7L325.6,270.8z"/>
<path class="st1" d="M333.3,270.8h7l-0.5,2.4h-3.2l-0.2,0.8h2.9l-0.4,2.3h-2.9l-0.2,0.9h3.3l-0.5,2.4h-7.1L333.3,270.8z"/>
<path class="st1" d="M282,255.2l4.8-0.2l-4,13.2h8.6l4-13.2l4.7,0.2l1.9-6.3h-18L282,255.2z"/>
<path class="st1" d="M264.2,258.6c-1.2,6.2-7.8,9.9-15,9.9c-7.2,0-12.3-3.7-11.1-9.9c1.2-6.2,7.8-10,15-10
	C260.3,248.6,265.4,252.6,264.2,258.6z M246.8,258.7c-0.4,2.2,1.1,3.7,3.7,3.7s4.7-1.5,5.1-3.7c0.4-2-1-3.8-3.7-3.8
	C249.5,254.8,247.3,256.4,246.8,258.7z"/>
<path class="st1" d="M261.6,266.8c2.8,1.2,5.7,1.8,8.7,1.8c5.1,0,10.7-2.3,11.6-6.9c0.6-3.3-1.7-4.9-5.2-5.5l-1.9-0.3
	c-0.6-0.1-1.7-0.2-1.5-1s1.3-1,2-1c1.7,0,3.3,0.5,4.7,1.5l3.3-4.9c-2.2-1.2-4.7-1.7-7.1-1.7c-5.1,0-10.7,2.5-11.6,7.1
	c-0.6,3,1.9,4.6,5.2,5.1l1.7,0.2c0.8,0.1,1.9,0.2,1.7,1.1s-1.6,1.1-2.4,1.1c-1.8,0-3.6-0.7-5-1.8l-0.4-0.3L261.6,266.8z"/>
<path class="st1" d="M318.6,249.4c-1.8-0.5-3.7-0.8-5.6-0.8c-6.9,0-13.2,4.5-14.3,10.1c-1.1,5.6,3.4,9.8,10.1,9.8
	c2.1,0,4.2-0.2,6.2-0.8l1.6-7.2c-1.5,1.1-3.4,1.8-5.2,1.8c-2.6,0-4.5-1.6-4.1-3.8s2.8-3.8,5.4-3.8c1.7,0.1,3.4,0.8,4.7,2
	L318.6,249.4z"/>
<path class="st1" d="M332.3,248.6c-7.2,0-13.8,3.9-15,10c-1.2,6.1,3.9,9.9,11.1,9.9s13.8-3.7,15-9.9
	C344.7,252.4,339.4,248.6,332.3,248.6z M331.1,255c2.7,0,4.1,1.7,3.7,3.8c-0.6,2.3-2.7,3.9-5.1,3.7c-2.6,0-4.1-1.5-3.7-3.7
	C326.5,256.4,328.7,254.8,331.1,255z"/>
<path class="st1" d="M240.3,245.1c-2.3-0.7-4.6-1-7-1c-8.6,0-16.4,5.4-17.8,12.2c-1.3,6.6,4.2,11.8,12.6,11.8c2.6,0,5.2-0.3,7.8-0.9
	l2-8.7c-1.9,1.4-4.2,2.1-6.6,2.2c-3.2,0-5.6-2-5.1-4.5c0.5-2.5,3.5-4.5,6.7-4.5c2.2,0,4.2,0.9,5.8,2.4L240.3,245.1z"/>
<path class="st1" d="M338.1,267.3c0.2-0.7,0.9-1.2,1.7-1.2c0.8,0,1.4,0.5,1.2,1.2c-0.2,0.7-0.9,1.2-1.7,1.2
	C338.6,268.5,338,268,338.1,267.3z M340.7,267.3c0.1-0.5-0.3-0.9-0.9-0.9c-0.6,0-1.1,0.3-1.2,0.9c-0.1,0.5,0.3,0.9,0.9,0.9
	C340,268.3,340.5,267.9,340.7,267.3z M340.1,267.9h-0.4l-0.2-0.5h-0.2l-0.1,0.5h-0.3l0.2-1.3h0.8c0.3,0,0.5,0.1,0.4,0.4
	c0,0.2-0.2,0.3-0.4,0.4L340.1,267.9z M339.7,267.2c0.2,0,0.3,0,0.3-0.1s-0.1-0.1-0.3-0.1h-0.4l0,0.2H339.7z"/>
<polygon class="st1" points="216.1,279.5 256.3,279.5 256.3,279.5 256.2,279.5 255.7,277.3 216.1,277.3 "/>
<polygon class="st1" points="216.1,276.3 255.5,276.3 255,274.1 216.1,274.1 "/>
<polygon class="st1" points="216.1,273.2 254.8,273.2 254.6,272.4 254.2,270.8 216.1,270.8 "/>
<path class="st1" d="M300,270.8h7l-0.5,2.4h-3.2l-0.2,0.8h2.9l-0.4,2.3h-2.9l-0.2,0.9h3.3l-0.5,2.4h-7.1L300,270.8z"/>
<path class="st1" d="M471,232.8c1.4,0,10.3,3.9,10.3,18c0,6.7-2.3,12.4-3.6,12.4c-0.6,0-0.8-0.6-0.8-1.7c0-2.5,0.9-4.7,0.9-10
	c0-10.3-4.2-14.4-6.1-16.8c-0.6-0.7-1-1.1-1-1.5C470.6,233,470.7,232.8,471,232.8 M493.4,233.1c0,0.4-0.4,0.9-1,1.5
	c-1.9,2.3-6.1,6.5-6.1,16.8c0,5.3,0.9,7.5,0.9,10c0,1.1-0.2,1.7-0.8,1.7c-1.3,0-3.6-5.6-3.6-12.4c0-14.1,8.9-18,10.3-18
	C493.2,232.8,493.4,232.9,493.4,233.1"/>
<path class="st1" d="M478.8,235.6c0,1.8,1.5,3.2,3.3,3.2c1.8,0,3.2-1.5,3.2-3.3c0-1.8-1.5-3.2-3.3-3.2
	C480.2,232.3,478.7,233.8,478.8,235.6C478.8,235.6,478.8,235.6,478.8,235.6"/>
<path class="st1" d="M465.1,230.4c-1.6-0.7-2.8-2.1-3.2-3.8c1.5-0.8,3.4-0.9,5-0.1c1.3,0,2.4,1,2.4,2.4s-1,2.4-2.4,2.4
	C466.3,231.2,465.6,230.9,465.1,230.4 M470,221.4c-1.1-1.5-1.3-3.5-0.7-5.3c1.9,0.1,3.6,1.1,4.5,2.8c1.2,0.7,1.6,2.3,0.8,3.5
	s-2.3,1.6-3.5,0.8C470.5,222.8,470.1,222.1,470,221.4 M472.5,230.3c-1.3-1-2-2.6-1.9-4.3c1.6-0.4,3.3,0.1,4.5,1.2
	c1.2,0.3,1.9,1.6,1.6,2.8c-0.3,1.2-1.6,1.9-2.8,1.6C473.4,231.3,472.8,230.9,472.5,230.3 M476.6,226c-0.6-1.7-0.3-3.7,0.8-5.2
	c1.7,0.6,3.1,2,3.5,3.8c0.9,1,0.8,2.6-0.2,3.5c-1,0.9-2.6,0.8-3.5-0.2C476.8,227.4,476.6,226.7,476.6,226 M469.6,239.7
	c-1.3,0.3-2.6-0.1-3.5-0.9c0.6-1.2,1.6-2,2.9-2.2c0.8-0.6,1.9-0.4,2.4,0.4c0.6,0.8,0.4,1.9-0.4,2.4
	C470.6,239.7,470.1,239.8,469.6,239.7 M466,235.7c-1.4-0.1-2.7-0.9-3.5-2.2c1-1.1,2.4-1.6,3.9-1.4c1-0.4,2.2,0.1,2.6,1.1
	c0.4,1-0.1,2.2-1.1,2.6C467.3,236.1,466.6,236,466,235.7 M465.9,224.3c-1.2-0.9-1.8-2.3-1.7-3.8c1.4-0.3,2.9,0,4,1
	c1.1,0.3,1.7,1.4,1.4,2.5s-1.4,1.7-2.5,1.4C466.6,225.2,466.1,224.8,465.9,224.3 M474,216.2c-0.5-1.5-0.3-3.1,0.6-4.3
	c1.5,0.5,2.6,1.7,3,3.2c0.8,0.9,0.7,2.2-0.1,3c-0.9,0.8-2.2,0.7-3-0.1C474.2,217.5,474,216.8,474,216.2 M454,256.7
	C454,256.8,454,256.8,454,256.7C454,256.8,454,256.8,454,256.7c0.2,0.1,0.2,0,0.3,0c7-2.5,14.4-4,21.8-4.5c0-0.3,0.1-0.6,0.1-0.9
	c0-0.5,0-1.1-0.1-1.6c-10.2,0.9-17.2,3.9-21.9,6.7C454,256.6,454,256.7,454,256.7 M494.9,229.7c-0.1-1.5,0.8-2.8,2.2-3.4
	c1.6-0.8,3.5-0.7,5,0.1c-0.4,1.7-1.6,3.1-3.2,3.8C497.6,231,496,230.8,494.9,229.7 M490.1,223.1c-0.9-1.3-0.9-3,0-4.3
	c1-1.6,2.7-2.6,4.5-2.8c0.6,1.8,0.4,3.7-0.7,5.3C493.3,222.7,491.7,223.4,490.1,223.1 M487.8,230.7c-0.4-1.3,0-2.8,1.1-3.6
	c1.2-1.1,2.9-1.5,4.5-1.1c0.1,1.7-0.6,3.2-1.9,4.3C490.5,231.2,489,231.4,487.8,230.7 M484.1,228.7c-1.2-1-1.7-2.6-1.1-4.1
	c0.5-1.8,1.8-3.2,3.5-3.8c1.1,1.5,1.4,3.4,0.8,5.2C487,227.5,485.7,228.6,484.1,228.7 M492.3,237.6c0.6-0.9,1.7-1.3,2.7-1.1
	c1.3,0.2,2.4,1,2.9,2.2c-1,0.9-2.3,1.2-3.5,0.9C493.4,239.5,492.5,238.7,492.3,237.6 M495,234.3c0.3-1.2,1.4-2,2.6-2.1
	c1.4-0.2,2.9,0.3,3.8,1.4c-0.7,1.2-2,2.1-3.5,2.2C496.8,235.9,495.6,235.3,495,234.3 M494.8,224.8c-0.4-1.2,0-2.5,1-3.2
	c1.1-1,2.6-1.3,4-1c0.1,1.5-0.5,2.9-1.7,3.8C497.2,225.3,495.8,225.4,494.8,224.8 M487.2,218.6c-1-0.8-1.4-2.2-0.9-3.4
	c0.4-1.5,1.5-2.7,3-3.2c0.9,1.2,1.1,2.8,0.6,4.3C489.6,217.6,488.5,218.5,487.2,218.6 M509.7,256.6c-4.6-2.8-11.7-5.8-21.9-6.7
	c-0.1,0.5-0.1,1.1-0.1,1.6c0,0.3,0,0.6,0.1,0.9c7.5,0.4,14.8,1.9,21.8,4.5c0.1,0,0.2,0.1,0.2,0.1c0.1,0,0.1,0,0.1-0.1
	S509.9,256.7,509.7,256.6 M482,220.2c-1.7-0.7-2.7-2.3-2.6-4.1c-0.1-2.1,0.9-4.1,2.6-5.4c1.7,1.3,2.7,3.3,2.6,5.4
	C484.7,217.9,483.7,219.5,482,220.2"/>
<path class="st1" d="M464.2,269c0,1.2,0.9,2.2,2.1,2.2c1.2,0,2.2-0.9,2.2-2.1c0-1.2-0.9-2.2-2.1-2.2c0,0,0,0,0,0
	C465.2,266.9,464.2,267.8,464.2,269C464.2,269,464.2,269,464.2,269 M480.9,280c0,3.3-1.3,4.7-3.2,4.7s-3-1.6-3-4.4s1.6-5.2,4.7-5.2
	c0.5,0,1,0,1.4,0.2L480.9,280z M481.1,285.5v1.1c0,3-1.8,4.1-4.1,4.1c-1.4,0-2.7-0.3-4-0.8v2.9c1.4,0.4,2.9,0.6,4.4,0.6
	c4.2,0,7-1.7,7-7.6v-12.7c-1.6-0.4-3.2-0.6-4.8-0.6c-5.9,0-8.4,3.9-8.4,8.2c0,3.9,2,7,5.7,7c1.6,0.1,3.1-0.7,4.1-2L481.1,285.5z
	 M461.2,283.7c-1.2,0.5-2.6,0.8-3.9,0.7c-4,0-6.9-2.8-6.9-7.2s2.9-7.2,6.9-7.2c1.3,0,2.7,0.2,3.9,0.7v-3.1c-1.4-0.5-2.8-0.7-4.3-0.6
	c-6.2,0-10.3,4.3-10.3,10.2c0,5.6,3.8,10.2,10.3,10.2c1.5,0,2.9-0.2,4.3-0.6V283.7z M513.5,280c0,3.3-1.3,4.7-3.2,4.7
	c-1.9,0-3-1.6-3-4.4s1.7-5.2,4.7-5.2c0.5,0,1,0,1.4,0.2L513.5,280z M517.4,287.2c-0.3-1.6-0.4-3.2-0.4-4.8v-9.4
	c-1.6-0.4-3.1-0.6-4.8-0.6c-5.9,0-8.4,3.9-8.4,8.2c0,3.9,2,7,5.7,7c1.9,0.1,3.6-1,4.5-2.7h0.1c0,0.5,0.2,2,0.2,2.4L517.4,287.2z
	 M468.1,272.8h-3.5v14.5h3.5L468.1,272.8z M488.3,287.2v-10c0-1.3-0.1-3.9-0.1-4.5h3.1l0.1,2h0.1c0.9-1.5,2.5-2.4,4.2-2.4
	c3.3,0,5.1,2.4,5.1,5.4v9.4h-3.5v-8.7c0-1.8-1-3.2-2.8-3.2s-2.8,1.5-2.8,3.2v8.7L488.3,287.2z"/>
<path class="st1" d="M522.4,284.8c-0.1-0.1-0.3-0.1-0.4-0.1h-0.3v0.7h0.3c0.1,0,0.2,0,0.3,0c0.2-0.1,0.3-0.3,0.2-0.5
	C522.5,284.9,522.5,284.8,522.4,284.8 M522.1,284.5c0.2,0,0.4,0,0.5,0.1c0.2,0.1,0.3,0.3,0.3,0.5c0,0.2-0.1,0.3-0.2,0.4
	c-0.1,0.1-0.2,0.1-0.3,0.1c0.1,0,0.3,0.1,0.3,0.2c0.1,0.1,0.1,0.2,0.1,0.3v0.3c0,0,0,0.1,0,0.1l0,0h-0.3v-0.3c0-0.2,0-0.3-0.2-0.5
	c-0.1-0.1-0.3-0.1-0.4-0.1h-0.3v0.8h-0.3v-2L522.1,284.5z M521,284.4c-0.3,0.3-0.5,0.7-0.5,1.1c0,0.4,0.2,0.8,0.5,1.1
	c0.3,0.3,0.7,0.5,1.1,0.5c0.9,0,1.6-0.7,1.6-1.5c0,0,0,0,0,0c0-0.9-0.7-1.6-1.6-1.6h0C521.7,283.9,521.3,284.1,521,284.4
	 M523.4,286.8c-0.3,0.4-0.8,0.5-1.3,0.5c-0.5,0-1-0.2-1.3-0.5c-0.7-0.7-0.7-1.9,0-2.6c0.7-0.7,1.9-0.7,2.6,0l0,0
	c0.3,0.3,0.5,0.8,0.5,1.3C523.9,286,523.7,286.5,523.4,286.8"/>
<path class="st1" d="M645.2,239.2c0.6-0.4,1.2-0.8,1.8-1.2c0.5,0.5,0.9,1,1.3,1.5c-0.6,0.3-1.2,0.7-1.8,1.1
	C646.2,240,645.7,239.6,645.2,239.2 M642.8,237.2c0.6-0.5,1.2-0.9,1.9-1.4c0.5,0.4,1,0.9,1.5,1.3c-0.7,0.4-1.3,0.8-1.9,1.3
	C643.8,237.9,643.3,237.5,642.8,237.2L642.8,237.2z M688,232.3l-0.1-0.1c-15.1,0.6-29.3,5.3-38.9,11.2c-0.4-0.6-0.9-1.2-1.4-1.8
	c9.4-5.6,19.8-9.4,30.7-11l-0.1-0.1c-10.2,1-20.1,3.9-29.1,8.5c-0.3-0.6-0.7-1.1-1.1-1.6c7.3-4,15.1-6.9,23.3-8.4l-0.1-0.1
	c-9.5,1.4-18.1,4.1-24.1,7.5c-0.4-0.5-0.9-0.9-1.4-1.4c0.6-0.4,1.3-0.7,1.9-1.1c0.3,0.3,0.6,0.6,0.9,0.9l0.3-0.3
	c-0.2-0.3-0.4-0.6-0.6-0.9c5-2.5,10.2-4.3,15.7-5.4l-0.1-0.1c-4.8,0.9-11.2,2.3-16.2,4.7c-4-4.8-12.2-8.1-24.1-10.4l-0.1,0.1
	c10.8,2.4,18.7,6.1,23.5,10.6c-0.7,0.4-1.4,0.8-2,1.1c-5.7-4.7-15.8-8.9-29.1-10.9l-0.1,0.1c11.7,2.1,21.6,6.4,28.2,11.6
	c-0.6,0.5-1.2,1-1.7,1.6c-7.3-5.2-19-9.6-34.5-11.6l-0.1,0.1c12.9,2,26.3,6.6,35.3,14.2c-1.1,0.9-2.1,2-2.8,3.2l0.4,0.4
	c1.1-1,2.2-2,3.4-2.8c0.5,0.4,0.9,0.9,1.4,1.3c-3.1,2.1-5.4,4.5-6.4,6.7l0.4,0.3c2.1-2.3,4.4-4.3,7-5.9c0.5,0.6,1,1.1,1.5,1.7
	c-5.9,3.9-9.7,8.1-10.6,12.1l0.5,0.3c2.5-4.2,6.5-7.8,11.2-11c0.7,1,1.4,2.1,2,3.2l0.4-0.3c-0.2-1.3-0.7-2.5-1.3-3.7
	C661.8,237.4,678.1,232.9,688,232.3L688,232.3z"/>
<path class="st1" d="M679.2,260.1h2.4v9.9h-2.4V260.1 M679.2,255.9h2.5v2.3h-2.5V255.9z"/>
<rect x="703.7" y="255.6" class="st1" width="2.4" height="14.4"/>
<polyline class="st1" points="708.7,255.6 709.9,255.6 709.9,261.7 715.2,261.7 715.2,255.6 716.4,255.6 716.4,270 715.2,270 
	715.2,262.8 709.9,262.8 709.9,270 708.7,270 708.7,255.6 "/>
<path class="st1" d="M724.3,264.3c0-2.1-0.9-3.4-2.2-3.4c-1.5,0-2.2,1.4-2.2,3.4H724.3 M719.9,265.3c0,3.7,2.4,3.7,2.8,3.7
	c0.8,0,1.5-0.3,2.1-0.8l0.1,1.3c-0.7,0.4-1.5,0.6-2.3,0.6c-3.9,0-4-4.1-4-5.1c0-3.4,1.3-5.1,3.5-5.1c2.4,0,3.5,1.9,3.5,5.5
	L719.9,265.3z"/>
<rect x="736.3" y="255.6" class="st1" width="1.2" height="14.4"/>
<path class="st1" d="M741.7,257.8v2.3h2v1h-2v6.5c0,0.8,0.1,1.5,1.1,1.5c0.3,0,0.6-0.1,0.9-0.2v1c-0.4,0.1-0.8,0.2-1.1,0.1
	c-1.7,0-2.1-1.1-2.1-2.2v-6.8h-1.5v-1h1.5v-2L741.7,257.8"/>
<path class="st1" d="M658.1,265.1h-0.9c-1.1,0-2.6,0.3-2.6,1.9c0,0.8,0.6,1.5,1.3,1.5c0.1,0,0.1,0,0.2,0c1.3,0,1.9-1,1.9-2.3V265.1
	 M653.4,260.7c0.9-0.5,2-0.7,3-0.7c3,0,3.9,1.5,3.9,3.7v4.6c0,0.6,0,1.2,0.1,1.7h-2.2c-0.1-0.4-0.1-0.7-0.1-1.1l0,0
	c-0.7,0.8-1.7,1.3-2.8,1.3c-1.5,0.1-2.9-1-3-2.5c0-0.1,0-0.3,0-0.4c0-2.7,2.4-3.4,4.8-3.4h0.9v-0.4c0.1-0.9-0.6-1.8-1.5-1.9
	c-0.1,0-0.2,0-0.3,0c-1,0-1.9,0.4-2.7,1L653.4,260.7z"/>
<path class="st1" d="M699.2,265.1h-0.9c-1.1,0-2.6,0.3-2.6,1.9c-0.1,0.8,0.5,1.5,1.3,1.5c0.1,0,0.1,0,0.2,0c1.3,0,2-1,2-2.3
	L699.2,265.1 M694.5,260.7c0.9-0.5,2-0.7,3-0.7c3,0,3.9,1.5,3.9,3.7v4.6c0,0.6,0,1.2,0.1,1.7h-2.2c-0.1-0.4-0.1-0.7-0.1-1.1l0,0
	c-0.7,0.8-1.7,1.3-2.7,1.3c-1.5,0.1-2.9-1-3-2.5c0-0.1,0-0.2,0-0.4c0-2.7,2.4-3.4,4.8-3.4h0.9v-0.4c0.1-0.9-0.6-1.8-1.5-1.9
	c-0.1,0-0.2,0-0.3,0c-1,0-1.9,0.4-2.7,1L694.5,260.7z"/>
<path class="st1" d="M662.6,261.7c0-0.5,0-1.1-0.1-1.6h2.2c0,0.6,0.1,0.8,0.1,1.4l0,0c0.4-1,1.4-1.6,2.5-1.5c0.1,0,0.3,0,0.4,0v2.2
	c-0.2-0.1-0.4-0.1-0.7-0.1c-1,0-2.1,0.6-2.1,2.4v5.4h-2.4L662.6,261.7"/>
<path class="st1" d="M672.6,268.4c1.4,0,1.9-1.5,1.9-3.4s-0.5-3.3-1.8-3.3s-1.8,1.3-1.8,3.2C670.8,267.2,671.2,268.4,672.6,268.4
	 M676.9,255.6v12.7c0,0.6,0,1.1,0.1,1.7h-2.3c0-0.3-0.1-0.8-0.1-1.3l0,0c-0.5,1-1.6,1.5-2.6,1.4c-2.5,0-3.5-2.4-3.5-5.1
	c0-3.2,1.2-5.1,3.7-5.1c0.9-0.1,1.8,0.4,2.3,1.2l0,0v-5.5H676.9z"/>
<path class="st1" d="M651.1,269.7c-0.9,0.4-1.9,0.5-2.9,0.5c-4.1,0-6.2-3-6.2-6.9s2.1-6.9,6.1-6.9c1,0,2,0.1,3,0.5l-0.1,2.2
	c-0.8-0.5-1.6-0.7-2.5-0.7c-2,0-3.8,1.4-3.8,4.9s1.8,4.9,3.8,4.9c0.9,0,1.8-0.2,2.5-0.7L651.1,269.7"/>
<path class="st1" d="M684.1,261.7c0-0.5,0-1.1-0.1-1.6h2.2c0,0.3,0.1,1,0.1,1.2l0,0c0.5-0.9,1.5-1.4,2.6-1.4c2.1,0,3,1.3,3,3.2v6.8
	h-2.4v-6.4c0.1-0.8-0.5-1.6-1.4-1.7c-0.8-0.1-1.6,0.5-1.7,1.4c0,0.1,0,0.2,0,0.4v6.4H684L684.1,261.7"/>
<path class="st1" d="M745.4,255.6h1.2v5.4l0,0c0.6-0.7,1.5-1.1,2.4-1c1.6,0,2.9,1.2,2.9,2.8c0,0,0,0.1,0,0.1v7.1h-1.2v-6.9
	c0.1-1.1-0.8-2.1-1.9-2.2c-1.1-0.1-2.1,0.8-2.2,1.9c0,0.1,0,0.2,0,0.3v6.9h-1.2V255.6"/>
<path class="st1" d="M731.6,265c-2.1,0-3.3,0.6-3.3,2.2c-0.1,1,0.7,1.8,1.7,1.9c0.1,0,0.2,0,0.2,0c0.5,0,2.4-0.2,2.4-2.9V265H731.6
	 M732.5,263.2c0-1.4-0.5-2.2-2.2-2.2c-0.9,0-1.7,0.4-2.4,1l-0.2-1.2c0.8-0.6,1.7-0.9,2.7-0.9c1.6-0.2,3,0.9,3.2,2.5
	c0,0.2,0,0.3,0,0.5v4.8c0,0.7,0,1.5,0.1,2.2h-1.1l-0.1-1.2l0,0c-0.6,0.9-1.6,1.4-2.7,1.3c-1.5,0.1-2.8-1-2.9-2.5c0-0.1,0-0.3,0-0.4
	c0-2.5,2.1-3.2,4.7-3.2h0.9L732.5,263.2L732.5,263.2z"/>
<path class="st1" d="M950.1,259.2v-2.4h-3V253H947l-2.8,0.9l0,0v2.8h-4.5v-1.6c0-0.6,0.1-1.2,0.5-1.7c0.3-0.4,0.9-0.6,1.4-0.6
	c0.5,0,0.9,0.1,1.3,0.3h0.1v-2.5H943c-0.5-0.2-1.1-0.2-1.7-0.2c-0.8,0-1.6,0.2-2.4,0.6c-0.7,0.4-1.2,0.9-1.6,1.6
	c-0.4,0.7-0.6,1.5-0.6,2.4v1.7h-2.2v2.4h2.1v10.2h3v-10.1h4.5v6.5c0,2.7,1.3,4,3.7,4c0.4,0,0.8,0,1.3-0.1c0.3-0.1,0.6-0.2,0.9-0.3
	l0,0v-2.4l-0.1,0.1c-0.2,0.1-0.4,0.2-0.6,0.3c-0.2,0.1-0.4,0.1-0.6,0.1c-0.5,0-0.9-0.1-1.3-0.5c-0.3-0.5-0.4-1-0.4-1.6v-6H950.1
	L950.1,259.2z M927.9,267.2c-1,0.1-1.9-0.3-2.5-1.1c-0.7-0.9-1-1.9-0.9-3c-0.1-1.1,0.2-2.2,0.9-3.1c0.6-0.7,1.6-1.1,2.5-1.1
	c0.9,0,1.9,0.3,2.5,1c0.6,0.9,1,2,0.9,3.1c0.1,1.1-0.2,2.2-0.8,3.1C929.8,266.9,928.8,267.3,927.9,267.2L927.9,267.2z M928,256.4
	c-1.8-0.1-3.6,0.6-4.9,1.8c-1.2,1.3-1.9,3.1-1.8,4.9c-0.1,1.7,0.5,3.4,1.7,4.7c1.2,1.2,2.9,1.8,4.7,1.8c1.8,0.1,3.5-0.6,4.8-1.8
	c1.2-1.3,1.9-3.1,1.8-4.9c0.1-1.7-0.5-3.4-1.7-4.8C931.4,257,929.7,256.3,928,256.4L928,256.4z M916.5,256.4
	c-1.2-0.1-2.5,0.3-3.5,1.1c-0.9,0.7-1.4,1.7-1.3,2.8c0,0.5,0.1,1.1,0.3,1.6c0.2,0.5,0.5,0.9,0.9,1.2c0.6,0.4,1.2,0.7,1.8,1
	c0.5,0.2,1,0.4,1.5,0.7c0.3,0.1,0.5,0.3,0.7,0.5c0.1,0.2,0.2,0.5,0.2,0.7c0,0.9-0.6,1.3-1.9,1.3c-1.2-0.1-2.4-0.5-3.3-1.2l-0.1-0.1
	v3h0.1c0.5,0.2,1,0.4,1.6,0.5c0.6,0.1,1.1,0.2,1.7,0.2c1.3,0.1,2.6-0.3,3.7-1.1c0.9-0.7,1.4-1.8,1.4-2.9c0-0.8-0.2-1.6-0.7-2.2
	c-0.7-0.7-1.5-1.3-2.5-1.6c-0.6-0.2-1.2-0.5-1.8-0.9c-0.3-0.3-0.4-0.6-0.3-1c0-0.4,0.2-0.7,0.5-0.9c0.4-0.3,0.8-0.4,1.3-0.4
	c0.5,0,1,0.1,1.5,0.2c0.5,0.1,0.9,0.3,1.3,0.6l0.1,0.1V257h-0.1c-0.4-0.2-0.9-0.3-1.3-0.4C917.5,256.5,917,256.5,916.5,256.4
	L916.5,256.4z M903.8,267.2c-1,0.1-1.9-0.3-2.5-1.1c-0.7-0.9-1-1.9-0.9-3c-0.1-1.1,0.2-2.2,0.9-3.1c0.6-0.7,1.6-1.1,2.5-1.1
	c0.9,0,1.9,0.3,2.5,1c0.6,0.9,1,2,0.9,3.1c0.1,1.1-0.2,2.2-0.9,3.1C905.7,266.9,904.8,267.3,903.8,267.2L903.8,267.2z M904,256.4
	c-1.8-0.1-3.6,0.6-4.9,1.8c-1.2,1.3-1.9,3.1-1.8,4.9c-0.1,1.7,0.5,3.4,1.7,4.7c1.2,1.2,2.9,1.8,4.6,1.8c1.8,0.1,3.5-0.6,4.8-1.8
	c1.2-1.3,1.9-3.1,1.8-4.9c0.1-1.7-0.5-3.4-1.7-4.8C907.4,257,905.7,256.3,904,256.4L904,256.4z M892.7,258.9v-2.2h-3v12.6h3v-6.5
	c0-1,0.2-1.9,0.8-2.7c0.4-0.6,1.1-1,1.9-1c0.3,0,0.6,0.1,0.9,0.1c0.2,0.1,0.5,0.2,0.7,0.3l0.1,0.1v-3l0,0c-0.4-0.1-0.8-0.2-1.2-0.2
	c-0.7,0-1.4,0.2-2,0.7c-0.5,0.5-0.9,1-1.1,1.7L892.7,258.9L892.7,258.9z M884.5,256.4c-1.3,0-2.5,0.3-3.6,0.9
	c-1,0.6-1.9,1.4-2.4,2.4c-0.6,1.1-0.8,2.4-0.8,3.6c0,1.1,0.3,2.3,0.8,3.2c0.5,1,1.3,1.7,2.2,2.3c1,0.5,2.1,0.8,3.2,0.8
	c1.2,0,2.5-0.2,3.6-0.8l0,0v-2.7l-0.1,0.1c-0.4,0.3-0.9,0.6-1.5,0.8c-0.5,0.2-0.9,0.3-1.4,0.3c-1,0-2-0.3-2.8-1.1
	c-0.7-0.8-1.1-1.9-1-3c-0.1-1.1,0.3-2.2,1.1-3.1c0.7-0.8,1.7-1.2,2.8-1.1c1,0,2,0.4,2.8,1l0.1,0.1v-2.9l0,0
	c-0.4-0.2-0.9-0.4-1.4-0.5C885.6,256.5,885.1,256.5,884.5,256.4L884.5,256.4z M875.6,256.7h-3v12.6h2.9L875.6,256.7z M874.2,251.3
	c-0.5,0-0.9,0.2-1.3,0.5c-0.3,0.3-0.5,0.8-0.5,1.2c0,0.5,0.2,0.9,0.5,1.2c0.7,0.6,1.8,0.6,2.5,0c0.3-0.3,0.5-0.7,0.5-1.2
	c0-0.5-0.2-0.9-0.5-1.2C875.1,251.5,874.6,251.4,874.2,251.3L874.2,251.3z M866.8,255.8v13.5h3v-17.6h-4.2l-5.3,13.1l-5.2-13.1h-4.4
	v17.6h2.8v-13.5h0.1l5.5,13.5h2.2L866.8,255.8L866.8,255.8z"/>
<rect x="812.6" y="245.9" class="st1" width="14" height="14"/>
<rect x="828" y="245.9" class="st1" width="14" height="14"/>
<rect x="812.6" y="261.3" class="st1" width="14" height="14"/>
<rect x="828" y="261.3" class="st1" width="14" height="14"/>
<path class="st0" d="M41.6,369.8c0-0.8,0.1-1.5,0.1-2.3s0-1.5-0.1-2.3l2.4,0.1c0,0.7,0.1,1.5,0.1,2.2s0,1.4-0.1,2.2L41.6,369.8
	 M39.4,379.2c0.2-0.7,0.5-1.5,0.7-2.2c-1.2,0.3-2.4,0.5-3.7,0.6c-0.1,0.8-0.2,1.5-0.3,2.3C37.3,379.7,38.4,379.5,39.4,379.2
	 M35.2,383.4c0.2-1,0.4-2,0.5-3.1c-0.8,0.1-1.6,0.2-2.4,0.3c-0.1,1.1-0.2,2.2-0.3,3.2C33.8,383.7,34.5,383.5,35.2,383.4 M19.9,367.5
	c0-0.8,0-1.5,0.1-2.3l-2.4,0.1c0,0.7-0.1,1.5-0.1,2.2s0,1.4,0.1,2.2l2.4,0.1C20,369,19.9,368.2,19.9,367.5 M33.3,373.1
	c0-0.9,0-1.8,0-2.7h-5.2c0,0.9,0,1.8,0,2.7h2.6H33.3 M36,357.6c-0.8-0.1-1.7-0.2-2.6-0.2c0.1,1.3,0.1,2.7,0.2,4.1
	c0.9,0,1.8,0.1,2.7,0.1C36.3,360.2,36.2,358.9,36,357.6 M25,357.3c0.1-0.8,0.2-1.5,0.3-2.3c-1.1,0.2-2.2,0.4-3.3,0.7
	c-0.2,0.7-0.5,1.5-0.7,2.2C22.6,357.7,23.8,357.5,25,357.3 M33.3,361.9c-0.8,0-1.7,0-2.6,0s-1.7,0-2.6,0c0,0.9,0,1.8,0,2.7h5.2
	C33.4,363.7,33.4,362.8,33.3,361.9 M18.4,376.1c-0.9-0.3-1.8-0.7-2.7-1.1c0.4,0.8,1,1.6,1.5,2.3c0.6,0.3,1.2,0.6,1.9,0.8
	C18.8,377.5,18.6,376.8,18.4,376.1 M44.4,357.6c-0.6-0.3-1.2-0.6-1.9-0.8c0.3,0.7,0.5,1.4,0.7,2.1c0.9,0.3,1.8,0.7,2.7,1.1
	C45.5,359.1,44.9,358.3,44.4,357.6"/>
<path class="st0" d="M44,372.3c0.1-0.8,0.2-1.5,0.3-2.3c1.2-0.1,2.3-0.2,3.3-0.3c-0.1,0.7-0.2,1.4-0.4,2.1
	C46.2,372,45.1,372.1,44,372.3 M42.9,375.8c0.3-1,0.5-2.1,0.7-3.2c-0.8,0.1-1.5,0.2-2.3,0.3c-0.2,1.2-0.4,2.4-0.7,3.6
	C41.4,376.3,42.2,376.1,42.9,375.8 M36.1,377.3c0.1-1.3,0.2-2.6,0.3-4c-0.9,0-1.8,0.1-2.8,0.1c0,1.4-0.1,2.8-0.2,4.1
	C34.4,377.5,35.3,377.4,36.1,377.3 M24.6,370.3c-1.5,0-2.9-0.1-4.3-0.1c0,0.8,0.1,1.7,0.2,2.5c1.3,0.1,2.7,0.2,4.1,0.3
	C24.7,372.1,24.6,371.2,24.6,370.3 M28.2,380.6c-0.8-0.1-1.6-0.1-2.4-0.3c0.2,1.1,0.3,2.1,0.5,3.1c0.7,0.2,1.4,0.3,2.1,0.4
	C28.4,382.8,28.3,381.7,28.2,380.6 M42.9,359.1c-0.7-0.2-1.5-0.5-2.3-0.7c0.3,1.2,0.5,2.4,0.7,3.6c0.8,0.1,1.6,0.2,2.3,0.3
	C43.4,361.2,43.2,360.2,42.9,359.1 M35.2,351.6c-0.7-0.2-1.4-0.3-2.1-0.4c0.1,1,0.2,2.1,0.3,3.2c0.8,0.1,1.6,0.1,2.4,0.3
	C35.6,353.6,35.4,352.6,35.2,351.6 M17.2,365c0.1-0.8,0.2-1.5,0.3-2.3c-1.1,0.1-2.2,0.3-3.2,0.5c-0.2,0.7-0.3,1.4-0.4,2.1
	C14.9,365.2,16.1,365.1,17.2,365 M24.6,364.7c0-0.9,0.1-1.8,0.1-2.7c-1.4,0.1-2.8,0.2-4.1,0.3c-0.1,0.8-0.2,1.7-0.2,2.5
	C21.7,364.8,23.1,364.7,24.6,364.7 M33,354.7c-0.8,0-1.5-0.1-2.2-0.1s-1.5,0-2.2,0.1c0,0.7-0.1,1.5-0.1,2.3c0.8,0,1.6-0.1,2.4-0.1
	s1.6,0,2.4,0.1C33.1,356.2,33,355.5,33,354.7 M21.8,379.5c-0.7-0.2-1.5-0.4-2.2-0.7c0.3,0.6,0.5,1.2,0.8,1.8
	c0.8,0.6,1.6,1.1,2.4,1.5C22.5,381.2,22.1,380.4,21.8,379.5 M41,354.3c-0.8-0.6-1.6-1.1-2.4-1.5c0.4,0.8,0.8,1.7,1.1,2.6
	c0.7,0.2,1.5,0.4,2.2,0.7C41.6,355.5,41.3,354.9,41,354.3"/>
<path class="st0" d="M20.9,376.5c-0.8-0.2-1.6-0.4-2.3-0.7c-0.3-1-0.5-2.1-0.7-3.2c0.8,0.1,1.5,0.2,2.3,0.3
	C20.4,374.2,20.6,375.4,20.9,376.5 M27.7,367.5c0-0.8,0-1.7,0-2.5l-2.8,0c0,0.8,0,1.7,0,2.5s0,1.7,0,2.5l2.8,0
	C27.7,369.2,27.7,368.3,27.7,367.5 M33,380.3c0-0.8,0.1-1.5,0.1-2.3c-0.8,0-1.6,0.1-2.4,0.1s-1.6,0-2.4-0.1c0,0.8,0.1,1.6,0.1,2.3
	c0.8,0,1.5,0.1,2.2,0.1S32.2,380.3,33,380.3 M40.9,362.3c-1.3-0.1-2.7-0.2-4.1-0.3c0.1,0.9,0.1,1.8,0.1,2.6c1.5,0,2.9,0.1,4.3,0.2
	C41.1,364,41,363.1,40.9,362.3 M28.2,354.4c0.1-1.1,0.2-2.2,0.3-3.2c-0.7,0.1-1.4,0.2-2.1,0.4c-0.2,1-0.4,2-0.5,3.1
	C26.6,354.6,27.4,354.5,28.2,354.4 M44.3,377.4c0.6-0.7,1.1-1.5,1.5-2.3c-0.8,0.4-1.7,0.7-2.7,1.1c-0.2,0.7-0.5,1.4-0.7,2.1
	C43.1,378,43.7,377.7,44.3,377.4 M18.3,358.8c0.2-0.7,0.5-1.4,0.7-2.1c-0.7,0.3-1.3,0.5-1.9,0.8c-0.6,0.7-1.1,1.5-1.5,2.3
	C16.5,359.5,17.4,359.2,18.3,358.8"/>
<path class="st0" d="M36.8,373c0-0.9,0.1-1.8,0.1-2.7c1.5,0,2.9-0.1,4.3-0.1c-0.1,0.8-0.1,1.7-0.2,2.5
	C39.6,372.8,38.2,372.9,36.8,373 M36.6,370c0-0.8,0-1.7,0-2.5s0-1.7,0-2.5c-0.9,0-1.9,0-2.8-0.1c0,0.9,0,1.7,0,2.5s0,1.7,0,2.5
	C34.7,370,35.7,370,36.6,370 M17.3,370c-1.2-0.1-2.3-0.2-3.3-0.3c0.1,0.7,0.2,1.4,0.4,2.1c1,0.2,2.1,0.4,3.2,0.5
	C17.4,371.5,17.3,370.8,17.3,370 M25.1,377.6c-1.3-0.2-2.5-0.4-3.7-0.6c0.2,0.8,0.4,1.5,0.7,2.2c1.1,0.3,2.2,0.5,3.3,0.7
	C25.3,379.2,25.2,378.4,25.1,377.6 M27.9,373.4c-0.9,0-1.8,0-2.8-0.1c0.1,1.4,0.2,2.7,0.3,4c0.8,0.1,1.7,0.2,2.6,0.2
	C28,376.2,27.9,374.8,27.9,373.4 M47.2,363.2c-1-0.2-2.1-0.4-3.2-0.5c0.1,0.8,0.2,1.5,0.3,2.3c1.2,0.1,2.3,0.2,3.3,0.3
	C47.5,364.5,47.4,363.8,47.2,363.2 M39.4,355.7c-1.1-0.3-2.2-0.5-3.3-0.7c0.1,0.7,0.2,1.5,0.3,2.3c1.2,0.2,2.5,0.4,3.7,0.6
	C39.9,357.2,39.7,356.5,39.4,355.7 M20.3,362c0.2-1.2,0.4-2.4,0.7-3.6c-0.8,0.2-1.6,0.4-2.3,0.7c-0.3,1-0.5,2.1-0.7,3.2
	C18.7,362.1,19.5,362.1,20.3,362 M27.8,361.5c0-1.4,0.1-2.8,0.2-4.1c-0.9,0-1.7,0.1-2.6,0.2c-0.1,1.3-0.2,2.6-0.3,4
	C26,361.6,26.9,361.5,27.8,361.5 M41,380.6c0.3-0.6,0.6-1.2,0.8-1.8c-0.7,0.3-1.4,0.5-2.2,0.7c-0.3,0.9-0.7,1.8-1.1,2.6
	C39.4,381.7,40.2,381.2,41,380.6 M21.8,355.4c0.3-0.9,0.7-1.7,1.1-2.6c-0.8,0.4-1.7,0.9-2.4,1.5c-0.3,0.6-0.6,1.2-0.8,1.8
	C20.4,355.9,21.1,355.6,21.8,355.4"/>
<path class="st0" d="M61.7,364.2l-2,6h-1l-1.4-4.3l-1.4,4.3h-1l-2-6h1l1.6,4.6l1.4-4.6h0.8l1.5,4.6l1.5-4.6 M65.3,367.5v1.3
	c0,0.3-0.1,1.5-1.9,1.5s-2-1.2-2-1.5c0-0.9,0.8-1.5,2.2-1.5c0.3,0,0.5,0,0.8,0c-0.1-0.7-0.4-0.9-1.2-0.9c-0.4,0-0.8,0.1-1.2,0.2
	h-0.1v-0.8l0,0c0.4-0.2,0.9-0.3,1.4-0.2c1-0.1,1.9,0.6,2,1.5C65.3,367.2,65.3,367.3,65.3,367.5 M64.3,368c-0.2,0-0.5,0-0.7,0
	c0,0-1.3,0-1.3,0.7c0,0.5,0.3,0.7,1,0.7s1-0.2,1-0.7L64.3,368L64.3,368z M66,370.1h1V364h-1V370.1z M71.6,367v3.3
	c0,0.7-0.4,1.6-2.1,1.6c-0.5,0-0.9-0.1-1.4-0.2l0,0v-0.9h0.1c0.4,0.1,0.8,0.2,1.3,0.2c1.2,0,1.2-0.4,1.2-0.7V370
	c-0.3,0.1-0.6,0.1-0.9,0.1c-1.1,0.1-2-0.7-2.1-1.8c0-0.1,0-0.3,0-0.4c0-1.5,0.7-2.3,2-2.3S71.7,366.1,71.6,367 M70.7,367
	c0-0.1,0-0.6-0.9-0.6c-0.5,0-1.1,0.2-1.1,1.5s0.6,1.4,1.1,1.4c0.3,0,0.6,0,0.9-0.1V367L70.7,367z M72.6,366L72.6,366v4.1h0.9v-3.6
	c0.4-0.1,0.9-0.2,1.3-0.2h0.1v-0.9h-0.1C74.1,365.6,73.4,365.7,72.6,366 M79.4,367.8c0,0.2,0,0.4,0,0.6v0h-3.1c0,0.6,0.6,1,1.1,1
	c0,0,0,0,0.1,0c0.5,0,1.1-0.1,1.5-0.3h0.1v0.9l0,0c-0.5,0.2-1.1,0.3-1.6,0.3c-1,0-2.2-0.4-2.2-2.3c-0.2-1.1,0.5-2.1,1.6-2.4
	c0.2,0,0.3,0,0.5,0c1.1,0,2,0.8,2.1,1.9c0,0.1,0,0.2,0,0.3 M78.5,367.6c-0.1-0.5-0.3-1.2-1.1-1.2s-1,0.3-1.1,1.2H78.5z M84.4,367.8
	c0,0.2,0,0.4,0,0.6v0h-3.2c0,0.6,0.5,1,1.1,1c0,0,0.1,0,0.1,0c0.5,0,1.1-0.1,1.5-0.3h0.1v0.9l0,0c-0.5,0.2-1.1,0.3-1.6,0.3
	c-1,0-2.2-0.4-2.2-2.3c-0.2-1.1,0.5-2.1,1.6-2.4c0.2,0,0.3,0,0.5,0c1.1,0,2,0.8,2.1,1.9C84.5,367.6,84.5,367.7,84.4,367.8
	 M83.5,367.6c-0.1-0.5-0.3-1.2-1.1-1.2s-1,0.3-1.1,1.2H83.5z M87.3,365.6c-0.7,0-1.4,0.2-2,0.5l0,0v4.1h1v-3.6
	c0.3-0.1,0.7-0.1,1-0.1c0.9,0,1,0.4,1,0.8v3h1v-2.9c0-1.1-0.7-1.7-1.9-1.7 M91.6,367.4c-0.4-0.1-0.8-0.2-0.8-0.5s0.1-0.5,0.8-0.5
	c0.4,0,0.8,0.1,1.1,0.3h0.1v-0.8l0,0c-0.4-0.2-0.8-0.3-1.2-0.3c-1.2,0-1.7,0.7-1.7,1.4c0,0.9,0.7,1.1,1.4,1.3s0.9,0.3,0.9,0.7
	s-0.3,0.5-0.8,0.5c-0.4,0-0.9-0.1-1.2-0.3h-0.1v0.9l0,0c0.4,0.2,0.9,0.3,1.3,0.3c1.3,0,1.8-0.7,1.8-1.4
	C93.2,367.9,92.3,367.6,91.6,367.4 M100.4,368.4c0,0.6-0.3,1.7-2.2,1.7h-2.3v-6H98c1.8,0,2,1,2,1.7c0,0.5-0.2,0.9-0.6,1.2
	C99.9,367.3,100.3,367.8,100.4,368.4 M96.7,366.7h1.2c0.8,0,1.1-0.2,1.1-0.8s-0.3-0.8-1.2-0.8h-1.1V366.7z M99.4,368.4
	c0-0.6-0.4-0.9-1.4-0.9h-1.2v1.8h1.3C99,369.4,99.4,369.1,99.4,368.4 M105.4,368c-0.1,1.2-1.1,2.1-2.3,2.1c-1.2-0.1-2.1-1.1-2.1-2.3
	c0.1-1.2,1-2.1,2.2-2.1c1.1-0.1,2.1,0.7,2.2,1.8C105.4,367.6,105.4,367.8,105.4,368 M104.4,368c0-1.4-0.6-1.5-1.2-1.5
	s-1.2,0.1-1.2,1.5s0.7,1.5,1.2,1.5S104.4,369.3,104.4,368 M110.3,368c0.2,1.1-0.5,2.1-1.6,2.3c-0.2,0-0.4,0-0.6,0
	c-1,0-2.2-0.4-2.2-2.3s1.2-2.3,2.2-2.3c1.1-0.1,2.1,0.7,2.2,1.8C110.3,367.6,110.3,367.8,110.3,368 M109.3,368
	c0-1.4-0.6-1.5-1.2-1.5s-1.2,0.1-1.2,1.5s0.6,1.5,1.2,1.5S109.3,369.3,109.3,368 M112.4,364.4h-0.9v1.3h-0.8v0.8h0.8v2.5
	c0,0.7,0.6,1.3,1.3,1.3c0,0,0.1,0,0.1,0c0.2,0,0.5,0,0.7-0.1l0,0v-0.9l-0.1,0c-0.2,0.1-0.3,0.1-0.5,0.1c-0.4,0-0.6-0.1-0.6-0.5v-2.5
	h1.3v-0.8h-1.2L112.4,364.4L112.4,364.4z M115.8,367.4c-0.4-0.1-0.8-0.2-0.8-0.5s0.1-0.5,0.9-0.5c0.4,0,0.8,0.1,1.1,0.3h0.1v-0.8
	l0,0c-0.4-0.2-0.8-0.3-1.2-0.3c-1.2,0-1.7,0.7-1.7,1.4c0,0.9,0.7,1.1,1.4,1.3s0.9,0.3,0.9,0.7s-0.3,0.5-0.8,0.5
	c-0.4,0-0.9-0.1-1.2-0.3h-0.1v0.9l0,0c0.4,0.2,0.9,0.3,1.3,0.3c1.3,0,1.8-0.7,1.8-1.4C117.3,367.9,116.4,367.6,115.8,367.4
	 M122.4,364.2l2.5,6h-1l-0.7-1.7h-2.4l-0.6,1.7h-1l2.5-6H122.4z M122.8,367.7l-0.9-2.2l-0.9,2.2H122.8z M125.6,370.2h1V364h-1V370.2
	z M127.6,370.2h1V364h-1V370.2z M129.7,370.2h1v-4.5h-1V370.2z M129.7,365.1h1v-1h-1V365.1z M135.3,367.5v1.3c0,0.3-0.1,1.5-1.9,1.5
	s-2-1.2-2-1.5c0-0.9,0.8-1.5,2.2-1.5c0.3,0,0.5,0,0.8,0c-0.1-0.7-0.4-0.9-1.2-0.9c-0.4,0-0.8,0.1-1.2,0.2h-0.1v-0.8l0,0
	c0.4-0.2,0.9-0.3,1.4-0.2c1-0.1,1.9,0.6,2,1.5c0,0.1,0,0.2,0,0.4 M134.2,368.1c-0.2,0-0.5,0-0.7,0c0,0-1.3,0-1.3,0.7
	c0,0.5,0.3,0.7,1,0.7s1-0.2,1-0.7L134.2,368.1z M138.1,365.6c-0.7,0-1.4,0.2-2,0.5l0,0v4.1h1v-3.6c0.3-0.1,0.7-0.1,1-0.1
	c0.9,0,1,0.4,1,0.8v3h1v-2.9c0-0.9-0.7-1.7-1.6-1.7c-0.1,0-0.2,0-0.3,0 M143.1,365.5c-1.3,0-2.3,1-2.3,2.3c0,1.3,1,2.3,2.3,2.3
	c0.5,0,0.9-0.1,1.4-0.2l0,0v-0.9h-0.1c-0.4,0.2-0.8,0.3-1.2,0.3c-0.6,0-1.3-0.1-1.3-1.5s0.6-1.5,1.3-1.5c0.4,0,0.9,0.1,1.2,0.3h0.1
	v-0.9l0,0C144,365.6,143.5,365.5,143.1,365.5 M149.1,367.7c0,0.2,0,0.4,0,0.6v0h-3.1c0,0.6,0.5,1,1.1,1c0,0,0.1,0,0.1,0
	c0.5,0,1.1-0.1,1.5-0.3h0.1v1l0,0c-0.5,0.2-1.1,0.3-1.6,0.3c-1,0-2.1-0.4-2.1-2.3c-0.2-1.1,0.5-2.1,1.6-2.4c0.2,0,0.3,0,0.5,0
	c1.1,0,2,0.8,2.1,1.9c0,0.1,0,0.2,0,0.3 M148.1,367.6c-0.1-0.5-0.3-1.2-1.1-1.2s-1,0.3-1.1,1.2"/>
<path class="st1" d="M256.4,356.4v-2.7h-4.8v16.4h5v-9.1c0.7-1.8,2.4-2.9,4.3-2.9c0.6,0,1.2,0.1,1.8,0.2v-4.7
	c-0.5-0.2-1-0.2-1.6-0.2C259.4,353.4,257.9,354.4,256.4,356.4z"/>
<path class="st1" d="M278.6,368c3.2-3.4,3.2-8.7,0-12.1c-3.3-3.3-8.7-3.3-12,0c-3.2,3.4-3.2,8.7,0,12.1
	C269.9,371.3,275.3,371.3,278.6,368z M269.9,364.8c-1.4-1.6-1.4-4,0-5.6c1.3-1.5,3.6-1.6,5-0.2c0.1,0.1,0.2,0.2,0.2,0.2
	c1.4,1.6,1.4,4,0,5.6c-1.4,1.5-3.6,1.5-5.1,0.2C270.1,364.9,270,364.8,269.9,364.8L269.9,364.8z"/>
<path class="st1" d="M310.1,353.4c-2.2,0-4.3,0.8-5.9,2.4c-1.6,1.6-2.5,3.8-2.4,6.1c-0.1,2.3,0.7,4.5,2.3,6.1c1.6,1.6,3.8,2.5,6,2.4
	c1.5,0,3-0.3,4.3-0.9c1.2-0.7,2.3-1.5,3.3-2.6l-3.6-2c-1,0.9-2.3,1.3-3.6,1.3c-2.2,0-3.4-1-3.8-2.9h11.3V363c0-0.2,0-0.3,0-0.5
	s0-0.3,0-0.4c0.1-2.3-0.7-4.5-2.2-6.1C314.3,354.3,312.2,353.4,310.1,353.4z M306.7,360.4c0.2-0.8,0.6-1.6,1.2-2.1
	c0.6-0.5,1.3-0.7,2-0.7c0.8,0,1.5,0.3,2,0.9c0.6,0.5,1,1.2,1.1,2L306.7,360.4z"/>
<path class="st1" d="M329.7,353.4c-1.7,0-3.2,1-4.6,3v-2.7h-4.9v16.4h5v-9.1c0.7-1.8,2.4-2.9,4.3-2.9c0.6,0,1.2,0.1,1.8,0.2v-4.7
	C330.7,353.5,330.2,353.4,329.7,353.4z"/>
<path class="st1" d="M246.8,350.6c0.1-0.6,0.1-1.1,0.1-1.7l0,0c-0.2-6.4,4.9-11.8,11.3-12c6.4-0.2,11.8,4.9,12,11.3
	c0,0.2,0,0.5,0,0.7h4.7c-0.1-9-7.6-16.3-16.6-16.1c-8.7,0.1-15.8,7.1-16.1,15.8l0,0c0,0.5,0,0.9-0.1,1.4c-0.2,2.2-1.2,4.3-2.6,6.1
	c-1.5,1.6-3.4,2.7-5.6,3.1v-10.9h-5.3v21.9h5.3V364c1.6-0.3,3.1-0.7,4.5-1.4l4.8,7.5h6.3l-7-10.4c0.2-0.2,0.4-0.4,0.5-0.6
	C245.1,356.8,246.4,353.8,246.8,350.6z"/>
<path class="st1" d="M299.7,375v-21.3H295v1.4c-1.1-1.1-2.6-1.8-4.2-1.7c-2.1,0-4.1,0.8-5.5,2.4c-1.5,1.6-2.4,3.7-2.3,5.9
	c-0.1,2.2,0.8,4.3,2.4,5.8c1.4,1.5,3.4,2.3,5.4,2.3c1.5,0,3.1-0.5,4.3-1.4v6.5c0,5.5-4.5,10-10,10s-10-4.5-10-10h-4.7
	c-0.1,8.1,6.4,14.8,14.5,14.9s14.8-6.4,14.9-14.5l0,0L299.7,375L299.7,375z M294,364.5c-1.4,1.5-3.8,1.5-5.3,0c0,0,0,0,0,0
	c-1.4-1.6-1.4-4,0-5.6c0.7-0.7,1.6-1.1,2.6-1.1c1,0,2,0.4,2.7,1.1C295.3,360.5,295.3,362.9,294,364.5L294,364.5z"/>
<path class="st1" d="M303.4,382.6c-0.1,1-0.9,1.7-1.9,1.7c-0.9-0.1-1.6-0.8-1.7-1.7c0.1-1,0.9-1.7,1.9-1.7
	C302.6,381,303.3,381.7,303.4,382.6z M300.2,382.6c0,0.8,0.6,1.4,1.3,1.4c0,0,0,0,0,0c0.7,0,1.3-0.6,1.3-1.4c0,0,0,0,0,0
	c0.1-0.7-0.5-1.4-1.2-1.5s-1.4,0.5-1.5,1.2C300.2,382.5,300.2,382.6,300.2,382.6L300.2,382.6z M301.3,383.6h-0.4v-1.8
	c0.2,0,0.5-0.1,0.7-0.1c0.2,0,0.4,0,0.6,0.1c0.1,0.1,0.2,0.2,0.2,0.4c0,0.2-0.2,0.4-0.4,0.4l0,0c0.2,0.1,0.3,0.2,0.3,0.4
	c0,0.2,0.1,0.3,0.1,0.4H302c-0.1-0.1-0.1-0.3-0.1-0.4c0-0.2-0.1-0.3-0.4-0.3h-0.2L301.3,383.6z M301.3,382.6h0.2
	c0.2,0,0.4-0.1,0.4-0.3s-0.1-0.3-0.4-0.3h-0.2V382.6z"/>
<path class="st1" d="M507.7,396.6c0.2,0,0.4,0,0.4-0.3s-0.2-0.3-0.4-0.3h-0.4v0.6H507.7z"/>
<path class="st1" d="M507.7,398c0.7,0,1.4-0.5,1.4-1.3c0-0.7-0.5-1.4-1.3-1.4c-0.7,0-1.4,0.5-1.4,1.3c0,0,0,0.1,0,0.1
	C506.4,397.4,507,398,507.7,398C507.7,398,507.7,398,507.7,398z M507.8,395.7c0.4,0,0.6,0.2,0.6,0.5c0,0.3-0.2,0.5-0.4,0.5
	c0,0,0,0,0,0l0.5,0.8h-0.3l-0.5-0.8h-0.3v0.8h-0.3v-1.9H507.8z"/>
<path class="st1" d="M462.7,397.5l-8.9-8.9c-0.6-0.6-0.7-0.8-1.5-0.3l0,0V399h10.8l0,0C463.5,398.2,463.4,398.1,462.7,397.5z"/>
<path class="st1" d="M508,349.2l2,2v-9.8h-10.1l2.1,2.1c0.1,0.1,0.4,0.4-0.1,0.9c-0.3,0.3-0.5,0.2-0.9,0c-1.7-1-3.7-0.8-5.3,0.4
	l-1-1l2.5-2.5h-45v45l4.1-4.1c0.1-0.1,0.7-0.6,1.1-0.1c0.2,0.2,0.3,0.6,0.1,0.8c-0.4,0.8-0.3,0.9,0.3,1.5l8.9,8.9
	c0.6,0.6,0.7,0.8,1.5,0.3c0.3-0.2,0.6-0.1,0.8,0.1c0.5,0.5,0,1.1-0.1,1.2l-4.1,4h16.4l0.1-0.2c0.1-0.2-0.1-0.5-0.3-0.6l-5-5
	c-0.1-0.1-0.4-0.4-0.6-0.3s-0.5,0.3-0.7,0s0-0.5,0.1-0.7l2.5-2.5l7.2,7.2l-2.1,2.1H510v-27.4l-2.3,2.3c0,0-0.4,0.3-0.7,0.1
	c-0.1-0.1-0.2-0.3,0-0.5c0.2-0.4,0.2-0.5-0.2-0.8l-6.1-6.1l2.3-2.4l6.1,6.1c0.3,0.4,0.4,0.4,0.8,0.2V354l-2.5,2.5l-1-1
	c1.2-1.5,1.3-3.6,0.4-5.4c-0.1-0.4-0.3-0.8,0-1c0.3-0.3,0.7-0.3,0.9,0C508,349.1,508,349.1,508,349.2z M500.2,345.7
	c0.5-0.5,1.1,0.2,1.2,0.3l3.7,3.7c0.1,0.1,0.8,0.7,0.3,1.2c-0.4,0.4-0.7,0.2-1.1,0c-0.8-0.6-1.8-0.7-2.7-0.3l-1-1
	c0.4-0.9,0.3-1.9-0.3-2.7C500,346.4,499.8,346,500.2,345.7z M487.7,350.9c0.1-0.1,0.7-0.6,1.1-0.1c0.2,0.2,0.3,0.6,0.1,0.8
	c-0.4,0.8-0.3,0.9,0.3,1.5l8.9,8.9c0.6,0.6,0.7,0.8,1.5,0.3c0.3-0.2,0.6-0.1,0.8,0.1c0.5,0.5,0,1.1-0.1,1.2l-4.8,4.8
	c-0.1,0.1-0.7,0.6-1.2,0.1c-0.2-0.2-0.3-0.6-0.1-0.8c0.4-0.8,0.3-0.9-0.3-1.5l-7.9-7.9l6.9,12.7l-0.5,0.5l-14.1-7
	c-0.3-0.2-0.7-0.3-1-0.4c-0.4-0.1-0.7-0.2-1,0s-0.7,0.6-1.1,0.2s0-1,0.2-1.2l4.3-4.3l7,3.4l0,0l-3.7-6.8L487.7,350.9z M487.5,384.5
	c-0.1-0.2-0.2-0.4,0-0.6s0.6,0.1,0.7,0.2l2.1,2.1c0.1,0.1,0.5,0.4,0.2,0.7s-0.4,0.1-0.6,0c-0.4-0.3-1-0.4-1.5-0.2l-0.6-0.6
	C487.9,385.5,487.8,384.9,487.5,384.5z M488.5,383.1c-0.2,0.2-0.3,0.1-0.5,0c-0.9-0.6-2.1-0.5-3,0.2l-0.5-0.6l2.1-2.1l2,1.9
	C488.6,382.6,488.8,382.8,488.5,383.1L488.5,383.1z M481.4,378.8l-8.8-8.8c-0.5-0.6-1.4-0.8-2.1-0.4l-1-1c3.9-3.3,8.5-2.1,11.9,1.3
	s4.6,8,1.3,11.9l-1-1C482.2,380.2,482,379.3,481.4,378.8L481.4,378.8z M486.2,372.5l-5.7-5.7l0,0l3.8,1.9l2.9,2.9
	c2.4,1.9,2.8,0.1,3.6,0.8c0.5,0.5-0.2,1.2-0.4,1.4l-1.9,1.9c-0.2,0.2-0.8,0.9-1.4,0.4C486.3,375.3,488.1,374.9,486.2,372.5
	L486.2,372.5z M479.8,352.5c-0.1-0.2-0.2-0.4,0-0.5c0.1-0.2,0.4-0.2,0.5-0.1c0,0,0,0,0.1,0.1l1.8,1.8l-2.1,2.1l-0.5-0.5
	C480.1,354.5,480.2,353.3,479.8,352.5L479.8,352.5z M478.9,352.8c-0.2,0.2-0.4,0.1-0.6,0c-0.4-0.3-1-0.4-1.4-0.2l-0.6-0.5
	c0.2-0.5,0.2-1-0.2-1.4c-0.1-0.2-0.2-0.4,0-0.6s0.6,0.1,0.6,0.2l2,1.9C478.8,352.2,479.1,352.5,478.9,352.8L478.9,352.8z
	 M475.3,347.1l1.8,1.8c0,0,0.2,0.2-0.1,0.5s-0.3,0.1-0.5,0c-0.9-0.5-2-0.4-2.8,0.2l-0.5-0.5L475.3,347.1z M470.5,351.9l2.4-2.4
	l6.7,6.7l-2.4,2.4c0,0-0.4,0.3-0.6,0c-0.1-0.1-0.1-0.3,0-0.4c0.2-0.4,0.2-0.5-0.2-0.8l-4.7-4.7c-0.3-0.3-0.4-0.4-0.8-0.2
	c-0.1,0.1-0.3,0.1-0.4,0C470.2,352.2,470.5,351.9,470.5,351.9L470.5,351.9z M467.1,355.3l2.5-2.5c0,0,0.4-0.3,0.6,0
	c0.1,0.1,0.1,0.3,0,0.4c-0.2,0.4-0.1,0.5,0.2,0.8l4.7,4.7c0.3,0.3,0.4,0.4,0.8,0.2c0.1-0.1,0.3-0.1,0.4,0c0.3,0.3,0,0.6,0,0.6
	l-2.5,2.5c0,0-0.4,0.3-0.6,0.1c-0.1-0.1-0.1-0.3,0-0.4c0.2-0.4,0.2-0.5-0.2-0.8l-2.1-2.1l-0.8,0.8l-0.5-0.5l0.8-0.8l-2-2
	c-0.3-0.3-0.4-0.4-0.8-0.2c-0.1,0.1-0.3,0.1-0.4,0C466.8,355.6,467.1,355.3,467.1,355.3L467.1,355.3z M463.7,358.7l2.5-2.5
	c0,0,0.4-0.3,0.6,0c0.1,0.1,0.1,0.3,0,0.4c-0.2,0.4-0.1,0.5,0.2,0.8l4.7,4.7c0.3,0.3,0.4,0.4,0.8,0.2c0.1-0.1,0.3-0.1,0.4,0
	c0.3,0.3,0,0.6,0,0.6l-2.5,2.5c0,0-0.4,0.3-0.6,0c-0.1-0.1-0.1-0.3,0-0.4c0.2-0.4,0.1-0.5-0.2-0.8l-4.7-4.7
	c-0.3-0.3-0.4-0.4-0.8-0.2c-0.1,0.1-0.3,0.1-0.4,0C463.4,359,463.7,358.7,463.7,358.7L463.7,358.7z M463.1,359.3l2.1,2.1
	c0.2,0.1,0.2,0.4,0,0.6c0,0,0,0,0,0c-0.2,0.2-0.5,0.1-0.8-0.1c-0.6-0.5-1.3-0.8-2.1-0.7l-0.5-0.5L463.1,359.3z M461.4,361l5.7,5.7
	c0.3,0.3,0.4,0.4,0.8,0.2c0.1-0.1,0.3-0.1,0.4,0c0.3,0.3,0,0.6-0.1,0.6l-2.5,2.5c0,0-0.4,0.3-0.6,0c-0.1-0.1-0.1-0.3,0-0.4
	c0.2-0.4,0.1-0.5-0.2-0.8l-5.7-5.7L461.4,361z M457.5,364.9l1.3-1.3l0.5,0.5c0,0.8,0.2,1.5,0.7,2.1c0.2,0.2,0.4,0.5,0.1,0.8
	c-0.1,0.2-0.4,0.2-0.5,0c0,0,0,0,0,0L457.5,364.9z M475.6,388.5l-4.8,4.8c-0.1,0.1-0.7,0.6-1.2,0.1c-0.2-0.2-0.3-0.6-0.1-0.8
	c0.4-0.8,0.3-0.9-0.3-1.5l-4.1-4.1l-1.5,1.5l-1-1l1.5-1.5l-3.9-3.9c-0.6-0.6-0.7-0.7-1.5-0.3c-0.3,0.2-0.6,0.1-0.8-0.1
	c-0.5-0.5,0-1.1,0.1-1.2l4.8-4.8c0.1-0.1,0.7-0.6,1.2-0.1c0.2,0.2,0.3,0.6,0.1,0.8c-0.4,0.8-0.3,0.9,0.3,1.5l8.9,8.9
	c0.6,0.6,0.7,0.8,1.5,0.3c0.3-0.2,0.6-0.1,0.8,0.1C476.1,387.8,475.6,388.4,475.6,388.5z M470,381.3c-3.4-3.4-4.6-8-1.3-11.9l1,1
	c-0.4,0.7-0.3,1.6,0.4,2.1l8.8,8.8c0.5,0.6,1.4,0.8,2.1,0.4l1,1C478,385.9,473.4,384.7,470,381.3L470,381.3z M485.1,396.5l-0.5-0.5
	c0.5-0.7,0-1.2-0.4-1.6l-4.1-4.1c-0.4-0.4-0.9-0.9-1.6-0.4l-0.6-0.5c1.6-1.6,4.1-1.9,6.7,0.5c1.9,1.6,2.2,4.4,0.7,6.4
	C485.2,396.3,485.2,396.4,485.1,396.5L485.1,396.5z M488.7,392.9c0,0-0.4,0.3-0.6,0.1c-0.1-0.1-0.1-0.3,0-0.5
	c0.2-0.4,0.2-0.5-0.2-0.8l-5-5c-0.4-0.4-0.4-0.4-0.8-0.2c-0.1,0.1-0.3,0.1-0.5,0c-0.3-0.3,0-0.6,0.1-0.6l2.5-2.5l7.2,7.2
	L488.7,392.9z M491.7,389.9l-0.5-0.5c0.7-0.9,0.7-2,0.2-3c-0.1-0.2-0.2-0.4,0-0.6c0.1-0.2,0.4-0.2,0.6,0c0,0,0,0,0.1,0.1l1.9,1.9
	L491.7,389.9z M497.3,384.3l-2.7,2.7c-0.1,0.2-0.4,0.2-0.6,0c0,0,0,0,0,0c-0.1-0.1-0.2-0.3-0.1-0.5c0.2-0.4,0.1-0.4-0.2-0.8l-5-5
	c-0.4-0.4-0.4-0.4-0.8-0.2c-0.1,0.1-0.3,0.1-0.5,0c-0.3-0.3,0-0.6,0.1-0.6l2.5-2.5l6.1,6.1c0.4,0.4,0.4,0.4,0.8,0.2
	c0.2-0.1,0.4-0.1,0.5,0C497.6,384,497.3,384.3,497.3,384.3L497.3,384.3z M496.6,377.8l-0.4-0.4c0.2,0.5,0.2,1.1,0.1,1.7
	c-0.3,0.9-0.8,1.7-1.5,2.2l-0.6-0.6c0.5-0.7,0.1-1.1-0.4-1.6l-1.5-1.5c-0.4-0.4-0.9-0.7-1.5-0.3l-0.5-0.6c0.6-0.7,1.4-1.2,2.2-1.5
	c1-0.3,2.1,0,2.8,0.8c-1-1.6-0.8-3.7,0.5-5.1l0.5,0.5c-0.2,0.4-0.2,0.9,0.2,1.2l5,5c0.3,0.4,0.8,0.4,1.2,0.2l0.6,0.6
	C501.1,380.5,498.5,379.8,496.6,377.8L496.6,377.8z M507.8,395c0.9,0,1.6,0.7,1.7,1.6c0,0.9-0.7,1.6-1.6,1.7s-1.6-0.7-1.7-1.6
	c0,0,0,0,0-0.1C506.2,395.8,506.9,395.1,507.8,395L507.8,395z M500.9,367.5c-0.1,0.8,0.2,1.6,0.8,2.2c0.2,0.2,0.4,0.5,0.1,0.8
	c0.4,0.3,0.8,0.6,1.2,1c1.9,1.9,2.6,4.5,0.8,6.7l-0.5-0.6c0.2-0.4,0.1-0.9-0.2-1.2l-5-5c-0.3-0.4-0.8-0.4-1.2-0.2l-0.5-0.5
	c1.1-1,2.7-1.4,4.2-0.9l-1.5-1.5l1.4-1.4L500.9,367.5z M507.1,365.2c-0.3,0.3-0.6,0.1-0.8-0.1c-0.6-0.5-1.4-0.8-2.2-0.8l-0.6-0.5
	l1.4-1.4l2.2,2.2C507.3,364.7,507.3,365,507.1,365.2C507.1,365.2,507.1,365.2,507.1,365.2L507.1,365.2z M506.8,357.2l-4.5,4.5
	c-0.1,0.1-0.7,0.6-1.2,0.1c-0.2-0.2-0.3-0.6-0.1-0.8c0.4-0.8,0.3-0.9-0.3-1.5l-8.9-8.9c-0.6-0.6-0.7-0.8-1.5-0.3
	c-0.3,0.2-0.6,0.1-0.8-0.1c-0.5-0.5,0-1.1,0.1-1.2l4.5-4.5L506.8,357.2z"/>
<path class="st1" d="M612.1,358.8h-5.2v10.7h3.2v-3.8h2.7c3.1,0,5-1.5,5-3.5C617.8,360,616.1,358.8,612.1,358.8 M614.6,362.1
	c0,0.7-0.4,1.8-2.3,1.8h-2.2v-3.3h2.2C614.2,360.5,614.6,361.4,614.6,362.1L614.6,362.1z"/>
<path class="st1" d="M709.1,361c-1.1,0-2.1,0.3-2.9,1l0,0v-3.3h-2.6v10.7h2.6v-5.6c0.5-0.6,1.3-1,2.2-1c1.9,0,1.9,1.2,1.9,2.8v3.9
	h2.6v-4.7C712.9,362.9,712.4,361,709.1,361"/>
<path class="st1" d="M684.7,361c-1.1,0-2.2,0.3-3,1l0,0v-0.9h-2.6v8.3h2.6v-5.6c0.5-0.6,1.3-1,2.2-1c1.9,0,1.9,1.2,1.9,2.8v3.9h2.7
	v-4.7C688.5,362.9,688,361,684.7,361"/>
<path class="st1" d="M701.5,367.4c-1.1,0.3-2.3,0.5-3.4,0.5c-2.8,0-4.4-1.5-4.4-3.7s1.7-3.7,4.2-3.8c1,0,2,0.1,2.9,0.3l1.1-1.6
	c-1.4-0.3-2.8-0.5-4.2-0.5c-4.5,0-7.2,2.3-7.2,5.6c0,3.8,3.6,5.4,7.3,5.5c1.3,0,2.6-0.1,3.9-0.4V367.4"/>
<polyline class="st1" points="627.4,366.4 624.7,358.8 619.7,358.8 619.7,369.5 622.7,369.5 622.7,361 622.9,361 626,369.5 
	628.9,369.5 632,361 632.2,361 632.2,369.5 635.2,369.5 635.2,358.8 630.2,358.8 627.4,366.4 "/>
<path class="st1" d="M647.7,365.3c0-3-2.4-4.4-5.4-4.4s-5.4,1.5-5.4,4.4s2.4,4.4,5.4,4.4S647.7,368.2,647.7,365.3 M644.9,365.3
	c-0.1,1.4-1.3,2.5-2.7,2.4s-2.5-1.3-2.4-2.7c0.1-1.4,1.2-2.4,2.6-2.4c1.3-0.1,2.5,0.9,2.6,2.2C644.9,365,644.9,365.1,644.9,365.3
	L644.9,365.3z"/>
<path class="st1" d="M661.2,367.8c-1.3,0-2.3-1-2.3-2.3c0-0.1,0-0.1,0-0.2c-0.2-1.3,0.7-2.4,2-2.6c0.1,0,0.2,0,0.4,0
	c1.6,0,2.3,1.1,2.3,2.6c0.1,1.3-0.8,2.4-2.1,2.5C661.4,367.8,661.3,367.8,661.2,367.8 M663.7,361.2v0.8l0,0c-0.8-0.7-1.9-1.1-3-1
	c-2.3-0.2-4.3,1.6-4.4,3.9c0,0.1,0,0.3,0,0.4c-0.2,2.2,1.5,4.1,3.7,4.3c0.2,0,0.4,0,0.5,0c1.1,0.1,2.2-0.3,3.1-1.1l0,0v0.4
	c0,1.3-0.5,2.5-3.1,2.5c-1.1,0-2.3-0.2-3.3-0.7v1.9c1.2,0.4,2.4,0.5,3.7,0.5c4.3,0,5.3-2.3,5.3-4.6v-7.3L663.7,361.2z"/>
<path class="st1" d="M674.4,367.2c-0.7,0.5-1.6,0.8-2.5,0.9c-0.9,0-1.5-0.3-1.5-1.1c0-1,1.5-1.2,3.1-1.2h0.9V367.2 M677,364.2
	c0-2.1-1.3-3.2-4.3-3.2c-1.2,0-2.5,0.1-3.6,0.5v1.6c1-0.3,2-0.5,3-0.5c1.3,0,2.4,0.2,2.4,1.8h-1.3c-1.2,0-2.3,0.1-3.5,0.4
	c-1.1,0.2-1.8,1.1-1.9,2.2c0,1.9,1.7,2.6,3.6,2.6c1.1,0.1,2.3-0.3,3.1-1l0,0v0.8h2.4L677,364.2z"/>
<path class="st1" d="M721,367.2c-0.7,0.5-1.6,0.8-2.5,0.9c-0.9,0-1.5-0.3-1.5-1.1c0-1,1.5-1.2,3.1-1.2h0.9V367.2 M723.6,364.2
	c0-2.1-1.3-3.2-4.3-3.2c-1.2,0-2.4,0.1-3.6,0.5v1.6c1-0.3,2-0.5,3-0.5c1.3,0,2.4,0.2,2.4,1.8h-1.3c-1.2,0-2.3,0.1-3.5,0.4
	c-1.1,0.2-1.8,1.1-1.9,2.2c0,1.9,1.7,2.6,3.6,2.6c1.1,0.1,2.3-0.3,3.1-1l0,0v0.8h2.4L723.6,364.2z"/>
<path class="st1" d="M601.1,358.8v6.5c0,1.5-0.7,2.4-2.2,2.4c-0.8,0-1.6-0.1-2.4-0.2v2c1,0.1,1.9,0.2,2.9,0.2c3,0,4.8-1.6,4.8-4
	v-6.9L601.1,358.8"/>
<path class="st1" d="M742.6,367.6c-0.9,0.3-1.8,0.4-2.8,0.4c-1.7,0-2.9-0.6-3-2h6.8c0-0.4,0-0.8,0-1.3c-0.2-2.1-1.5-3.7-4.6-3.7
	c-2.3-0.2-4.4,1.5-4.6,3.8c0,0.2,0,0.4,0,0.6c0,3.1,2.3,4.3,5.3,4.3c1,0,2-0.1,3-0.4L742.6,367.6 M739.2,362.6c1-0.1,1.8,0.6,2,1.6
	c0,0.1,0,0.3,0,0.4h-4.4C736.8,363.4,737.9,362.5,739.2,362.6C739.1,362.6,739.1,362.6,739.2,362.6L739.2,362.6z"/>
<path class="st1" d="M729.5,361c-2,0-4.1,0.6-4.1,2.5c0,1.6,1.4,2.1,2.9,2.5s2.2,0.5,2.2,1.1s-0.6,0.9-2,0.9c-1,0-2-0.2-3-0.6v1.8
	c1.1,0.3,2.2,0.4,3.4,0.4c2.3,0,4.3-0.6,4.3-2.6c0-1.6-1.2-2.2-3-2.7c-1.4-0.3-2.1-0.5-2.1-1s0.7-0.8,1.8-0.8c0.8,0,1.5,0.1,2.3,0.4
	l1-1.4C732.1,361.2,730.8,361,729.5,361"/>
<path class="st1" d="M654.8,361c-1.1-0.1-2.2,0.5-2.8,1.4l0,0v-1.3h-2.5v8.3h2.7v-4c0-0.6,0.1-1.2,0.3-1.7c0.3-0.5,0.8-0.8,1.4-0.9
	c0.4-0.1,0.9,0,1.3,0.2l1.2-1.8C655.9,361.1,655.3,361,654.8,361"/>
<path class="st1" d="M755.2,355.3c-0.3,0-0.6,0.3-0.6,0.6v4.4h11.5l-5.2-5L755.2,355.3"/>
<path class="st1" d="M766.5,361.6c0-0.3-0.3-0.6-0.6-0.6h-4.3v11.5l5-5.2L766.5,361.6"/>
<path class="st1" d="M760.2,372.9c0.3,0,0.6-0.3,0.6-0.6v-4.4h-11.5l5.2,5L760.2,372.9"/>
<path class="st1" d="M748.9,366.6c0,0.3,0.3,0.6,0.6,0.6h4.3v-11.5l-5,5.2L748.9,366.6"/>
<path class="st1" d="M942.2,341.5l-6.9,14.8l-2.7-5.6h-2.8l4.3,9.2h2.3l8.6-18.4H942.2L942.2,341.5z"/>
<path class="st1" d="M868.6,344.2h5.6v5h-5.6V344.2z M824.4,369h5.9l6.4-18.3H831l-3.6,11.8h-0.1l-3.6-11.8H818L824.4,369z
	 M845,354.1c2,0,3.3,1.5,3.5,3.6h-7.5C841.5,355.6,842.7,354.1,845,354.1 M845.3,365.5c-2.5,0-4-1.6-4.3-4.1h13.2
	c0-3.9-1-7.1-3.2-9.1c-1.7-1.5-3.9-2.3-6.2-2.2c-5.5,0-9.3,4.2-9.3,9.7s3.7,9.7,9.7,9.7c2,0.1,4-0.5,5.6-1.6c1.5-1,2.6-2.5,3.1-4.3
	h-5.4C848,364.8,846.7,365.6,845.3,365.5 M855.6,369h5.6v-8.4c0-3.8,2.3-5.5,5.8-5h0.1v-4.8c-0.4-0.1-0.8-0.2-1.2-0.1
	c-2.2,0-3.7,1-4.9,3.1h-0.1v-3h-5.3V369z M868.6,369h5.6v-18.3h-5.6V369z M875.7,369h15.7v-4.4h-8.8v-0.1l8.5-9.5v-4.3h-15.3v4.4
	h8.6v0.1l-8.6,9.6L875.7,369L875.7,369z M901.3,365.4c-2.7,0-4-2.2-4-5.6s1.4-5.6,4-5.6s4.1,2.2,4.1,5.6S904,365.4,901.3,365.4
	 M901.3,350.1c-5.4,0-9.7,4.4-9.7,9.7c0,5.4,4.4,9.7,9.7,9.7c5.4,0,9.7-4.4,9.7-9.7c0.2-5.2-3.8-9.5-9-9.7
	C901.9,350.1,901.6,350.1,901.3,350.1 M912.3,369h5.6v-10.2c0-2.3,1.4-4,3.4-4s2.9,1.4,2.9,3.3V369h5.6v-12c0-4-2.4-6.9-6.4-6.9
	c-2.3-0.1-4.4,1.1-5.6,3h-0.1v-2.4h-5.4L912.3,369L912.3,369z"/>
</svg>
