<svg xmlns="http://www.w3.org/2000/svg" viewBox="0 0 926.35 154.35"><defs><style>.a{fill:#f1fbdd;}.b{fill:none;}</style></defs><path class="a" d="M262.35,2V6a30.7,30.7,0,0,0-10,1.93,40.25,40.25,0,0,0-10.63,6.66Q236.91,18.75,228.11,30L199.22,67l31.25,46.6q13,19.32,19.27,24.42t15.94,5.64v4H203.2v-4q6.23-.11,9.23-1.29a8.68,8.68,0,0,0,3.7-2.95,6.76,6.76,0,0,0,1.45-4,13.5,13.5,0,0,0-1-4.93q-.75-1.83-5.91-9.45L186,83.6l-30.49,39.08a59.27,59.27,0,0,0-5.8,8.32,10.29,10.29,0,0,0-1,4.34,6.92,6.92,0,0,0,2.9,5.69q2.91,2.26,11.06,2.58v4H2v-4H7.15a20.34,20.34,0,0,0,9.77-2.47A9,9,0,0,0,21.59,136q1.25-3.44,1.24-14.07V27.34q0-13.86-2.79-17.07Q16.17,6,7.15,6H2V2H181.3V6q-8.6.33-11.76,2.79t-3.17,5.48q0,4,5.16,11.59l22.33,33.39,25.87-32.74a55.69,55.69,0,0,0,5.53-7.95,10.12,10.12,0,0,0,1-4.4,6.44,6.44,0,0,0-1.29-4A8.6,8.6,0,0,0,220.91,7c-1.65-.61-5-1-10.2-1V2h51.64M111.62,33.89q-2.27-11.49-5-15.79a17.08,17.08,0,0,0-8.1-6.54Q94.23,9.94,83.38,9.94H43.44V45.27h16q12.45,0,16.64-3.76,5.58-4.93,6.22-17.39h4V74.79h-4q-1.5-10.62-3-13.63a13.41,13.41,0,0,0-6.34-5.91q-4.39-2.14-13.52-2.15h-16v70.22q0,9.66.86,11.76a6.7,6.7,0,0,0,3,3.32q2.14,1.24,8.16,1.24H80.16q12.35,0,17.93-1.72a26.77,26.77,0,0,0,10.74-6.76q6.65-6.66,13.63-20.08h4.29l-10.93,31.77a27.4,27.4,0,0,0,4.71-1.49,54.69,54.69,0,0,0,12.67-7.52q6-4.72,13.74-14.49L181.3,76,152.63,34q-11.7-17.07-19.86-22.38A35.56,35.56,0,0,0,114.4,6l1.4,27.89h-4.18M264.35,0H208.71V8l2,0c6.11.09,8.56.54,9.54.9a6.57,6.57,0,0,1,3.14,2.45,4.47,4.47,0,0,1,.92,2.81,8.12,8.12,0,0,1-.83,3.55c-.42.89-1.68,2.93-5.3,7.57L194,55.83l-20.8-31.11c-4-5.89-4.82-8.95-4.82-10.48,0-1.37.79-2.64,2.4-3.9,1.21-.94,4-2.12,10.6-2.37l1.93-.07V0H0V8H7.15c5.4,0,9.23,1.22,11.4,3.64.84,1,2.28,4.33,2.28,15.73v94.58c0,8.5-.61,12-1.12,13.39a7,7,0,0,1-3.68,4h0l0,0a18.55,18.55,0,0,1-8.83,2.23H0v8H164.72v-7.89l-1.92-.08c-6.21-.24-8.82-1.31-9.91-2.15a4.94,4.94,0,0,1-2.13-4.12,8.17,8.17,0,0,1,.79-3.51c.39-.86,1.68-2.93,5.56-7.93L185.88,87l23.16,35c4.4,6.5,5.48,8.5,5.73,9.11a11.61,11.61,0,0,1,.81,4.17,4.76,4.76,0,0,1-1.06,2.85,6.69,6.69,0,0,1-2.85,2.28,26.56,26.56,0,0,1-8.51,1.14l-2,0v7.93h66.48v-7.86l-1.89-.11c-6-.33-11-2.07-14.79-5.19-4-3.26-10.36-11.33-18.87-24L201.69,67l28-35.79c5.76-7.37,10.26-12.48,13.37-15.18a38.45,38.45,0,0,1,10.1-6.33A28.81,28.81,0,0,1,262.46,8l1.89-.1V0ZM110,35.89h7.94l-.11-2.1L116.51,8.14a33.27,33.27,0,0,1,15.17,5.14C136.87,16.67,143.36,24,151,35.13l27.83,40.75-33.44,42.23c-5,6.36-9.54,11.12-13.41,14.16a53.09,53.09,0,0,1-12.21,7.24l-.77.32,9.67-28.1.91-2.65h-8.31l-.56,1.08c-4.54,8.72-9,15.31-13.28,19.58A24.86,24.86,0,0,1,97.5,136c-3.51,1.08-9.35,1.63-17.34,1.63H55.47c-4.77,0-6.54-.61-7.16-1a4.75,4.75,0,0,1-2.16-2.35c-.21-.52-.71-2.63-.71-11V55.1h14c5.74,0,10,.66,12.65,1.95a11.42,11.42,0,0,1,5.43,5c.61,1.22,1.6,4.48,2.8,13l.25,1.72h7.71V22.12H80.39L80.29,24c-.4,7.71-2.27,13.09-5.56,16-1.66,1.49-5.65,3.26-15.31,3.26h-14V11.94H83.38c6.92,0,11.77.5,14.4,1.47a15.32,15.32,0,0,1,7.16,5.77c1.68,2.64,3.27,7.72,4.71,15.09l.32,1.62Z"/><line class="b" x1="926.35" y1="2" x2="926.35" y2="154.35"/></svg>