<svg xmlns="http://www.w3.org/2000/svg" viewBox="0 0 927.1 156.35"><defs><style>.a{fill:#f1fbdd;}.b{fill:none;}</style></defs><path class="a" d="M380.64,2V52.35h-4q-1.94-14.49-6.92-23.08a36,36,0,0,0-14.23-13.64A42.55,42.55,0,0,0,346.76,12a16.11,16.11,0,0,0-4.13,4.45q-2.25,3.33-2.25,15.46v31q3.11,1.76,6.55,3.6,20.4,11,27.86,16.81a40.91,40.91,0,0,1,11.49,13.79,36.43,36.43,0,0,1,4,16.64q0,16.55-12.83,28.51t-33,12a69.41,69.41,0,0,1-11.92-1,121.68,121.68,0,0,1-13.79-3.92c-1.43-.46-2.72-.86-3.93-1.22-8,4.13-18.12,6.22-30.49,6.22q-23.83,0-36.18-8.27a45.12,45.12,0,0,1-12.44-12.3l-5.89,17.13H117.62v-4h5.15a20.34,20.34,0,0,0,9.77-2.47,9.05,9.05,0,0,0,4.68-5.15q1.23-3.44,1.23-14.07V117a70.41,70.41,0,0,1-8.26,11.14q-20.72,22.77-63.13,22.76H2v-4H7.48q9.23,0,13.09-5.91,2.37-3.54,2.37-15.89v-94q0-13.63-3-17.08Q15.75,9.31,7.48,9.3H2v-4H61.26q32.64,0,49.66,7.41T138.3,37.43l.15.28v-7q0-13.86-2.79-17.07-3.87-4.3-12.89-4.3h-5.15v-4H269v4H263.4q-9,0-12.89,5.69-2.69,3.87-2.68,16.11V94.55A139.56,139.56,0,0,0,249.39,114q1.55,11,5.63,17.07a30.67,30.67,0,0,0,11.76,10.09q7.68,4,18.84,4a60.34,60.34,0,0,0,9.35-.73V104.32h4q2.79,15.68,7.52,23.45a32.36,32.36,0,0,0,8.2,9,31.46,31.46,0,0,0,11.92-13.79q4.13-9.7,4.13-32.9V84.18c-9.59-5.53-16.64-10.06-21.09-13.58a45,45,0,0,1-12-13.74,34.08,34.08,0,0,1-4.08-16.53q0-15.67,12-27T336.2,2q11.6,0,24.58,5.69,6,2.68,8.48,2.68a6.42,6.42,0,0,0,4.57-1.66C375,7.6,376,5.36,376.67,2h4M330.71,57.19V31.1q0-13.63-3-17.08a13.47,13.47,0,0,0-1.77-1.61,24.17,24.17,0,0,0-8,5q-7.29,6.81-7.3,15.51a18.36,18.36,0,0,0,4.62,12.13q4.15,5,15.45,12.14M159.06,48.6h16q12.45,0,16.64-3.76,5.58-4.94,6.23-17.39h4V78.12h-4q-1.51-10.64-3-13.63a13.41,13.41,0,0,0-6.34-5.91q-4.4-2.14-13.52-2.15h-16v70.22q0,9.66.86,11.75a6.73,6.73,0,0,0,3,3.33q2.15,1.25,8.16,1.24h24.69q12.35,0,17.93-1.72a26.77,26.77,0,0,0,10.74-6.76,58,58,0,0,0,7-8.73c-.26-.64-.54-1.25-.78-1.9-2.69-7.37-3.43-18.33-3.43-35.86V37.11a26.23,26.23,0,0,0-5-15.68,17.23,17.23,0,0,0-8.11-6.55q-4.29-1.61-15.14-1.61H159.06V48.6M66.42,143.4q24.9,0,41.33-17.5t16.43-47.46q0-30.16-16.43-47.56T65.56,13.49a91.44,91.44,0,0,0-22,3.11V140.39q13.64,3,22.87,3m275.79,2.47q13.41,0,21.2-7.09T371.2,122a22.68,22.68,0,0,0-3-10.84,32.37,32.37,0,0,0-9.18-10.2q-3.69-2.85-18.68-11.34V91q0,21.9-4.35,34a40.2,40.2,0,0,1-12.32,17.09,45.29,45.29,0,0,0,18.5,3.8M382.64,0h-7.59l-.34,1.58c-.82,3.86-1.76,5.21-2.25,5.67a4.43,4.43,0,0,1-3.2,1.12c-.76,0-2.77-.32-7.66-2.51C352.71,2,344.17,0,336.2,0c-12.86,0-23.61,4-32,11.87s-12.66,17.48-12.66,28.46a36.31,36.31,0,0,0,4.32,17.49,47.3,47.3,0,0,0,12.49,14.35c4.33,3.42,11.17,7.84,20.33,13.16V90c0,15.11-1.33,25.92-4,32.12a29.18,29.18,0,0,1-10,12.08,30,30,0,0,1-6.57-7.5c-3-4.95-5.45-12.61-7.26-22.77l-.29-1.65H293v40.32a56.34,56.34,0,0,1-7.35.47c-7.09,0-13.12-1.26-17.92-3.74a28.76,28.76,0,0,1-11-9.43c-2.54-3.81-4.33-9.28-5.32-16.24a138.52,138.52,0,0,1-1.54-19.15V31.1c0-9.6,1.26-13.44,2.33-15,2.21-3.25,5.88-4.83,11.24-4.83H271v-8H115.62v8h7.15c5.4,0,9.23,1.22,11.4,3.63.84,1,2.28,4.33,2.28,15.74V31A60,60,0,0,0,111.72,10.9c-11.55-5-28.52-7.57-50.46-7.57H0v8H7.48c4.95,0,8.54,1.33,11,4,.93,1.06,2.51,4.54,2.51,15.75v94c0,10.22-1.27,13.65-2,14.79-2.21,3.37-5.95,5-11.43,5H0v8H67.06c28.73,0,50.47-7.88,64.61-23.41,1.7-1.88,3.29-3.84,4.78-5.86v1.61c0,8.49-.61,12-1.12,13.39a7,7,0,0,1-3.68,4h0l0,0a18.55,18.55,0,0,1-8.83,2.23h-7.15v8H231.24l.47-1.35L236.36,138A48,48,0,0,0,247,147.74c8.52,5.71,21.07,8.61,37.29,8.61,12.21,0,22.53-2,30.67-6.08,1.05.32,2.08.65,3.13,1a122.79,122.79,0,0,0,14.1,4,72.73,72.73,0,0,0,12.23,1c13.92,0,25.49-4.21,34.38-12.51s13.47-18.42,13.47-30a38.42,38.42,0,0,0-4.25-17.54,43.22,43.22,0,0,0-12-14.47c-5-4-14.52-9.67-28.15-17-1.86-1-3.7-2-5.5-3V32c0-10,1.19-13.28,1.91-14.34a14.74,14.74,0,0,1,2.89-3.36,40.3,40.3,0,0,1,7.38,3.14A34.26,34.26,0,0,1,368,30.28c3.18,5.47,5.42,13,6.67,22.34l.23,1.73h7.72V0ZM328.71,53.52c-5.67-3.77-9.67-7-11.91-9.74a16.34,16.34,0,0,1-4.16-10.86c0-5.27,2.18-9.86,6.67-14a22.41,22.41,0,0,1,6.28-4.15c.23.21.43.42.62.63.93,1.06,2.5,4.54,2.5,15.75V53.52ZM161.06,15.27H199c6.93,0,11.77.5,14.4,1.47a15.32,15.32,0,0,1,7.16,5.77l.25.39a23.93,23.93,0,0,1,4.41,14.21V88c0,16.56.59,28.45,3.55,36.54.13.35.26.67.4,1a54.88,54.88,0,0,1-6.14,7.54,24.86,24.86,0,0,1-9.91,6.27c-3.51,1.08-9.35,1.63-17.34,1.63H171.09c-4.77,0-6.54-.61-7.16-1a4.79,4.79,0,0,1-2.16-2.35c-.21-.53-.71-2.63-.71-11V58.43h14c5.74,0,10,.66,12.65,2a11.37,11.37,0,0,1,5.43,5c.61,1.22,1.6,4.48,2.81,13l.24,1.72h7.71V25.45H196l-.1,1.89c-.4,7.71-2.27,13.09-5.56,16-1.66,1.49-5.65,3.26-15.31,3.26h-14V15.27ZM45.55,18.17a87.3,87.3,0,0,1,20-2.68c16.52,0,30.23,5.64,40.74,16.76S122.18,59,122.18,78.44s-5.35,34.86-15.89,46.09S82.37,141.4,66.42,141.4a104.28,104.28,0,0,1-20.87-2.62V18.17ZM327.44,141.4a41,41,0,0,0,10.47-15.74c2.82-7.84,4.32-18.79,4.46-32.57,8.14,4.66,13.34,7.85,15.47,9.48a30.44,30.44,0,0,1,8.64,9.57A20.84,20.84,0,0,1,369.2,122c0,5.91-2.34,10.9-7.14,15.27s-11.46,6.57-19.85,6.57a44,44,0,0,1-14.77-2.47Z"/><line class="b" x1="927.1" y1="2" x2="927.1" y2="154.35"/></svg>