<svg xmlns="http://www.w3.org/2000/svg" viewBox="0 0 932.73 160.41"><defs><style>.a{fill:#f1fbdd;}.b{fill:none;}</style></defs><path class="a" d="M135.15,2q28.35,0,49.12,21.53A73,73,0,0,1,196.9,41.11V30.56q0-9.66-2.15-14a12,12,0,0,0-5.53-5.21q-4-2.09-12.94-2.09v-4h41.23l52.82,113.91,52-113.91h94.58q19.55,0,30.82,4a42.48,42.48,0,0,1,19,13.59,34.92,34.92,0,0,1,7.73,22.65q0,17.82-11.76,29T429.44,85.74A94,94,0,0,1,418.06,85q-6.12-.75-13.09-2.25v42.4q0,13.76,3,17.08,4.08,4.72,12.35,4.72H437c6.67,0,10-2.47,11.81-4.19q5.48-5.15,12.13-20.93l41.91-98.08q-5.88-6.81-9-9.07a35.58,35.58,0,0,0-9.61-4.4,34,34,0,0,0-9.45-1v-4h39.51l89,109.19v-84q0-13.42-3-16.75-4-4.51-12.56-4.51h-5v-4h59.48v4H639a18.82,18.82,0,0,0-9.29,2.36,7.64,7.64,0,0,0-4.24,7.09q0,3.87,6.55,14l30.38,46.91,28.56-44.87q6.44-10.09,6.44-15a9.56,9.56,0,0,0-1.55-5.36,10.47,10.47,0,0,0-4.46-3.71q-2.9-1.34-8.7-1.34v-4h50.79v4h-2.8q-2.79,0-8.15,2.47a31.84,31.84,0,0,0-9.77,7.09q-4.41,4.61-10.85,15l-35.1,55.29v36.5q0,13.42,3,16.75,4.08,4.51,12.88,4.51h4.73v4H625.54v-4h5.15q9.24,0,13.1-5.58,2.36-3.44,2.36-15.68V91.22l-33.39-51v113H608.9L548.19,79.12l18.4,44q6.12,14.61,11.12,19t13.9,4.89v4H301.68v-4h5.16q9.33,0,13.09-5.58,2.37-3.44,2.37-15.68V28.41l-56.15,122.5H262.6L206.35,28.41v97.27q0,13.42,2.89,16.75,4,4.51,12.57,4.51H227v4H176.28v-4h5.16q9.23,0,13.1-5.58,2.36-3.44,2.36-15.68V114.26a74,74,0,0,1-12.79,18.08q-20.94,21.9-50.68,21.9a69.17,69.17,0,0,1-30.92-6.84q-16.47,11-39.61,11-20.08,0-34.68-9T2.67,120.94L6,118.79q13,18,23.83,24.11t25,6.06a54.89,54.89,0,0,0,29.05-7.73,48.58,48.58,0,0,0,4.52-3.16c-1.88-1.62-3.72-3.34-5.49-5.2Q62.48,111.51,62.47,77.58T85.13,21.93c-.33-.22-.64-.47-1-.68A48.22,48.22,0,0,0,58,13.9q-17.28,0-29.63,9.77t-19,32H6L9.32,6.17h3.76a16.76,16.76,0,0,0,4,8.05,7.12,7.12,0,0,0,5.05,2q1.93,0,6.44-2.36A68.62,68.62,0,0,1,59.68,6.17a72.74,72.74,0,0,1,34.38,8.39l.17-.13a67.82,67.82,0,0,1,28-11.38,78.15,78.15,0,0,1,13-1M358.48,146.94H369q9.22,0,13.21-6,2.15-3.33,2.14-15.79v-94q0-13.76-2.9-17.08Q377.27,9.31,369,9.3H358.48q-9.35,0-13.21,5.58-2.36,3.44-2.36,15.68v95.12q0,13.42,3,16.75,4,4.51,12.56,4.51m-225.26-.32q20.5,0,33.87-16t13.37-50.46q0-37.36-14.71-55.72Q153.95,9.85,133.11,9.84a46.23,46.23,0,0,0-9.28.9,36.9,36.9,0,0,0-17.69,9c-.55.49-1.07,1-1.6,1.56A71.58,71.58,0,0,1,124,44.5a83.53,83.53,0,0,1,9.77,40q0,27.06-14.82,47a71,71,0,0,1-7.67,8.77,38.57,38.57,0,0,0,22,6.28M422.57,78.76q11.18,0,19.27-8.64T450,47.74a40.39,40.39,0,0,0-3.86-17.56,26.68,26.68,0,0,0-11-12.13A32,32,0,0,0,419,14a64.06,64.06,0,0,0-14.06,2V76.62q5.68,1.06,10.09,1.61a62.85,62.85,0,0,0,7.51.53M98.68,126.87a53.63,53.63,0,0,0,4.26-7.86q6.34-14.51,6.34-34.25,0-23.94-6.71-40.05a62.36,62.36,0,0,0-6.44-11.82q-9.06,17-9.08,44.26,0,31.13,11.63,49.72M482.85,94.22h20.62V46.35L482.85,94.22m30.06,0h20l-20-47.57V94.22m15.46,52.72h5.8q8.7-.44,11.75-2.9a7.46,7.46,0,0,0,3.07-6q0-4.72-4.3-14.93l-8.8-20.93h-23v23.51q0,13.42,2.9,16.75c2.72,3,9.36,4.51,12.56,4.51m-44.89,0h4.42q9.35,0,13.2-5.58,2.37-3.44,2.37-15.68V102.17h-24l-9.88,23Q466,133.63,466,137.81a7.36,7.36,0,0,0,3.17,5.85c2.11,1.69,11.55,3.28,14.32,3.28M135.15,0a81.06,81.06,0,0,0-13.28,1.07,70.29,70.29,0,0,0-28,11.16A75,75,0,0,0,59.68,4.17a70.89,70.89,0,0,0-32,7.94c-3.7,1.94-5.11,2.15-5.54,2.15a5.13,5.13,0,0,1-3.64-1.46A14.92,14.92,0,0,1,15,5.72l-.36-1.55H7.45L7.33,6,4,55.53l-.14,2.13h7l.43-1.42c4.3-14.35,10.46-24.78,18.33-31S47,15.9,58,15.9a46.61,46.61,0,0,1,24,6.36C67.7,36.82,60.47,55.41,60.47,77.58c0,23,7.07,42.12,21,56.68,1.2,1.26,2.47,2.49,3.76,3.68-.82.59-1.62,1.11-2.39,1.58a53.09,53.09,0,0,1-28,7.44,48.57,48.57,0,0,1-24-5.81c-6.94-3.88-14.74-11.8-23.19-23.53l-1.11-1.54-1.6,1-3.33,2.15-1.58,1,.92,1.64c7.44,13.19,16.27,23,26.25,29.17s22,9.32,35.73,9.32c15.29,0,28.66-3.61,39.76-10.72a71.78,71.78,0,0,0,30.77,6.55c20.31,0,37.84-7.58,52.13-22.52a78.08,78.08,0,0,0,9.34-11.88v3.84c0,10.11-1.26,13.45-2,14.54-2.2,3.18-5.95,4.72-11.45,4.72h-7.16v8H229v-8h-7.15c-5.1,0-8.83-1.29-11.07-3.83-.89-1-2.39-4.4-2.39-15.43V37.56l52.44,114.19.53,1.16h6.11l.53-1.17L320.3,37.57v88.11c0,10.11-1.26,13.45-2,14.54-2.14,3.18-5.89,4.72-11.45,4.72h-7.16v8H593.61v-7.85l-1.88-.12c-5.46-.33-9.74-1.8-12.71-4.39s-6.64-8.82-10.58-18.22L555.32,91l52,63.55.6.73h6.81V46.94l29.39,44.87v33.87c0,10.11-1.26,13.45-2,14.54-2.19,3.18-5.94,4.72-11.45,4.72h-7.15v8h65.84v-8h-6.73c-5.25,0-9.08-1.3-11.4-3.85-.92-1-2.48-4.4-2.48-15.41V89.76L703.56,35c4.22-6.81,7.78-11.76,10.6-14.72a30.06,30.06,0,0,1,9.16-6.65c4.11-1.89,6.25-2.29,7.32-2.29h4.8v-8H680.65v8h2c3.56,0,6.2.39,7.86,1.16a8.42,8.42,0,0,1,3.63,3,7.54,7.54,0,0,1,1.22,4.26c0,2-1.06,6-6.12,14L662.35,75.92l-28.69-44.3c-5.42-8.35-6.23-11.65-6.23-12.87a5.65,5.65,0,0,1,3.21-5.34A16.9,16.9,0,0,1,639,11.3h5.22v-8H580.7v8h7c5.1,0,8.82,1.29,11.06,3.83.94,1,2.5,4.42,2.5,15.43V108.9L515.86,4.06l-.6-.73H472.8v8h2a32.61,32.61,0,0,1,8.85.88,33.66,33.66,0,0,1,9,4.11,56.38,56.38,0,0,1,7.84,7.82L459.11,121c-4.31,10.22-8.24,17-11.67,20.27-1.63,1.57-4.48,3.64-10.43,3.64H420.32c-4.95,0-8.49-1.32-10.83-4-1-1.06-2.52-4.48-2.52-15.77V85.2c3.81.76,7.45,1.36,10.85,1.78a97.83,97.83,0,0,0,11.62.76c14.78,0,26.43-3.94,34.61-11.71s12.38-18,12.38-30.44a37,37,0,0,0-8.18-23.91A44.58,44.58,0,0,0,448.37,7.47c-7.7-2.75-18.29-4.14-31.49-4.14H321l-.53,1.17-50.16,110-51-110-.54-1.16H174.28v8h2c5.59,0,9.63.63,12,1.87a10,10,0,0,1,4.65,4.3c1.3,2.6,2,7,2,13.09v3.1a77,77,0,0,0-9.19-11.52C171.53,7.45,154.52,0,135.15,0ZM358.48,144.94c-5.1,0-8.82-1.29-11.06-3.83-.95-1.05-2.51-4.42-2.51-15.43V30.56c0-10.11,1.26-13.45,2-14.54,2.2-3.17,6-4.72,11.56-4.72H369c5,0,8.54,1.33,11,4,.88,1,2.39,4.44,2.39,15.75v94c0,10.33-1.14,13.64-1.83,14.7-2.26,3.43-6,5.1-11.52,5.1H358.48ZM107.56,21.11a35,35,0,0,1,16.67-8.41,44.52,44.52,0,0,1,8.88-.86c13.37,0,23.54,4.53,31.09,13.86,9.46,11.81,14.26,30.14,14.26,54.46,0,22.39-4.34,38.93-12.9,49.18s-19.35,15.28-32.34,15.28A37.41,37.41,0,0,1,114.47,140a74.11,74.11,0,0,0,6.08-7.2c10.09-13.6,15.21-29.82,15.21-48.22a85.9,85.9,0,0,0-10-41,74.17,74.17,0,0,0-18.19-22.44ZM407,17.66A57.53,57.53,0,0,1,419,16a30.21,30.21,0,0,1,15.12,3.77A24.88,24.88,0,0,1,444.28,31,38.43,38.43,0,0,1,448,47.74c0,8.59-2.54,15.66-7.56,21s-10.89,8-17.82,8a60.81,60.81,0,0,1-7.27-.52c-2.46-.3-5.25-.73-8.33-1.29V17.66ZM98.71,123c-6.41-11.71-9.66-27.11-9.66-45.83,0-16.14,2.46-29.66,7.32-40.25a62.62,62.62,0,0,1,4.35,8.58c4.35,10.44,6.56,23.66,6.56,39.28,0,12.83-2.08,24.08-6.17,33.45a49.48,49.48,0,0,1-2.4,4.77ZM485.89,92.22l15.58-36.17V92.22Zm29,0V56.58l15,35.64Zm0,12h19.65l8.29,19.71c2.74,6.53,4.14,11.28,4.14,14.15a5.51,5.51,0,0,1-2.32,4.45c-1.16.94-3.94,2.13-10.55,2.46h-5.75c-3.09,0-9-1.5-11.08-3.85-.87-1-2.38-4.38-2.38-15.41V104.17Zm-34.07,0h20.63v21.51c0,10.11-1.26,13.45-2,14.54-2.2,3.18-6,4.72-11.56,4.72h-4.42c-2.91,0-11.58-1.65-13.07-2.84a5.41,5.41,0,0,1-2.42-4.29c0-2.5,1.18-6.5,3.49-11.87l9.36-21.77Z"/><line class="b" x1="932.73" y1="2" x2="932.73" y2="154.35"/></svg>