<svg xmlns="http://www.w3.org/2000/svg" viewBox="0 0 927.21 156.24"><defs><style>.a{fill:#f1fbdd;}.b{fill:none;}</style></defs><path class="a" d="M372.26,2l3.33,49.49h-3.33q-6.66-22.22-19-32a45.67,45.67,0,0,0-4.91-3.34,9.47,9.47,0,0,0-.43.91c-.86,2.32-1.29,7.07-1.29,14.22V73h67.64V31.29q0-11.16-1.4-14.71A9.63,9.63,0,0,0,408.35,12a19.72,19.72,0,0,0-9.77-2.58h-5.15v-4h156l61,74.8,26.78-62.64a9.14,9.14,0,0,0-1.76-3.68q-4-4.51-12.56-4.51h-5.05v-4h50.68v4h-5.15c-4.88,0-8.62,1.19-11.25,3.53l46.14,110.27q6.12,14.61,11.11,18.95T723.23,147v4H665.79v-4q8.7-.43,11.75-2.9a7.49,7.49,0,0,0,3.07-6q0-4.71-4.3-14.92l-8.8-20.93H647.86v51.1H644l-35.94-43.9-6.79,15.77q-3.64,8.49-3.65,12.67a7.36,7.36,0,0,0,3.17,5.85q3.16,2.52,13.69,3.28v4h-221v-4h5.15q8.91,0,13-5.26,2.69-3.44,2.69-16.53V80.9H346.62v44.34q0,11.06,1.39,14.6c.09.2.22.39.32.59,1.16-.52,2.31-1.08,3.42-1.7q10.85-6.07,23.84-24.11l3.32,2.15Q368,136.21,353.36,145.22t-34.68,9A79,79,0,0,1,295.51,151v0H238.07v-4q8.7-.43,11.75-2.9a7.47,7.47,0,0,0,3.06-6q0-4.73-4.29-14.92l-8.8-20.94H183.42l-9.88,23q-3.64,8.47-3.65,12.66a6.72,6.72,0,0,0,.2,1.62h0a7,7,0,0,0,.54,1.37l.08.17a9.12,9.12,0,0,0,2.35,2.69q3.16,2.52,13.69,3.27h2.49v4H127.4v-4h5.15q9.34,0,13.1-5.58Q148,138,148,125.77V28.5L91.86,151H88.32L32.06,28.5v97.27q0,13.42,2.9,16.75,4,4.51,12.56,4.51h5.15v4H2v-4H7.15q9.24,0,13.1-5.58,2.37-3.44,2.36-15.68V30.65q0-9.66-2.14-14a12,12,0,0,0-5.53-5.2q-4-2.1-12.94-2.1v-4H43.23L96.05,119.33,148,5.42h41.23v4h-5.05q-9.33,0-13.2,5.58-2.37,3.45-2.36,15.68v82.42l47.43-111h3.76l28.56,68.26a81.91,81.91,0,0,1,9.21-30A70.69,70.69,0,0,1,284.49,12,72.67,72.67,0,0,1,321.9,2,68.62,68.62,0,0,1,353,9.73c3,1.58,5.15,2.36,6.44,2.36a7.12,7.12,0,0,0,5-2,16.72,16.72,0,0,0,4-8h3.76m78.29,145h10.3c6.52,0,10.38-1.75,13.1-5.26q2.58-3.44,2.58-16.53v-94q0-11.06-1.4-14.61a9.67,9.67,0,0,0-4.4-4.61,17.22,17.22,0,0,0-9.88-2.58h-10.3a17.67,17.67,0,0,0-9.77,2.47,9,9,0,0,0-4.67,5.21c-.83,2.32-1.24,7.07-1.24,14.22v93.95q0,11.06,1.4,14.6a9.59,9.59,0,0,0,4.4,4.61c3.15,1.72,4.69,2.58,9.88,2.58m62.27,0H523q9.35,0,13.21-5.58,2.35-3.44,2.36-15.68V24.53q-6.33-7.41-9.61-9.77a35.29,35.29,0,0,0-9.61-4.4c-1.71-.54-2.85-.94-7.37-.94-5.5.17-9.56,1.9-12.14,5.23q-2.68,3.44-2.69,16.54v94.05q0,11.06,1.4,14.6a9.54,9.54,0,0,0,4.51,4.61,19.7,19.7,0,0,0,9.77,2.58m-192.35-2.57a12,12,0,0,0,3-2.69q2.58-3.44,2.58-16.53V31.29q0-11.16-1.4-14.71a9.72,9.72,0,0,0-4.4-4.61,21.17,21.17,0,0,0-4.13-1.7,47.23,47.23,0,0,0-18.65,6.81Q285.72,24.45,279,40.54T272.3,80.59q0,19.75,6.34,34.25a47.43,47.43,0,0,0,19.05,22.22,53.17,53.17,0,0,0,22.78,7.4M186.75,94.32h50L212.09,35.48,186.75,94.32M563.47,147h4.69c3.28,0,10.49-2.47,12.27-4.19q5.49-5.16,12.14-20.94l8.8-20.6L548,36.12v89.65q0,13.42,2.9,16.75Q555,147,563.47,147m58.4-52.72h16.54V38.72L617,88.37l4.84,5.94m26,0H664.5L647.86,54.65V94.31m-9.45,20.3V102.26H628.34l10.07,12.35M374.13,0h-7.22l-.36,1.55a14.92,14.92,0,0,1-3.43,7.08,5.13,5.13,0,0,1-3.64,1.46c-.43,0-1.84-.21-5.51-2.13A70.88,70.88,0,0,0,321.9,0a75,75,0,0,0-38.42,10.31,73,73,0,0,0-27.65,29.07A83.68,83.68,0,0,0,247.47,63L221.66,1.32,221.15.09h-6.41l-.52,1.22-43.59,102V30.65c0-10.11,1.26-13.45,2-14.54,2.19-3.17,6-4.72,11.55-4.72h7.05v-8H146.73l-.54,1.17L96,114.54,45,4.58,44.5,3.42H0v8H2c5.59,0,9.63.63,12,1.87a10.11,10.11,0,0,1,4.66,4.3c1.29,2.6,1.94,7,1.94,13.09v95.12c0,10.11-1.26,13.45-2,14.55C16.41,143.49,12.66,145,7.15,145H0v8H54.67v-8H47.52c-5.1,0-8.82-1.29-11.06-3.83-.89-1-2.4-4.4-2.4-15.43V37.65L86.5,151.84,87,153h6.11l.53-1.16L146,37.67v88.1c0,10.11-1.26,13.45-2,14.55-2.14,3.17-5.88,4.71-11.45,4.71H125.4v8h65.84v-8h-4.42c-8.13-.59-11.29-1.87-12.51-2.84a7.08,7.08,0,0,1-1.82-2v0l0-.09v0l0,0a5,5,0,0,1-.38-1V139h0a4.18,4.18,0,0,1-.13-1.07c0-2.5,1.18-6.5,3.49-11.87l9.36-21.77h53.72L246.75,124c2.74,6.53,4.13,11.29,4.13,14.15a5.53,5.53,0,0,1-2.31,4.46c-1.17.94-3.95,2.13-10.6,2.45l-1.9.1V153h59.26a81.35,81.35,0,0,0,23.35,3.24c13.7,0,25.72-3.14,35.73-9.32s18.81-16,26.25-29.17l.92-1.64-1.58-1-3.33-2.15-1.6-1L374,113.45c-8.45,11.74-16.25,19.65-23.18,23.53l-1.32.7c-.44-2-.84-5.69-.84-12.44V82.9h63.64v42.34c0,10.79-1.42,14.22-2.26,15.3-2.35,3-6.08,4.49-11.42,4.49h-7.15v8h225v-7.84l-1.86-.13c-8.18-.58-11.36-1.87-12.58-2.84a5.44,5.44,0,0,1-2.42-4.29c0-2.51,1.18-6.5,3.49-11.88l5.48-12.75,33.87,41.36.6.73h6.81v-51.1h16.32L674.47,124c2.74,6.52,4.14,11.28,4.14,14.14a5.53,5.53,0,0,1-2.32,4.46c-1.17.94-3.95,2.13-10.6,2.46l-1.9.09V153h61.44v-7.86l-1.88-.11c-5.46-.33-9.74-1.81-12.71-4.4s-6.64-8.81-10.58-18.21L654.51,13.57a15.78,15.78,0,0,1,8.81-2.18h7.15v-8H615.79v8h7.05c5.1,0,8.82,1.29,11.06,3.83A6.09,6.09,0,0,1,635,17.46L609.84,76.4,551,4.16l-.6-.74H391.43v8h7.15a17.78,17.78,0,0,1,8.8,2.33A7.73,7.73,0,0,1,411,17.33c.56,1.44,1.25,5.05,1.25,14V71H348.62V31.29a64.67,64.67,0,0,1,.78-12.11c1,.63,1.81,1.26,2.61,1.89,7.87,6.22,14,16.65,18.33,31l.43,1.42h7l-.14-2.13L374.25,1.87,374.13,0Zm67.52,142.71a7.83,7.83,0,0,1-3.53-3.61c-.57-1.45-1.25-5-1.25-13.86V31.29c0-8.59.61-12.11,1.12-13.55a7,7,0,0,1,3.68-4.09h0l0,0a15.79,15.79,0,0,1,8.83-2.23h10.3a15.36,15.36,0,0,1,8.9,2.32,7.85,7.85,0,0,1,3.53,3.62c.56,1.44,1.25,5,1.25,13.86v94.05c0,10.81-1.37,14.25-2.18,15.33-2.42,3.12-5.86,4.46-11.5,4.46h-10.3c-4.65,0-5.88-.67-8.87-2.3l0,0ZM512.82,145a17.87,17.87,0,0,1-8.8-2.32,7.77,7.77,0,0,1-3.63-3.61c-.57-1.45-1.25-5-1.25-13.86v-94c0-10.8,1.42-14.22,2.26-15.31,2.21-2.85,5.68-4.3,10.6-4.46,4,0,5.06.32,6.59.8l.16,0a33.57,33.57,0,0,1,9,4.11c2,1.42,4.92,4.41,8.78,8.89v100.5c0,10.11-1.26,13.45-2,14.55-2.19,3.17-6,4.71-11.56,4.71ZM319.94,142.4a51.34,51.34,0,0,1-21.21-7.05A45.74,45.74,0,0,1,280.47,114c-4.09-9.37-6.17-20.62-6.17-33.45,0-15.62,2.21-28.84,6.56-39.28s10.22-17.87,17.63-22.53a45.46,45.46,0,0,1,17.43-6.47,19.83,19.83,0,0,1,3.31,1.4,7.78,7.78,0,0,1,3.52,3.62c.57,1.44,1.26,5.05,1.26,14v93.95c0,10.81-1.37,14.25-2.18,15.33a9.69,9.69,0,0,1-1.89,1.83ZM189.79,92.32l22.27-51.73,21.71,51.73ZM563.46,145c-5,0-8.76-1.3-11.07-3.85-.87-1-2.38-4.38-2.38-15.41v-84l49,59.91-8.33,19.49c-4.32,10.22-8.24,17-11.67,20.26-1.35,1.3-8,3.65-10.9,3.65Zm55.88-57,17.07-39.63V92.31H622.82l-3.48-4.26Zm30.52,4.26V64.59l11.63,27.72Zm-17.31,12h3.86V109l-3.86-4.73Z"/><line class="b" x1="927.21" y1="2" x2="927.21" y2="154.35"/></svg>