<svg xmlns="http://www.w3.org/2000/svg" viewBox="0 0 160.64 348.06"><defs><style>.a{fill:none;}.b{fill:#888888;}</style></defs><path class="a" d="M112.46,297.88" transform="translate(-23.21 -92.61)"/><rect class="b" x="60.51" y="338.42" width="1.67" height="1.43"/><rect class="b" x="67.18" y="338.42" width="1.67" height="1.43"/><rect class="b" x="63.85" y="338.42" width="1.67" height="1.43"/><rect class="b" x="57.17" y="338.42" width="1.67" height="1.43"/><rect class="b" x="53.84" y="338.42" width="1.67" height="1.43"/><rect class="b" x="50.5" y="338.42" width="1.67" height="1.43"/><rect class="b" x="47.17" y="338.42" width="1.67" height="1.43"/><polygon class="b" points="45.34 338.26 43.91 338.26 43.91 339.85 45.5 339.85 45.5 338.42 45.34 338.42 45.34 338.26"/><rect class="b" x="43.91" y="335.39" width="1.43" height="1.44"/><rect class="b" x="43.91" y="332.52" width="1.43" height="1.44"/><polygon class="b" points="43.91 331.08 45.34 331.08 45.34 330.92 45.5 330.92 45.5 329.49 43.91 329.49 43.91 331.08"/><rect class="b" x="47.16" y="329.49" width="1.67" height="1.43"/><rect class="b" x="60.5" y="329.49" width="1.67" height="1.43"/><rect class="b" x="50.5" y="329.49" width="1.67" height="1.43"/><rect class="b" x="57.16" y="329.49" width="1.67" height="1.43"/><rect class="b" x="63.83" y="329.49" width="1.67" height="1.43"/><rect class="b" x="53.83" y="329.49" width="1.67" height="1.43"/><polygon class="b" points="18.56 44.79 36.14 9.64 133.87 9.64 133.87 8.21 35.26 8.21 17.21 44.3 17.14 44.45 17.14 116.02 18.56 116.02 18.56 44.79"/><path class="b" d="M108.75,422.64c-1.75,0-2.62,1.39-3,3.63l-.32,2a8.28,8.28,0,0,0-.14,1.4c0,1.44.6,2.3,1.95,2.3,1.75,0,2.62-1.39,3-3.64l.33-2a9.34,9.34,0,0,0,.13-1.4C110.7,423.5,110.1,422.64,108.75,422.64Zm.31,4.78c-.09.51-.41.86-1.2.86s-1-.28-1-.67a3.31,3.31,0,0,1,.05-.46c.09-.52.41-.86,1.2-.86s1,.27,1,.67A3.47,3.47,0,0,1,109.06,427.42Z" transform="translate(-23.21 -92.61)"/><path class="b" d="M89.38,418.54a7.88,7.88,0,0,0,1,3.63v1.32a8.43,8.43,0,0,0-1,3.61,13.64,13.64,0,0,1,5.23-4.28A12.92,12.92,0,0,1,89.38,418.54Z" transform="translate(-23.21 -92.61)"/><path class="b" d="M125.64,395.33a8.5,8.5,0,0,0,1-3.57,13.51,13.51,0,0,1-5.23,4.29,12.77,12.77,0,0,1,5.23,4.28,8,8,0,0,0-1-3.57H147L129.87,431h-8.49V418.92a5,5,0,0,0-5-5H104.25V405h-1.43v8.93H99.63a5,5,0,0,0-5,5V431h-.88v1.43h.88v3.19a5,5,0,0,0,5,5h16.73a5,5,0,0,0,5-5v-3.19h9.37l18.56-37.13Zm-18.45,38.14c-2.57,0-3.72-1.58-3.72-4.28,0-3.42,1.27-8.09,5.33-8.09,2.57,0,3.72,1.57,3.72,4.28C112.52,428.79,111.25,433.47,107.19,433.47Z" transform="translate(-23.21 -92.61)"/><path class="b" d="M89.59,137.24H72.86a5,5,0,0,0-5,5V159a5,5,0,0,0,5,5H89.59a5,5,0,0,0,5-5V142.26A5,5,0,0,0,89.59,137.24Zm-4.44,15.7c0,2.12-1.7,3.87-4.7,3.87a3.89,3.89,0,0,1-3.89-2.19l1.44-1a2.53,2.53,0,0,0,2.57,1.57,2.26,2.26,0,0,0,2.55-1.88,3.05,3.05,0,0,0,.06-.55c0-1-.72-1.63-2.08-1.63H79.75l.27-1.59h1.24c1.47,0,2.36-.65,2.53-1.66a3.67,3.67,0,0,0,.07-.52c0-.87-.72-1.39-1.8-1.39a3.2,3.2,0,0,0-2.67,1.49l-1.15-1.13a5,5,0,0,1,4.1-1.93c2.12,0,3.54,1,3.54,2.74A3.24,3.24,0,0,1,83,150.3l0,.07A2.43,2.43,0,0,1,85.15,152.94Z" transform="translate(-23.21 -92.61)"/><polygon class="b" points="10.59 167.26 14.61 167.26 15.64 161.16 15.54 161.16 10.59 167.26"/><polygon class="b" points="39.12 286.92 41.59 286.92 42.22 283.18 42.16 283.18 39.12 286.92"/><path class="b" d="M45,244.33H28.23a5,5,0,0,0-5,5v16.73a5,5,0,0,0,5,5H45a5,5,0,0,0,5-5V249.35A5,5,0,0,0,45,244.33Zm-3.9,17H39.38L39,263.7h-1.8l.39-2.33h-5.7l.29-1.7,6.43-7.93H41l-1.38,8.14h1.7Z" transform="translate(-23.21 -92.61)"/><path class="b" d="M89.38,302.52a8,8,0,0,0,1,3.57H86.2L68.35,252.54h-9l-8.57-17.13h3.11a5,5,0,0,0,5-5V213.65a5,5,0,0,0-5-5H37.16a5,5,0,0,0-5,5v16.73a5,5,0,0,0,5,5H50l-.64.32,8.41,16.82H50V254H67.32l17.85,53.55h5.18a8.5,8.5,0,0,0-1,3.57,13.58,13.58,0,0,1,5.23-4.29A12.92,12.92,0,0,1,89.38,302.52Zm-39.46-85h-5.4l-1,4.29h.1a3.1,3.1,0,0,1,2.75-1.54,3,3,0,0,1,3.2,3.2,4.51,4.51,0,0,1-4.83,4.59,4,4,0,0,1-3.88-2.16l1.55-1a2.68,2.68,0,0,0,5.07-.6,3.8,3.8,0,0,0,.07-.72c0-1.11-.69-1.77-2-1.77a3.13,3.13,0,0,0-2.23.95l-1.52-.21,1.54-6.66h6.85Z" transform="translate(-23.21 -92.61)"/><path class="b" d="M135.07,150.45a2.46,2.46,0,0,0-2.62,2.23,3.47,3.47,0,0,0-.07.63c0,1.22.7,1.87,2,1.87a2.48,2.48,0,0,0,2.63-2.24,4.62,4.62,0,0,0,.06-.64C137.07,151.09,136.39,150.45,135.07,150.45Z" transform="translate(-23.21 -92.61)"/><path class="b" d="M143.13,137.24H126.4a5,5,0,0,0-5,5v3.19H94.61v1.43h26.77V159a5,5,0,0,0,5,5h3.19v8.21h-7.77l-8.92-17.85h-14a8,8,0,0,0,1-3.57,12.86,12.86,0,0,1-5.23,4.29,13.46,13.46,0,0,1,5.23,4.28,8.7,8.7,0,0,0-1-3.57H112l8.92,17.85H131V164h12.11a5,5,0,0,0,5-5V142.26A5,5,0,0,0,143.13,137.24Zm-8.95,19.47c-2.37,0-3.67-1.48-3.67-3.82,0-3.59,2.9-6.79,5.59-8.35h2.62c-3.05,1.94-4.9,3.55-5.95,6.12l.11,0a3.67,3.67,0,0,1,3.06-1.75,2.94,2.94,0,0,1,3.09,3.19A4.56,4.56,0,0,1,134.18,156.71Z" transform="translate(-23.21 -92.61)"/><path class="b" d="M110.76,344.27a2.8,2.8,0,0,0,0-.55c0-.9-.66-1.44-1.88-1.44a2.15,2.15,0,0,0-2.38,1.74,2.77,2.77,0,0,0,0,.54c0,.91.66,1.44,1.88,1.44A2.14,2.14,0,0,0,110.76,344.27Z" transform="translate(-23.21 -92.61)"/><path class="b" d="M108.07,347.44c-1.59,0-2.47.79-2.65,1.92a4.09,4.09,0,0,0-.09.69c0,1,.75,1.59,2.09,1.59a2.37,2.37,0,0,0,2.66-1.92,4,4,0,0,0,.08-.68C110.16,348,109.41,347.44,108.07,347.44Z" transform="translate(-23.21 -92.61)"/><path class="b" d="M108.38,387a2.48,2.48,0,0,0-2.62,2.24,3.48,3.48,0,0,0-.07.64c0,1.21.69,1.85,2,1.85a2.47,2.47,0,0,0,2.62-2.23,4.64,4.64,0,0,0,.07-.64C110.39,387.68,109.68,387,108.38,387Z" transform="translate(-23.21 -92.61)"/><path class="b" d="M116.36,378.2H99.63a5,5,0,0,0-5,5v12.11H68.55v-8.21h3.19a5,5,0,0,0,5-5v-7.8a5,5,0,0,0-5-5H68.55v-8.21H85v26.78h5.38a8.5,8.5,0,0,0-1,3.57,13.58,13.58,0,0,1,5.23-4.29,12.84,12.84,0,0,1-5.23-4.28,8,8,0,0,0,1,3.57H86.4V359.64H67.12v9.63H63.93a5,5,0,0,0-5,5v7.8a5,5,0,0,0,5,5h3.19v9.64H94.61V400a5,5,0,0,0,5,5h16.73a5,5,0,0,0,5-5V383.22A5,5,0,0,0,116.36,378.2ZM66.9,380.56H65.78l-.26,1.56h-1.2l.26-1.56h-3.8l.19-1.13,4.28-5.29h1.6l-.91,5.43h1.13Zm1,.25,1-.66a1.64,1.64,0,0,0,1.64,1,1.62,1.62,0,0,0,1.74-1.44,2.06,2.06,0,0,0,0-.48c0-.74-.46-1.17-1.33-1.17a2.08,2.08,0,0,0-1.48.62l-1-.13,1-4.45h4.57L74,375.23h-3.6l-.68,2.85h.07a2.06,2.06,0,0,1,1.83-1,2,2,0,0,1,2.14,2.13,3,3,0,0,1-3.22,3.06A2.69,2.69,0,0,1,67.9,380.81Zm38.77,16.86h-2.62c3-1.94,4.9-3.55,5.94-6.12l-.1,0a3.69,3.69,0,0,1-3.07,1.74,2.93,2.93,0,0,1-3.08-3.18,4.55,4.55,0,0,1,4.85-4.58c2.36,0,3.66,1.47,3.66,3.82C112.25,392.9,109.36,396.11,106.67,397.67Z" transform="translate(-23.21 -92.61)"/><path class="b" d="M169.91,92.61H162.1a5,5,0,0,0-5,5v7.8a5,5,0,0,0,5,5h3.19v35H152.41a8.4,8.4,0,0,0,1-3.57,13.54,13.54,0,0,1-5.22,4.28,12.89,12.89,0,0,1,5.22,4.28,8,8,0,0,0-1-3.56h14.3V110.46h3.19a5,5,0,0,0,5-5v-7.8A5,5,0,0,0,169.91,92.61Zm-5,12.85h-5.41l.17-1h2.23l1-6h-.1l-2.14,2-.71-.72,2.36-2.21h2l-1.16,6.93h1.93Zm7.38-6.89h-3.6l-.67,2.85h.07a2,2,0,0,1,1.82-1,2,2,0,0,1,2.14,2.13,3,3,0,0,1-3.22,3.06,2.67,2.67,0,0,1-2.58-1.44l1-.66a1.79,1.79,0,0,0,3.38-.4,2.67,2.67,0,0,0,0-.48c0-.74-.45-1.17-1.32-1.17a2.1,2.1,0,0,0-1.49.62l-1-.13,1-4.45h4.57Z" transform="translate(-23.21 -92.61)"/><path class="b" d="M103.73,119.27a1.65,1.65,0,0,0-1.74,1.49,2,2,0,0,0,0,.42c0,.81.47,1.25,1.34,1.25a1.65,1.65,0,0,0,1.74-1.5,2.09,2.09,0,0,0,0-.42C105.07,119.7,104.61,119.27,103.73,119.27Z" transform="translate(-23.21 -92.61)"/><path class="b" d="M131,133v-14.3H112.46v-3.19a5,5,0,0,0-5-5H99.63a5,5,0,0,0-5,5v3.19H85v18.57H86.4V120.1h8.21v3.19a5,5,0,0,0,5,5h7.81a5,5,0,0,0,5-5V120.1h17.13V133a8.5,8.5,0,0,0-3.57-1,13.51,13.51,0,0,1,4.29,5.23,12.77,12.77,0,0,1,4.28-5.23A8,8,0,0,0,131,133Zm-27.88-9.53a2.29,2.29,0,0,1-2.45-2.54c0-2.39,1.94-4.53,3.73-5.57h1.75c-2,1.29-3.27,2.37-4,4.08l.07,0a2.46,2.46,0,0,1,2-1.16,2,2,0,0,1,2.05,2.12A3,3,0,0,1,103.14,123.44Z" transform="translate(-23.21 -92.61)"/><path class="b" d="M169.91,190.78H153.18a5,5,0,0,0-5,5V199H85.68v-3.18a5,5,0,0,0-5-5H77.47V168.27a8.7,8.7,0,0,0,3.57,1A13.64,13.64,0,0,1,76.76,164a12.92,12.92,0,0,1-4.28,5.23,8,8,0,0,0,3.57-1v22.5H72.86a5,5,0,0,0-5,5v7.8a5,5,0,0,0,5,5h7.8a5,5,0,0,0,5-5v-3.19h62.48v7.5h-18l-17.85,8.92H63.18a8,8,0,0,0,1-3.57,12.86,12.86,0,0,1-5.23,4.29,13.55,13.55,0,0,1,5.23,4.28,8.54,8.54,0,0,0-1-3.57h49L130,236.12h27.07v-1.43H130.6l-16.94-16.94,16.82-8.4h17.68v3.19a5,5,0,0,0,5,5h16.73a5,5,0,0,0,5-5V195.81A5,5,0,0,0,169.91,190.78ZM79.38,201.25c0,1.42-1.14,2.58-3.13,2.58a2.61,2.61,0,0,1-2.6-1.46l1-.64a1.68,1.68,0,0,0,1.72,1.05,1.51,1.51,0,0,0,1.7-1.26,2.49,2.49,0,0,0,0-.36c0-.69-.48-1.09-1.38-1.09h-.9L76,199h.82c1,0,1.58-.43,1.69-1.11a1.65,1.65,0,0,0,0-.34c0-.58-.48-.93-1.2-.93a2.11,2.11,0,0,0-1.78,1l-.77-.76a3.37,3.37,0,0,1,2.73-1.29c1.42,0,2.37.68,2.37,1.83a2.16,2.16,0,0,1-1.9,2.08v0A1.62,1.62,0,0,1,79.38,201.25Zm86,7.41-.27,1.59h-8.21l.31-1.81,4.47-3.45c1.76-1.35,2.26-2.05,2.45-3.18a3.26,3.26,0,0,0,.05-.52c0-.92-.67-1.58-1.83-1.58a2.74,2.74,0,0,0-2.52,1.91l-1.65-.64a4.56,4.56,0,0,1,4.36-2.89c2.27,0,3.63,1.28,3.63,3.17s-1.3,3.25-3.5,4.88l-3.34,2.52Z" transform="translate(-23.21 -92.61)"/><path class="b" d="M138.52,164v17.14H121.38V178a5,5,0,0,0-5-5h-7.8a5,5,0,0,0-5,5v3.19H86.4V168.27a8.7,8.7,0,0,0,3.57,1A13.58,13.58,0,0,1,85.68,164a12.76,12.76,0,0,1-4.28,5.23,8,8,0,0,0,3.57-1v14.29h18.56v3.19a5,5,0,0,0,5,5h7.8a5,5,0,0,0,5-5v-3.19H140V164Zm-26.75,20.84-.19,1.06h-5.47l.21-1.21,3-2.29c1.18-.91,1.51-1.37,1.63-2.13a1.32,1.32,0,0,0,0-.34c0-.62-.45-1.05-1.22-1.05a1.81,1.81,0,0,0-1.68,1.27l-1.1-.43a3,3,0,0,1,2.9-1.93,2.13,2.13,0,0,1,2.42,2.12c0,1.3-.87,2.17-2.33,3.25l-2.23,1.68Zm6.86,1.06h-5.41l.17-1h2.23l1-6h-.1l-2.14,2-.71-.72,2.36-2.21h2l-1.16,6.92h1.93Z" transform="translate(-23.21 -92.61)"/><path class="b" d="M178.83,226.48H162.1a5,5,0,0,0-5,5v16.73a5,5,0,0,0,5,5h3.19v8.48l-17.85,8.92V280h-3.19a5,5,0,0,0-5,5v7.81a5,5,0,0,0,5,5h3.19v8.21h-21.8a8.54,8.54,0,0,0,1-3.57,13.57,13.57,0,0,1-5.23,4.28,12.79,12.79,0,0,1,5.23,4.29,8,8,0,0,0-1-3.57h23.22v-9.64h3.19a5,5,0,0,0,5-5v-7.81a5,5,0,0,0-5-5h-3.19v-8.48l17.85-8.93v-9.36h12.11a5,5,0,0,0,5-5V231.5A5,5,0,0,0,178.83,226.48ZM145.4,290.2l-2.22,1.68h4l-.18,1.06h-5.48l.21-1.21,3-2.3c1.18-.9,1.51-1.37,1.63-2.12a1.42,1.42,0,0,0,0-.34,1.07,1.07,0,0,0-1.22-1.06,1.82,1.82,0,0,0-1.68,1.27l-1.1-.42a3,3,0,0,1,2.9-1.93,2.13,2.13,0,0,1,2.42,2.11C147.73,288.24,146.87,289.11,145.4,290.2Zm5.11-1.41v-.08a1.56,1.56,0,0,1-1.09-1.56c0-1.14,1-2.32,3-2.32,1.55,0,2.37.72,2.37,1.82a2.23,2.23,0,0,1-1.69,2.07v.08a1.66,1.66,0,0,1,1.31,1.74c0,1.31-1.11,2.54-3.23,2.54-1.73,0-2.6-.83-2.6-2A2.36,2.36,0,0,1,150.51,288.79Zm24.11-53.26-6,10.32h-2.05l6.12-10.39h-4.63l-.38,2.21H166l.63-3.78h8.23Z" transform="translate(-23.21 -92.61)"/><path class="b" d="M151.88,288.31a1.44,1.44,0,0,0,1.59-1.15,2.62,2.62,0,0,0,0-.37c0-.6-.44-1-1.25-1a1.43,1.43,0,0,0-1.59,1.16,1.71,1.71,0,0,0,0,.36C150.62,288,151.07,288.31,151.88,288.31Z" transform="translate(-23.21 -92.61)"/><path class="b" d="M151.24,292.07a1.58,1.58,0,0,0,1.77-1.28,3.12,3.12,0,0,0,.06-.45c0-.67-.5-1.07-1.4-1.07a1.58,1.58,0,0,0-1.77,1.28,3,3,0,0,0-.05.46C149.85,291.67,150.35,292.07,151.24,292.07Z" transform="translate(-23.21 -92.61)"/><path class="b" d="M71.81,294.78c-1.17,0-1.75.93-2,2.42l-.22,1.31a5.48,5.48,0,0,0-.09.93c0,1,.4,1.53,1.3,1.53,1.16,0,1.75-.92,2-2.42l.22-1.3a6.74,6.74,0,0,0,.09-.94C73.11,295.35,72.71,294.78,71.81,294.78ZM72,298c-.06.34-.27.57-.8.57s-.65-.18-.65-.45a2,2,0,0,1,0-.3c.06-.35.28-.58.8-.58s.65.19.65.45A2.24,2.24,0,0,1,72,298Z" transform="translate(-23.21 -92.61)"/><path class="b" d="M89.38,311.44a8,8,0,0,0,1,3.57H77.27l-3-8.93a5,5,0,0,0,2.46-4.3V294a5,5,0,0,0-5-5H68.59l-9.16-27.48H50v1.42H58.4L67.08,289H63.93a5,5,0,0,0-5,5v7.81a5,5,0,0,0,5,5h7.81a4.93,4.93,0,0,0,1.23-.17l3.28,9.81h14.1a8.54,8.54,0,0,0-1,3.57,13.55,13.55,0,0,1,5.23-4.28A12.86,12.86,0,0,1,89.38,311.44Zm-22.61-9.58H61.35l.17-1.05h2.23l1-6h-.11l-2.13,2-.71-.72,2.35-2.21h2L65,300.81h1.93Zm4,.14c-1.72,0-2.48-1.05-2.48-2.85,0-2.28.84-5.4,3.55-5.4,1.71,0,2.48,1.05,2.48,2.86C74.32,298.88,73.47,302,70.77,302Z" transform="translate(-23.21 -92.61)"/><path class="b" d="M174.93,253.26a12.89,12.89,0,0,1-4.28,5.22,8,8,0,0,0,3.57-1v22.34L156.64,315H121.38V302.9a5,5,0,0,0-5-5h-3.19V270.39h-9.64V267.2a5,5,0,0,0-5-5h-7.8a5,5,0,0,0-5,5V275a5,5,0,0,0,5,5H93.9v9.64h8.92v3.95a8.54,8.54,0,0,0-3.57-1,13.48,13.48,0,0,1,4.28,5.23,12.79,12.79,0,0,1,4.29-5.23,8,8,0,0,0-3.57,1v-5.37H95.32V280h3.19a5,5,0,0,0,5-5v-3.19h8.21v26.06H99.63a5,5,0,0,0-5,5v16.73a5,5,0,0,0,5,5h16.73a5,5,0,0,0,5-5v-3.19h26.06v25.35H121.38V338.6a5,5,0,0,0-5-5H99.63a5,5,0,0,0-5,5v16.73a5,5,0,0,0,5,5h16.73a5,5,0,0,0,5-5v-3.19h26.06v8.21h-3.19a5,5,0,0,0-5,5v7.81a5,5,0,0,0,5,5h3.19v8.21h-21.8a8.54,8.54,0,0,0,1-3.57,13.48,13.48,0,0,1-5.23,4.28,12.79,12.79,0,0,1,5.23,4.29,8,8,0,0,0-1-3.57h23.22V378.2h3.19a5,5,0,0,0,5-5v-7.81a5,5,0,0,0-5-5h-3.19v-9.64H121.38v-7.5h27.49V316.44h8.65l18-36.09.07-.15V257.51a8.4,8.4,0,0,0,3.57,1A13.54,13.54,0,0,1,174.93,253.26Zm-77.7,21.83H91.82l.17-1h2.22l1-6h-.1L93,270l-.71-.72,2.36-2.2h2L95.47,274H97.4Zm14.45,42.15h-8.12l.25-1.57h3.35l1.5-9h-.15l-3.21,3-1.06-1.08,3.53-3.31h3L109,315.67h2.9Zm.44,32.1c0,2-1.67,3.81-4.85,3.81-2.59,0-3.89-1.24-3.89-3a3.52,3.52,0,0,1,2.94-3.43l0-.12a2.36,2.36,0,0,1-1.63-2.35c0-1.71,1.46-3.47,4.44-3.47,2.32,0,3.55,1.08,3.55,2.72a3.36,3.36,0,0,1-2.54,3.12v.12A2.49,2.49,0,0,1,112.12,349.34Zm40.53,16h1.75c-2,1.29-3.27,2.36-4,4.08l.07,0a2.45,2.45,0,0,1,2.05-1.17,2,2,0,0,1,2,2.13,3,3,0,0,1-3.23,3,2.28,2.28,0,0,1-2.44-2.55C148.93,368.46,150.86,366.33,152.65,365.29ZM147.92,367a2.18,2.18,0,0,1-1.89,2.08l0,0a1.62,1.62,0,0,1,1.42,1.72c0,1.41-1.13,2.58-3.13,2.58a2.59,2.59,0,0,1-2.59-1.46l1-.64a1.68,1.68,0,0,0,1.71,1.05,1.51,1.51,0,0,0,1.7-1.26,1.73,1.73,0,0,0,0-.37c0-.68-.48-1.08-1.39-1.08h-.9l.18-1.06h.83c1,0,1.57-.44,1.69-1.11a2.63,2.63,0,0,0,0-.34c0-.59-.48-.93-1.2-.93a2.15,2.15,0,0,0-1.78,1l-.76-.75a3.32,3.32,0,0,1,2.73-1.29C147,365.15,147.92,365.82,147.92,367Z" transform="translate(-23.21 -92.61)"/><path class="b" d="M151.51,372.38a1.66,1.66,0,0,0,1.75-1.5,2.85,2.85,0,0,0,0-.42c0-.81-.45-1.23-1.33-1.23a1.64,1.64,0,0,0-1.75,1.48,2.1,2.1,0,0,0-.05.43C150.17,372,150.64,372.38,151.51,372.38Z" transform="translate(-23.21 -92.61)"/></svg>